<mxfile host="app.diagrams.net" agent="Mozilla/5.0 (Windows NT 10.0; Win64; x64) AppleWebKit/537.36 (KHTML, like Gecko) Chrome/138.0.0.0 Safari/537.36" version="26.2.14">
  <diagram name="Sizes" id="lMJqUt3AzrCXy3FowB64">
    <mxGraphModel dx="4995" dy="2320" grid="1" gridSize="10" guides="1" tooltips="1" connect="1" arrows="1" fold="1" page="1" pageScale="1" pageWidth="827" pageHeight="1169" math="0" shadow="0">
      <root>
        <mxCell id="0" />
        <mxCell id="1" parent="0" />
        <mxCell id="CcgA9E4d6CHRGQEPa_HV-623" value="" style="whiteSpace=wrap;html=1;strokeColor=#6c8ebf;align=center;verticalAlign=middle;fontFamily=Helvetica;fontSize=12;fillColor=#dae8fc;fontStyle=1;strokeWidth=2;" vertex="1" parent="1">
          <mxGeometry x="1680" y="600" width="540" height="480" as="geometry" />
        </mxCell>
        <mxCell id="CcgA9E4d6CHRGQEPa_HV-349" value="" style="whiteSpace=wrap;html=1;strokeColor=#6c8ebf;align=center;verticalAlign=middle;fontFamily=Helvetica;fontSize=12;fillColor=#dae8fc;fontStyle=1;strokeWidth=2;" vertex="1" parent="1">
          <mxGeometry x="1080" y="560" width="460" height="400" as="geometry" />
        </mxCell>
        <mxCell id="CcgA9E4d6CHRGQEPa_HV-334" value="" style="whiteSpace=wrap;html=1;strokeColor=#6c8ebf;align=center;verticalAlign=middle;fontFamily=Helvetica;fontSize=12;fillColor=#dae8fc;fontStyle=1;strokeWidth=2;" vertex="1" parent="1">
          <mxGeometry x="640" y="440" width="380" height="320" as="geometry" />
        </mxCell>
        <mxCell id="CcgA9E4d6CHRGQEPa_HV-321" value="" style="whiteSpace=wrap;html=1;strokeColor=#6c8ebf;align=center;verticalAlign=middle;fontFamily=Helvetica;fontSize=12;fillColor=#dae8fc;fontStyle=1;strokeWidth=2;" vertex="1" parent="1">
          <mxGeometry x="280" y="360" width="300" height="240" as="geometry" />
        </mxCell>
        <mxCell id="CcgA9E4d6CHRGQEPa_HV-316" value="" style="whiteSpace=wrap;html=1;strokeColor=#6c8ebf;align=center;verticalAlign=middle;fontFamily=Helvetica;fontSize=12;fillColor=#dae8fc;fontStyle=0;strokeWidth=2;" vertex="1" parent="1">
          <mxGeometry y="280" width="220" height="160" as="geometry" />
        </mxCell>
        <mxCell id="CcgA9E4d6CHRGQEPa_HV-1" value="1" style="ellipse;whiteSpace=wrap;html=1;aspect=fixed;fillColor=#e1d5e7;strokeColor=#9673a6;" vertex="1" parent="1">
          <mxGeometry x="100" y="120" width="40" height="40" as="geometry" />
        </mxCell>
        <mxCell id="CcgA9E4d6CHRGQEPa_HV-2" value="2" style="ellipse;whiteSpace=wrap;html=1;aspect=fixed;fillColor=#e1d5e7;strokeColor=#9673a6;" vertex="1" parent="1">
          <mxGeometry x="140" y="120" width="40" height="40" as="geometry" />
        </mxCell>
        <mxCell id="CcgA9E4d6CHRGQEPa_HV-3" value="6" style="ellipse;whiteSpace=wrap;html=1;aspect=fixed;fillColor=#f8cecc;strokeColor=#b85450;" vertex="1" parent="1">
          <mxGeometry x="100" y="200" width="40" height="40" as="geometry" />
        </mxCell>
        <mxCell id="CcgA9E4d6CHRGQEPa_HV-4" value="7" style="ellipse;whiteSpace=wrap;html=1;aspect=fixed;fillColor=#f8cecc;strokeColor=#b85450;" vertex="1" parent="1">
          <mxGeometry x="140" y="200" width="40" height="40" as="geometry" />
        </mxCell>
        <mxCell id="CcgA9E4d6CHRGQEPa_HV-5" value="4" style="ellipse;whiteSpace=wrap;html=1;aspect=fixed;" vertex="1" parent="1">
          <mxGeometry x="120" y="160" width="40" height="40" as="geometry" />
        </mxCell>
        <mxCell id="CcgA9E4d6CHRGQEPa_HV-6" value="3" style="ellipse;whiteSpace=wrap;html=1;aspect=fixed;" vertex="1" parent="1">
          <mxGeometry x="80" y="160" width="40" height="40" as="geometry" />
        </mxCell>
        <mxCell id="CcgA9E4d6CHRGQEPa_HV-7" value="5" style="ellipse;whiteSpace=wrap;html=1;aspect=fixed;" vertex="1" parent="1">
          <mxGeometry x="160" y="160" width="40" height="40" as="geometry" />
        </mxCell>
        <mxCell id="CcgA9E4d6CHRGQEPa_HV-9" value="" style="whiteSpace=wrap;html=1;aspect=fixed;strokeColor=default;align=center;verticalAlign=middle;fontFamily=Helvetica;fontSize=12;fillColor=light-dark(#FFFFFF,#A680B8);fontColor=default;" vertex="1" parent="1">
          <mxGeometry x="80" y="320" width="40" height="40" as="geometry" />
        </mxCell>
        <mxCell id="CcgA9E4d6CHRGQEPa_HV-10" value="" style="whiteSpace=wrap;html=1;aspect=fixed;fillColor=#e1d5e7;strokeColor=#9673a6;" vertex="1" parent="1">
          <mxGeometry x="120" y="320" width="40" height="40" as="geometry" />
        </mxCell>
        <mxCell id="CcgA9E4d6CHRGQEPa_HV-11" value="" style="whiteSpace=wrap;html=1;aspect=fixed;fillColor=#e1d5e7;strokeColor=#9673a6;align=center;verticalAlign=middle;fontFamily=Helvetica;fontSize=12;" vertex="1" parent="1">
          <mxGeometry x="160" y="320" width="40" height="40" as="geometry" />
        </mxCell>
        <mxCell id="CcgA9E4d6CHRGQEPa_HV-12" value="" style="whiteSpace=wrap;html=1;aspect=fixed;fillColor=default;strokeColor=default;align=center;verticalAlign=middle;fontFamily=Helvetica;fontSize=12;fontColor=default;" vertex="1" parent="1">
          <mxGeometry x="100" y="360" width="40" height="40" as="geometry" />
        </mxCell>
        <mxCell id="CcgA9E4d6CHRGQEPa_HV-13" value="" style="whiteSpace=wrap;html=1;aspect=fixed;" vertex="1" parent="1">
          <mxGeometry x="140" y="360" width="40" height="40" as="geometry" />
        </mxCell>
        <mxCell id="CcgA9E4d6CHRGQEPa_HV-14" value="" style="whiteSpace=wrap;html=1;aspect=fixed;fillColor=default;strokeColor=default;align=center;verticalAlign=middle;fontFamily=Helvetica;fontSize=12;fontColor=default;" vertex="1" parent="1">
          <mxGeometry x="180" y="360" width="40" height="40" as="geometry" />
        </mxCell>
        <mxCell id="CcgA9E4d6CHRGQEPa_HV-15" value="" style="whiteSpace=wrap;html=1;aspect=fixed;strokeColor=default;align=center;verticalAlign=middle;fontFamily=Helvetica;fontSize=12;fillColor=light-dark(#FFFFFF,#A680B8);direction=south;fontColor=default;" vertex="1" parent="1">
          <mxGeometry x="80" y="400" width="40" height="40" as="geometry" />
        </mxCell>
        <mxCell id="CcgA9E4d6CHRGQEPa_HV-16" value="" style="whiteSpace=wrap;html=1;aspect=fixed;fillColor=#f8cecc;strokeColor=#b85450;" vertex="1" parent="1">
          <mxGeometry x="120" y="400" width="40" height="40" as="geometry" />
        </mxCell>
        <mxCell id="CcgA9E4d6CHRGQEPa_HV-17" value="" style="whiteSpace=wrap;html=1;aspect=fixed;fillColor=#f8cecc;strokeColor=#b85450;align=center;verticalAlign=middle;fontFamily=Helvetica;fontSize=12;" vertex="1" parent="1">
          <mxGeometry x="160" y="400" width="40" height="40" as="geometry" />
        </mxCell>
        <mxCell id="CcgA9E4d6CHRGQEPa_HV-19" value="2" style="ellipse;whiteSpace=wrap;html=1;aspect=fixed;fillColor=#e1d5e7;strokeColor=#9673a6;align=center;verticalAlign=middle;fontFamily=Helvetica;fontSize=12;" vertex="1" parent="1">
          <mxGeometry x="400" y="120" width="40" height="40" as="geometry" />
        </mxCell>
        <mxCell id="CcgA9E4d6CHRGQEPa_HV-20" value="1" style="ellipse;whiteSpace=wrap;html=1;aspect=fixed;fillColor=#e1d5e7;strokeColor=#9673a6;align=center;verticalAlign=middle;fontFamily=Helvetica;fontSize=12;" vertex="1" parent="1">
          <mxGeometry x="360" y="120" width="40" height="40" as="geometry" />
        </mxCell>
        <mxCell id="CcgA9E4d6CHRGQEPa_HV-21" value="3" style="ellipse;whiteSpace=wrap;html=1;aspect=fixed;fillColor=#e1d5e7;strokeColor=#9673a6;align=center;verticalAlign=middle;fontFamily=Helvetica;fontSize=12;" vertex="1" parent="1">
          <mxGeometry x="440" y="120" width="40" height="40" as="geometry" />
        </mxCell>
        <mxCell id="CcgA9E4d6CHRGQEPa_HV-22" value="6" style="ellipse;whiteSpace=wrap;html=1;aspect=fixed;fillColor=#e1d5e7;strokeColor=#9673a6;align=center;verticalAlign=middle;fontFamily=Helvetica;fontSize=12;" vertex="1" parent="1">
          <mxGeometry x="420" y="160" width="40" height="40" as="geometry" />
        </mxCell>
        <mxCell id="CcgA9E4d6CHRGQEPa_HV-23" value="5" style="ellipse;whiteSpace=wrap;html=1;aspect=fixed;fillColor=#e1d5e7;strokeColor=#9673a6;align=center;verticalAlign=middle;fontFamily=Helvetica;fontSize=12;" vertex="1" parent="1">
          <mxGeometry x="380" y="160" width="40" height="40" as="geometry" />
        </mxCell>
        <mxCell id="CcgA9E4d6CHRGQEPa_HV-24" value="7" style="ellipse;whiteSpace=wrap;html=1;aspect=fixed;fillColor=default;strokeColor=default;align=center;verticalAlign=middle;fontFamily=Helvetica;fontSize=12;fontColor=default;" vertex="1" parent="1">
          <mxGeometry x="460" y="160" width="40" height="40" as="geometry" />
        </mxCell>
        <mxCell id="CcgA9E4d6CHRGQEPa_HV-25" value="4" style="ellipse;whiteSpace=wrap;html=1;aspect=fixed;fillColor=default;strokeColor=default;align=center;verticalAlign=middle;fontFamily=Helvetica;fontSize=12;fontColor=default;" vertex="1" parent="1">
          <mxGeometry x="340" y="160" width="40" height="40" as="geometry" />
        </mxCell>
        <mxCell id="CcgA9E4d6CHRGQEPa_HV-26" value="10" style="ellipse;whiteSpace=wrap;html=1;aspect=fixed;fillColor=default;strokeColor=default;align=center;verticalAlign=middle;fontFamily=Helvetica;fontSize=12;fontColor=default;" vertex="1" parent="1">
          <mxGeometry x="400" y="200" width="40" height="40" as="geometry" />
        </mxCell>
        <mxCell id="CcgA9E4d6CHRGQEPa_HV-27" value="9" style="ellipse;whiteSpace=wrap;html=1;aspect=fixed;fillColor=default;strokeColor=default;align=center;verticalAlign=middle;fontFamily=Helvetica;fontSize=12;fontColor=default;" vertex="1" parent="1">
          <mxGeometry x="360" y="200" width="40" height="40" as="geometry" />
        </mxCell>
        <mxCell id="CcgA9E4d6CHRGQEPa_HV-28" value="11" style="ellipse;whiteSpace=wrap;html=1;aspect=fixed;" vertex="1" parent="1">
          <mxGeometry x="440" y="200" width="40" height="40" as="geometry" />
        </mxCell>
        <mxCell id="CcgA9E4d6CHRGQEPa_HV-29" value="8" style="ellipse;whiteSpace=wrap;html=1;aspect=fixed;" vertex="1" parent="1">
          <mxGeometry x="320" y="200" width="40" height="40" as="geometry" />
        </mxCell>
        <mxCell id="CcgA9E4d6CHRGQEPa_HV-30" value="12" style="ellipse;whiteSpace=wrap;html=1;aspect=fixed;" vertex="1" parent="1">
          <mxGeometry x="480" y="200" width="40" height="40" as="geometry" />
        </mxCell>
        <mxCell id="CcgA9E4d6CHRGQEPa_HV-38" value="15" style="ellipse;whiteSpace=wrap;html=1;aspect=fixed;fillColor=#f8cecc;strokeColor=#b85450;align=center;verticalAlign=middle;fontFamily=Helvetica;fontSize=12;" vertex="1" parent="1">
          <mxGeometry x="420" y="240" width="40" height="40" as="geometry" />
        </mxCell>
        <mxCell id="CcgA9E4d6CHRGQEPa_HV-39" value="14" style="ellipse;whiteSpace=wrap;html=1;aspect=fixed;fillColor=#f8cecc;strokeColor=#b85450;align=center;verticalAlign=middle;fontFamily=Helvetica;fontSize=12;" vertex="1" parent="1">
          <mxGeometry x="380" y="240" width="40" height="40" as="geometry" />
        </mxCell>
        <mxCell id="CcgA9E4d6CHRGQEPa_HV-40" value="16" style="ellipse;whiteSpace=wrap;html=1;aspect=fixed;fillColor=default;strokeColor=default;align=center;verticalAlign=middle;fontFamily=Helvetica;fontSize=12;fontColor=default;" vertex="1" parent="1">
          <mxGeometry x="460" y="240" width="40" height="40" as="geometry" />
        </mxCell>
        <mxCell id="CcgA9E4d6CHRGQEPa_HV-41" value="13" style="ellipse;whiteSpace=wrap;html=1;aspect=fixed;fillColor=default;strokeColor=default;align=center;verticalAlign=middle;fontFamily=Helvetica;fontSize=12;fontColor=default;" vertex="1" parent="1">
          <mxGeometry x="340" y="240" width="40" height="40" as="geometry" />
        </mxCell>
        <mxCell id="CcgA9E4d6CHRGQEPa_HV-42" value="18" style="ellipse;whiteSpace=wrap;html=1;aspect=fixed;fillColor=#f8cecc;strokeColor=#b85450;align=center;verticalAlign=middle;fontFamily=Helvetica;fontSize=12;" vertex="1" parent="1">
          <mxGeometry x="400" y="280" width="40" height="40" as="geometry" />
        </mxCell>
        <mxCell id="CcgA9E4d6CHRGQEPa_HV-43" value="17" style="ellipse;whiteSpace=wrap;html=1;aspect=fixed;fillColor=#f8cecc;strokeColor=#b85450;align=center;verticalAlign=middle;fontFamily=Helvetica;fontSize=12;" vertex="1" parent="1">
          <mxGeometry x="360" y="280" width="40" height="40" as="geometry" />
        </mxCell>
        <mxCell id="CcgA9E4d6CHRGQEPa_HV-44" value="19" style="ellipse;whiteSpace=wrap;html=1;aspect=fixed;fillColor=#f8cecc;strokeColor=#b85450;align=center;verticalAlign=middle;fontFamily=Helvetica;fontSize=12;" vertex="1" parent="1">
          <mxGeometry x="440" y="280" width="40" height="40" as="geometry" />
        </mxCell>
        <mxCell id="CcgA9E4d6CHRGQEPa_HV-45" value="" style="whiteSpace=wrap;html=1;aspect=fixed;strokeColor=default;align=center;verticalAlign=middle;fontFamily=Helvetica;fontSize=12;fontColor=default;fillColor=light-dark(#FFFFFF,#A680B8);" vertex="1" parent="1">
          <mxGeometry x="360" y="400" width="40" height="40" as="geometry" />
        </mxCell>
        <mxCell id="CcgA9E4d6CHRGQEPa_HV-46" value="" style="whiteSpace=wrap;html=1;aspect=fixed;fillColor=#e1d5e7;strokeColor=#9673a6;align=center;verticalAlign=middle;fontFamily=Helvetica;fontSize=12;" vertex="1" parent="1">
          <mxGeometry x="400" y="400" width="40" height="40" as="geometry" />
        </mxCell>
        <mxCell id="CcgA9E4d6CHRGQEPa_HV-48" value="" style="whiteSpace=wrap;html=1;aspect=fixed;fillColor=#e1d5e7;strokeColor=#9673a6;align=center;verticalAlign=middle;fontFamily=Helvetica;fontSize=12;" vertex="1" parent="1">
          <mxGeometry x="440" y="400" width="40" height="40" as="geometry" />
        </mxCell>
        <mxCell id="CcgA9E4d6CHRGQEPa_HV-49" value="" style="whiteSpace=wrap;html=1;aspect=fixed;fillColor=#e1d5e7;strokeColor=#9673a6;align=center;verticalAlign=middle;fontFamily=Helvetica;fontSize=12;" vertex="1" parent="1">
          <mxGeometry x="480" y="400" width="40" height="40" as="geometry" />
        </mxCell>
        <mxCell id="CcgA9E4d6CHRGQEPa_HV-50" value="" style="whiteSpace=wrap;html=1;aspect=fixed;strokeColor=default;align=center;verticalAlign=middle;fontFamily=Helvetica;fontSize=12;fontColor=default;fillColor=light-dark(#FFFFFF,#A680B8);" vertex="1" parent="1">
          <mxGeometry x="520" y="400" width="40" height="40" as="geometry" />
        </mxCell>
        <mxCell id="CcgA9E4d6CHRGQEPa_HV-51" value="" style="whiteSpace=wrap;html=1;aspect=fixed;fillColor=default;strokeColor=default;align=center;verticalAlign=middle;fontFamily=Helvetica;fontSize=12;fontColor=default;" vertex="1" parent="1">
          <mxGeometry x="360" y="480" width="40" height="40" as="geometry" />
        </mxCell>
        <mxCell id="CcgA9E4d6CHRGQEPa_HV-52" value="" style="whiteSpace=wrap;html=1;aspect=fixed;" vertex="1" parent="1">
          <mxGeometry x="400" y="480" width="40" height="40" as="geometry" />
        </mxCell>
        <mxCell id="CcgA9E4d6CHRGQEPa_HV-53" value="" style="whiteSpace=wrap;html=1;aspect=fixed;" vertex="1" parent="1">
          <mxGeometry x="440" y="480" width="40" height="40" as="geometry" />
        </mxCell>
        <mxCell id="CcgA9E4d6CHRGQEPa_HV-54" value="" style="whiteSpace=wrap;html=1;aspect=fixed;" vertex="1" parent="1">
          <mxGeometry x="480" y="480" width="40" height="40" as="geometry" />
        </mxCell>
        <mxCell id="CcgA9E4d6CHRGQEPa_HV-55" value="" style="whiteSpace=wrap;html=1;aspect=fixed;fillColor=default;strokeColor=default;align=center;verticalAlign=middle;fontFamily=Helvetica;fontSize=12;fontColor=default;" vertex="1" parent="1">
          <mxGeometry x="520" y="480" width="40" height="40" as="geometry" />
        </mxCell>
        <mxCell id="CcgA9E4d6CHRGQEPa_HV-56" value="" style="whiteSpace=wrap;html=1;aspect=fixed;strokeColor=default;align=center;verticalAlign=middle;fontFamily=Helvetica;fontSize=12;fontColor=default;fillColor=light-dark(#FFFFFF,#A680B8);" vertex="1" parent="1">
          <mxGeometry x="360" y="560" width="40" height="40" as="geometry" />
        </mxCell>
        <mxCell id="CcgA9E4d6CHRGQEPa_HV-57" value="" style="whiteSpace=wrap;html=1;aspect=fixed;fillColor=#f8cecc;strokeColor=#b85450;align=center;verticalAlign=middle;fontFamily=Helvetica;fontSize=12;" vertex="1" parent="1">
          <mxGeometry x="400" y="560" width="40" height="40" as="geometry" />
        </mxCell>
        <mxCell id="CcgA9E4d6CHRGQEPa_HV-58" value="" style="whiteSpace=wrap;html=1;aspect=fixed;fillColor=#f8cecc;strokeColor=#b85450;align=center;verticalAlign=middle;fontFamily=Helvetica;fontSize=12;" vertex="1" parent="1">
          <mxGeometry x="440" y="560" width="40" height="40" as="geometry" />
        </mxCell>
        <mxCell id="CcgA9E4d6CHRGQEPa_HV-59" value="" style="whiteSpace=wrap;html=1;aspect=fixed;fillColor=#f8cecc;strokeColor=#b85450;align=center;verticalAlign=middle;fontFamily=Helvetica;fontSize=12;" vertex="1" parent="1">
          <mxGeometry x="480" y="560" width="40" height="40" as="geometry" />
        </mxCell>
        <mxCell id="CcgA9E4d6CHRGQEPa_HV-60" value="" style="whiteSpace=wrap;html=1;aspect=fixed;strokeColor=default;align=center;verticalAlign=middle;fontFamily=Helvetica;fontSize=12;fontColor=default;fillColor=light-dark(#FFFFFF,#A680B8);" vertex="1" parent="1">
          <mxGeometry x="520" y="560" width="40" height="40" as="geometry" />
        </mxCell>
        <mxCell id="CcgA9E4d6CHRGQEPa_HV-61" value="" style="whiteSpace=wrap;html=1;aspect=fixed;fillColor=default;strokeColor=default;align=center;verticalAlign=middle;fontFamily=Helvetica;fontSize=12;fontColor=default;" vertex="1" parent="1">
          <mxGeometry x="380" y="440" width="40" height="40" as="geometry" />
        </mxCell>
        <mxCell id="CcgA9E4d6CHRGQEPa_HV-62" value="" style="whiteSpace=wrap;html=1;aspect=fixed;fillColor=#e1d5e7;strokeColor=#9673a6;" vertex="1" parent="1">
          <mxGeometry x="420" y="440" width="40" height="40" as="geometry" />
        </mxCell>
        <mxCell id="CcgA9E4d6CHRGQEPa_HV-63" value="" style="whiteSpace=wrap;html=1;aspect=fixed;fillColor=#e1d5e7;strokeColor=#9673a6;" vertex="1" parent="1">
          <mxGeometry x="460" y="440" width="40" height="40" as="geometry" />
        </mxCell>
        <mxCell id="CcgA9E4d6CHRGQEPa_HV-64" value="" style="whiteSpace=wrap;html=1;aspect=fixed;fillColor=default;strokeColor=default;align=center;verticalAlign=middle;fontFamily=Helvetica;fontSize=12;fontColor=default;" vertex="1" parent="1">
          <mxGeometry x="500" y="440" width="40" height="40" as="geometry" />
        </mxCell>
        <mxCell id="CcgA9E4d6CHRGQEPa_HV-65" value="" style="whiteSpace=wrap;html=1;aspect=fixed;strokeColor=default;align=center;verticalAlign=middle;fontFamily=Helvetica;fontSize=12;fontColor=default;fillColor=light-dark(#FFFFFF,#A680B8);" vertex="1" parent="1">
          <mxGeometry x="540" y="440" width="40" height="40" as="geometry" />
        </mxCell>
        <mxCell id="CcgA9E4d6CHRGQEPa_HV-66" value="" style="whiteSpace=wrap;html=1;aspect=fixed;fillColor=default;strokeColor=default;align=center;verticalAlign=middle;fontFamily=Helvetica;fontSize=12;fontColor=default;" vertex="1" parent="1">
          <mxGeometry x="380" y="520" width="40" height="40" as="geometry" />
        </mxCell>
        <mxCell id="CcgA9E4d6CHRGQEPa_HV-67" value="" style="whiteSpace=wrap;html=1;aspect=fixed;fillColor=#f8cecc;strokeColor=#b85450;" vertex="1" parent="1">
          <mxGeometry x="420" y="520" width="40" height="40" as="geometry" />
        </mxCell>
        <mxCell id="CcgA9E4d6CHRGQEPa_HV-68" value="" style="whiteSpace=wrap;html=1;aspect=fixed;fillColor=#f8cecc;strokeColor=#b85450;" vertex="1" parent="1">
          <mxGeometry x="460" y="520" width="40" height="40" as="geometry" />
        </mxCell>
        <mxCell id="CcgA9E4d6CHRGQEPa_HV-69" value="" style="whiteSpace=wrap;html=1;aspect=fixed;fillColor=default;strokeColor=default;align=center;verticalAlign=middle;fontFamily=Helvetica;fontSize=12;fontColor=default;" vertex="1" parent="1">
          <mxGeometry x="500" y="520" width="40" height="40" as="geometry" />
        </mxCell>
        <mxCell id="CcgA9E4d6CHRGQEPa_HV-70" value="" style="whiteSpace=wrap;html=1;aspect=fixed;strokeColor=default;align=center;verticalAlign=middle;fontFamily=Helvetica;fontSize=12;fontColor=default;fillColor=light-dark(#FFFFFF,#A680B8);" vertex="1" parent="1">
          <mxGeometry x="540" y="520" width="40" height="40" as="geometry" />
        </mxCell>
        <mxCell id="CcgA9E4d6CHRGQEPa_HV-71" value="" style="ellipse;whiteSpace=wrap;html=1;aspect=fixed;fillColor=#e1d5e7;strokeColor=#9673a6;" vertex="1" parent="1">
          <mxGeometry x="840" y="120" width="40" height="40" as="geometry" />
        </mxCell>
        <mxCell id="CcgA9E4d6CHRGQEPa_HV-72" value="" style="ellipse;whiteSpace=wrap;html=1;aspect=fixed;fillColor=#e1d5e7;strokeColor=#9673a6;" vertex="1" parent="1">
          <mxGeometry x="800" y="120" width="40" height="40" as="geometry" />
        </mxCell>
        <mxCell id="CcgA9E4d6CHRGQEPa_HV-73" value="" style="ellipse;whiteSpace=wrap;html=1;aspect=fixed;fillColor=#e1d5e7;strokeColor=#9673a6;" vertex="1" parent="1">
          <mxGeometry x="880" y="120" width="40" height="40" as="geometry" />
        </mxCell>
        <mxCell id="CcgA9E4d6CHRGQEPa_HV-74" value="" style="ellipse;whiteSpace=wrap;html=1;aspect=fixed;fillColor=#e1d5e7;strokeColor=#9673a6;" vertex="1" parent="1">
          <mxGeometry x="760" y="120" width="40" height="40" as="geometry" />
        </mxCell>
        <mxCell id="CcgA9E4d6CHRGQEPa_HV-79" value="" style="ellipse;whiteSpace=wrap;html=1;aspect=fixed;fillColor=#e1d5e7;strokeColor=#9673a6;" vertex="1" parent="1">
          <mxGeometry x="820" y="160" width="40" height="40" as="geometry" />
        </mxCell>
        <mxCell id="CcgA9E4d6CHRGQEPa_HV-80" value="" style="ellipse;whiteSpace=wrap;html=1;aspect=fixed;fillColor=#e1d5e7;strokeColor=#9673a6;" vertex="1" parent="1">
          <mxGeometry x="780" y="160" width="40" height="40" as="geometry" />
        </mxCell>
        <mxCell id="CcgA9E4d6CHRGQEPa_HV-81" value="" style="ellipse;whiteSpace=wrap;html=1;aspect=fixed;fillColor=#e1d5e7;strokeColor=#9673a6;" vertex="1" parent="1">
          <mxGeometry x="860" y="160" width="40" height="40" as="geometry" />
        </mxCell>
        <mxCell id="CcgA9E4d6CHRGQEPa_HV-82" value="" style="ellipse;whiteSpace=wrap;html=1;aspect=fixed;fillColor=#e1d5e7;strokeColor=#9673a6;" vertex="1" parent="1">
          <mxGeometry x="740" y="160" width="40" height="40" as="geometry" />
        </mxCell>
        <mxCell id="CcgA9E4d6CHRGQEPa_HV-83" value="" style="ellipse;whiteSpace=wrap;html=1;aspect=fixed;strokeColor=#9673a6;align=center;verticalAlign=middle;fontFamily=Helvetica;fontSize=12;fillColor=#e1d5e7;" vertex="1" parent="1">
          <mxGeometry x="800" y="200" width="40" height="40" as="geometry" />
        </mxCell>
        <mxCell id="CcgA9E4d6CHRGQEPa_HV-84" value="" style="ellipse;whiteSpace=wrap;html=1;aspect=fixed;align=center;verticalAlign=middle;fontFamily=Helvetica;fontSize=12;" vertex="1" parent="1">
          <mxGeometry x="760" y="200" width="40" height="40" as="geometry" />
        </mxCell>
        <mxCell id="CcgA9E4d6CHRGQEPa_HV-85" value="" style="ellipse;whiteSpace=wrap;html=1;aspect=fixed;strokeColor=#9673a6;align=center;verticalAlign=middle;fontFamily=Helvetica;fontSize=12;fillColor=#e1d5e7;" vertex="1" parent="1">
          <mxGeometry x="840" y="200" width="40" height="40" as="geometry" />
        </mxCell>
        <mxCell id="CcgA9E4d6CHRGQEPa_HV-86" value="" style="ellipse;whiteSpace=wrap;html=1;aspect=fixed;" vertex="1" parent="1">
          <mxGeometry x="720" y="200" width="40" height="40" as="geometry" />
        </mxCell>
        <mxCell id="CcgA9E4d6CHRGQEPa_HV-87" value="" style="ellipse;whiteSpace=wrap;html=1;aspect=fixed;strokeColor=default;align=center;verticalAlign=middle;fontFamily=Helvetica;fontSize=12;fontColor=default;fillColor=default;" vertex="1" parent="1">
          <mxGeometry x="780" y="240" width="40" height="40" as="geometry" />
        </mxCell>
        <mxCell id="CcgA9E4d6CHRGQEPa_HV-88" value="" style="ellipse;whiteSpace=wrap;html=1;aspect=fixed;strokeColor=default;align=center;verticalAlign=middle;fontFamily=Helvetica;fontSize=12;fontColor=default;fillColor=default;" vertex="1" parent="1">
          <mxGeometry x="740" y="240" width="40" height="40" as="geometry" />
        </mxCell>
        <mxCell id="CcgA9E4d6CHRGQEPa_HV-89" value="" style="ellipse;whiteSpace=wrap;html=1;aspect=fixed;align=center;verticalAlign=middle;fontFamily=Helvetica;fontSize=12;" vertex="1" parent="1">
          <mxGeometry x="820" y="240" width="40" height="40" as="geometry" />
        </mxCell>
        <mxCell id="CcgA9E4d6CHRGQEPa_HV-90" value="" style="ellipse;whiteSpace=wrap;html=1;aspect=fixed;" vertex="1" parent="1">
          <mxGeometry x="700" y="240" width="40" height="40" as="geometry" />
        </mxCell>
        <mxCell id="CcgA9E4d6CHRGQEPa_HV-91" value="" style="ellipse;whiteSpace=wrap;html=1;aspect=fixed;fillColor=#e1d5e7;strokeColor=#9673a6;" vertex="1" parent="1">
          <mxGeometry x="900" y="160" width="40" height="40" as="geometry" />
        </mxCell>
        <mxCell id="CcgA9E4d6CHRGQEPa_HV-92" value="" style="ellipse;whiteSpace=wrap;html=1;aspect=fixed;align=center;verticalAlign=middle;fontFamily=Helvetica;fontSize=12;" vertex="1" parent="1">
          <mxGeometry x="880" y="200" width="40" height="40" as="geometry" />
        </mxCell>
        <mxCell id="CcgA9E4d6CHRGQEPa_HV-93" value="" style="ellipse;whiteSpace=wrap;html=1;aspect=fixed;fillColor=default;fontColor=default;strokeColor=default;align=center;verticalAlign=middle;fontFamily=Helvetica;fontSize=12;" vertex="1" parent="1">
          <mxGeometry x="920" y="200" width="40" height="40" as="geometry" />
        </mxCell>
        <mxCell id="CcgA9E4d6CHRGQEPa_HV-94" value="" style="ellipse;whiteSpace=wrap;html=1;aspect=fixed;strokeColor=default;align=center;verticalAlign=middle;fontFamily=Helvetica;fontSize=12;fontColor=default;fillColor=default;" vertex="1" parent="1">
          <mxGeometry x="860" y="240" width="40" height="40" as="geometry" />
        </mxCell>
        <mxCell id="CcgA9E4d6CHRGQEPa_HV-95" value="" style="ellipse;whiteSpace=wrap;html=1;aspect=fixed;strokeColor=default;align=center;verticalAlign=middle;fontFamily=Helvetica;fontSize=12;fontColor=default;fillColor=default;" vertex="1" parent="1">
          <mxGeometry x="900" y="240" width="40" height="40" as="geometry" />
        </mxCell>
        <mxCell id="CcgA9E4d6CHRGQEPa_HV-96" value="" style="ellipse;whiteSpace=wrap;html=1;aspect=fixed;strokeColor=default;align=center;verticalAlign=middle;fontFamily=Helvetica;fontSize=12;fontColor=default;fillColor=default;" vertex="1" parent="1">
          <mxGeometry x="940" y="240" width="40" height="40" as="geometry" />
        </mxCell>
        <mxCell id="CcgA9E4d6CHRGQEPa_HV-97" value="" style="ellipse;whiteSpace=wrap;html=1;aspect=fixed;fillColor=#f8cecc;strokeColor=#b85450;align=center;verticalAlign=middle;fontFamily=Helvetica;fontSize=12;" vertex="1" parent="1">
          <mxGeometry x="800" y="280" width="40" height="40" as="geometry" />
        </mxCell>
        <mxCell id="CcgA9E4d6CHRGQEPa_HV-98" value="" style="ellipse;whiteSpace=wrap;html=1;aspect=fixed;strokeColor=default;align=center;verticalAlign=middle;fontFamily=Helvetica;fontSize=12;fontColor=default;fillColor=default;" vertex="1" parent="1">
          <mxGeometry x="760" y="280" width="40" height="40" as="geometry" />
        </mxCell>
        <mxCell id="CcgA9E4d6CHRGQEPa_HV-99" value="" style="ellipse;whiteSpace=wrap;html=1;aspect=fixed;align=center;verticalAlign=middle;fontFamily=Helvetica;fontSize=12;fillColor=#f8cecc;strokeColor=#b85450;" vertex="1" parent="1">
          <mxGeometry x="840" y="280" width="40" height="40" as="geometry" />
        </mxCell>
        <mxCell id="CcgA9E4d6CHRGQEPa_HV-100" value="" style="ellipse;whiteSpace=wrap;html=1;aspect=fixed;" vertex="1" parent="1">
          <mxGeometry x="720" y="280" width="40" height="40" as="geometry" />
        </mxCell>
        <mxCell id="CcgA9E4d6CHRGQEPa_HV-101" value="" style="ellipse;whiteSpace=wrap;html=1;aspect=fixed;strokeColor=default;align=center;verticalAlign=middle;fontFamily=Helvetica;fontSize=12;fontColor=default;fillColor=default;" vertex="1" parent="1">
          <mxGeometry x="880" y="280" width="40" height="40" as="geometry" />
        </mxCell>
        <mxCell id="CcgA9E4d6CHRGQEPa_HV-102" value="" style="ellipse;whiteSpace=wrap;html=1;aspect=fixed;strokeColor=default;align=center;verticalAlign=middle;fontFamily=Helvetica;fontSize=12;fontColor=default;fillColor=default;" vertex="1" parent="1">
          <mxGeometry x="920" y="280" width="40" height="40" as="geometry" />
        </mxCell>
        <mxCell id="CcgA9E4d6CHRGQEPa_HV-103" value="" style="ellipse;whiteSpace=wrap;html=1;aspect=fixed;strokeColor=#b85450;align=center;verticalAlign=middle;fontFamily=Helvetica;fontSize=12;fillColor=#f8cecc;" vertex="1" parent="1">
          <mxGeometry x="820" y="320" width="40" height="40" as="geometry" />
        </mxCell>
        <mxCell id="CcgA9E4d6CHRGQEPa_HV-104" value="" style="ellipse;whiteSpace=wrap;html=1;aspect=fixed;align=center;verticalAlign=middle;fontFamily=Helvetica;fontSize=12;fillColor=#f8cecc;strokeColor=#b85450;" vertex="1" parent="1">
          <mxGeometry x="780" y="320" width="40" height="40" as="geometry" />
        </mxCell>
        <mxCell id="CcgA9E4d6CHRGQEPa_HV-105" value="" style="ellipse;whiteSpace=wrap;html=1;aspect=fixed;strokeColor=#b85450;align=center;verticalAlign=middle;fontFamily=Helvetica;fontSize=12;fillColor=#f8cecc;" vertex="1" parent="1">
          <mxGeometry x="860" y="320" width="40" height="40" as="geometry" />
        </mxCell>
        <mxCell id="CcgA9E4d6CHRGQEPa_HV-106" value="" style="ellipse;whiteSpace=wrap;html=1;aspect=fixed;fillColor=#f8cecc;strokeColor=#b85450;align=center;verticalAlign=middle;fontFamily=Helvetica;fontSize=12;" vertex="1" parent="1">
          <mxGeometry x="740" y="320" width="40" height="40" as="geometry" />
        </mxCell>
        <mxCell id="CcgA9E4d6CHRGQEPa_HV-107" value="" style="ellipse;whiteSpace=wrap;html=1;aspect=fixed;strokeColor=#b85450;align=center;verticalAlign=middle;fontFamily=Helvetica;fontSize=12;fillColor=#f8cecc;" vertex="1" parent="1">
          <mxGeometry x="900" y="320" width="40" height="40" as="geometry" />
        </mxCell>
        <mxCell id="CcgA9E4d6CHRGQEPa_HV-108" value="" style="ellipse;whiteSpace=wrap;html=1;aspect=fixed;fillColor=#f8cecc;strokeColor=#b85450;" vertex="1" parent="1">
          <mxGeometry x="840" y="360" width="40" height="40" as="geometry" />
        </mxCell>
        <mxCell id="CcgA9E4d6CHRGQEPa_HV-109" value="" style="ellipse;whiteSpace=wrap;html=1;aspect=fixed;fillColor=#f8cecc;strokeColor=#b85450;" vertex="1" parent="1">
          <mxGeometry x="800" y="360" width="40" height="40" as="geometry" />
        </mxCell>
        <mxCell id="CcgA9E4d6CHRGQEPa_HV-110" value="" style="ellipse;whiteSpace=wrap;html=1;aspect=fixed;fillColor=#f8cecc;strokeColor=#b85450;" vertex="1" parent="1">
          <mxGeometry x="880" y="360" width="40" height="40" as="geometry" />
        </mxCell>
        <mxCell id="CcgA9E4d6CHRGQEPa_HV-111" value="" style="ellipse;whiteSpace=wrap;html=1;aspect=fixed;fillColor=#f8cecc;strokeColor=#b85450;" vertex="1" parent="1">
          <mxGeometry x="760" y="360" width="40" height="40" as="geometry" />
        </mxCell>
        <mxCell id="CcgA9E4d6CHRGQEPa_HV-112" value="" style="whiteSpace=wrap;html=1;aspect=fixed;strokeColor=default;align=center;verticalAlign=middle;fontFamily=Helvetica;fontSize=12;fontColor=default;fillColor=light-dark(#FFFFFF,#A680B8);" vertex="1" parent="1">
          <mxGeometry x="720" y="480" width="40" height="40" as="geometry" />
        </mxCell>
        <mxCell id="CcgA9E4d6CHRGQEPa_HV-113" value="" style="whiteSpace=wrap;html=1;aspect=fixed;strokeColor=default;align=center;verticalAlign=middle;fontFamily=Helvetica;fontSize=12;fontColor=default;fillColor=light-dark(#FFFFFF,#A680B8);" vertex="1" parent="1">
          <mxGeometry x="760" y="480" width="40" height="40" as="geometry" />
        </mxCell>
        <mxCell id="CcgA9E4d6CHRGQEPa_HV-114" value="" style="whiteSpace=wrap;html=1;aspect=fixed;fillColor=#e1d5e7;strokeColor=#9673a6;" vertex="1" parent="1">
          <mxGeometry x="800" y="480" width="40" height="40" as="geometry" />
        </mxCell>
        <mxCell id="CcgA9E4d6CHRGQEPa_HV-115" value="" style="whiteSpace=wrap;html=1;aspect=fixed;fillColor=#e1d5e7;strokeColor=#9673a6;align=center;verticalAlign=middle;fontFamily=Helvetica;fontSize=12;" vertex="1" parent="1">
          <mxGeometry x="840" y="480" width="40" height="40" as="geometry" />
        </mxCell>
        <mxCell id="CcgA9E4d6CHRGQEPa_HV-116" value="" style="whiteSpace=wrap;html=1;aspect=fixed;fillColor=#e1d5e7;strokeColor=#9673a6;" vertex="1" parent="1">
          <mxGeometry x="880" y="480" width="40" height="40" as="geometry" />
        </mxCell>
        <mxCell id="CcgA9E4d6CHRGQEPa_HV-117" value="" style="whiteSpace=wrap;html=1;aspect=fixed;fillColor=#e1d5e7;strokeColor=#9673a6;" vertex="1" parent="1">
          <mxGeometry x="920" y="480" width="40" height="40" as="geometry" />
        </mxCell>
        <mxCell id="CcgA9E4d6CHRGQEPa_HV-118" value="" style="whiteSpace=wrap;html=1;aspect=fixed;strokeColor=default;align=center;verticalAlign=middle;fontFamily=Helvetica;fontSize=12;fontColor=default;fillColor=light-dark(#FFFFFF,#A680B8);" vertex="1" parent="1">
          <mxGeometry x="960" y="480" width="40" height="40" as="geometry" />
        </mxCell>
        <mxCell id="CcgA9E4d6CHRGQEPa_HV-119" value="" style="whiteSpace=wrap;html=1;aspect=fixed;strokeColor=default;align=center;verticalAlign=middle;fontFamily=Helvetica;fontSize=12;fontColor=default;fillColor=light-dark(#FFFFFF,#A680B8);" vertex="1" parent="1">
          <mxGeometry x="720" y="560" width="40" height="40" as="geometry" />
        </mxCell>
        <mxCell id="CcgA9E4d6CHRGQEPa_HV-120" value="" style="whiteSpace=wrap;html=1;aspect=fixed;" vertex="1" parent="1">
          <mxGeometry x="760" y="560" width="40" height="40" as="geometry" />
        </mxCell>
        <mxCell id="CcgA9E4d6CHRGQEPa_HV-121" value="" style="whiteSpace=wrap;html=1;aspect=fixed;" vertex="1" parent="1">
          <mxGeometry x="800" y="560" width="40" height="40" as="geometry" />
        </mxCell>
        <mxCell id="CcgA9E4d6CHRGQEPa_HV-122" value="" style="whiteSpace=wrap;html=1;aspect=fixed;fillColor=#e1d5e7;strokeColor=#9673a6;" vertex="1" parent="1">
          <mxGeometry x="840" y="560" width="40" height="40" as="geometry" />
        </mxCell>
        <mxCell id="CcgA9E4d6CHRGQEPa_HV-123" value="" style="whiteSpace=wrap;html=1;aspect=fixed;fillColor=#e1d5e7;strokeColor=#9673a6;" vertex="1" parent="1">
          <mxGeometry x="880" y="560" width="40" height="40" as="geometry" />
        </mxCell>
        <mxCell id="CcgA9E4d6CHRGQEPa_HV-124" value="" style="whiteSpace=wrap;html=1;aspect=fixed;" vertex="1" parent="1">
          <mxGeometry x="920" y="560" width="40" height="40" as="geometry" />
        </mxCell>
        <mxCell id="CcgA9E4d6CHRGQEPa_HV-125" value="" style="whiteSpace=wrap;html=1;aspect=fixed;" vertex="1" parent="1">
          <mxGeometry x="960" y="560" width="40" height="40" as="geometry" />
        </mxCell>
        <mxCell id="CcgA9E4d6CHRGQEPa_HV-126" value="" style="whiteSpace=wrap;html=1;aspect=fixed;strokeColor=default;align=center;verticalAlign=middle;fontFamily=Helvetica;fontSize=12;fontColor=default;fillColor=light-dark(#FFFFFF,#A680B8);" vertex="1" parent="1">
          <mxGeometry x="720" y="640" width="40" height="40" as="geometry" />
        </mxCell>
        <mxCell id="CcgA9E4d6CHRGQEPa_HV-127" value="" style="whiteSpace=wrap;html=1;aspect=fixed;" vertex="1" parent="1">
          <mxGeometry x="760" y="640" width="40" height="40" as="geometry" />
        </mxCell>
        <mxCell id="CcgA9E4d6CHRGQEPa_HV-128" value="" style="whiteSpace=wrap;html=1;aspect=fixed;" vertex="1" parent="1">
          <mxGeometry x="800" y="640" width="40" height="40" as="geometry" />
        </mxCell>
        <mxCell id="CcgA9E4d6CHRGQEPa_HV-129" value="" style="whiteSpace=wrap;html=1;aspect=fixed;align=center;verticalAlign=middle;fontFamily=Helvetica;fontSize=12;fillColor=#f8cecc;strokeColor=#b85450;" vertex="1" parent="1">
          <mxGeometry x="840" y="640" width="40" height="40" as="geometry" />
        </mxCell>
        <mxCell id="CcgA9E4d6CHRGQEPa_HV-130" value="" style="whiteSpace=wrap;html=1;aspect=fixed;fillColor=#f8cecc;strokeColor=#b85450;" vertex="1" parent="1">
          <mxGeometry x="880" y="640" width="40" height="40" as="geometry" />
        </mxCell>
        <mxCell id="CcgA9E4d6CHRGQEPa_HV-131" value="" style="whiteSpace=wrap;html=1;aspect=fixed;" vertex="1" parent="1">
          <mxGeometry x="920" y="640" width="40" height="40" as="geometry" />
        </mxCell>
        <mxCell id="CcgA9E4d6CHRGQEPa_HV-132" value="" style="whiteSpace=wrap;html=1;aspect=fixed;" vertex="1" parent="1">
          <mxGeometry x="960" y="640" width="40" height="40" as="geometry" />
        </mxCell>
        <mxCell id="CcgA9E4d6CHRGQEPa_HV-133" value="" style="whiteSpace=wrap;html=1;aspect=fixed;strokeColor=default;align=center;verticalAlign=middle;fontFamily=Helvetica;fontSize=12;fontColor=default;fillColor=light-dark(#FFFFFF,#A680B8);" vertex="1" parent="1">
          <mxGeometry x="720" y="720" width="40" height="40" as="geometry" />
        </mxCell>
        <mxCell id="CcgA9E4d6CHRGQEPa_HV-134" value="" style="whiteSpace=wrap;html=1;aspect=fixed;strokeColor=default;align=center;verticalAlign=middle;fontFamily=Helvetica;fontSize=12;fontColor=default;fillColor=light-dark(#FFFFFF,#A680B8);" vertex="1" parent="1">
          <mxGeometry x="760" y="720" width="40" height="40" as="geometry" />
        </mxCell>
        <mxCell id="CcgA9E4d6CHRGQEPa_HV-135" value="" style="whiteSpace=wrap;html=1;aspect=fixed;fillColor=#f8cecc;strokeColor=#b85450;" vertex="1" parent="1">
          <mxGeometry x="800" y="720" width="40" height="40" as="geometry" />
        </mxCell>
        <mxCell id="CcgA9E4d6CHRGQEPa_HV-136" value="" style="whiteSpace=wrap;html=1;aspect=fixed;fillColor=#f8cecc;strokeColor=#b85450;" vertex="1" parent="1">
          <mxGeometry x="840" y="720" width="40" height="40" as="geometry" />
        </mxCell>
        <mxCell id="CcgA9E4d6CHRGQEPa_HV-137" value="" style="whiteSpace=wrap;html=1;aspect=fixed;fillColor=#f8cecc;strokeColor=#b85450;" vertex="1" parent="1">
          <mxGeometry x="880" y="720" width="40" height="40" as="geometry" />
        </mxCell>
        <mxCell id="CcgA9E4d6CHRGQEPa_HV-138" value="" style="whiteSpace=wrap;html=1;aspect=fixed;fillColor=#f8cecc;strokeColor=#b85450;" vertex="1" parent="1">
          <mxGeometry x="920" y="720" width="40" height="40" as="geometry" />
        </mxCell>
        <mxCell id="CcgA9E4d6CHRGQEPa_HV-139" value="" style="whiteSpace=wrap;html=1;aspect=fixed;strokeColor=default;align=center;verticalAlign=middle;fontFamily=Helvetica;fontSize=12;fontColor=default;fillColor=light-dark(#FFFFFF,#A680B8);" vertex="1" parent="1">
          <mxGeometry x="960" y="720" width="40" height="40" as="geometry" />
        </mxCell>
        <mxCell id="CcgA9E4d6CHRGQEPa_HV-140" value="" style="whiteSpace=wrap;html=1;aspect=fixed;strokeColor=default;align=center;verticalAlign=middle;fontFamily=Helvetica;fontSize=12;fontColor=default;fillColor=light-dark(#FFFFFF,#A680B8);" vertex="1" parent="1">
          <mxGeometry x="740" y="520" width="40" height="40" as="geometry" />
        </mxCell>
        <mxCell id="CcgA9E4d6CHRGQEPa_HV-141" value="" style="whiteSpace=wrap;html=1;aspect=fixed;fillColor=#e1d5e7;strokeColor=#9673a6;" vertex="1" parent="1">
          <mxGeometry x="780" y="520" width="40" height="40" as="geometry" />
        </mxCell>
        <mxCell id="CcgA9E4d6CHRGQEPa_HV-142" value="" style="whiteSpace=wrap;html=1;aspect=fixed;fillColor=#e1d5e7;strokeColor=#9673a6;" vertex="1" parent="1">
          <mxGeometry x="820" y="520" width="40" height="40" as="geometry" />
        </mxCell>
        <mxCell id="CcgA9E4d6CHRGQEPa_HV-143" value="" style="whiteSpace=wrap;html=1;aspect=fixed;fillColor=#e1d5e7;strokeColor=#9673a6;" vertex="1" parent="1">
          <mxGeometry x="860" y="520" width="40" height="40" as="geometry" />
        </mxCell>
        <mxCell id="CcgA9E4d6CHRGQEPa_HV-144" value="" style="whiteSpace=wrap;html=1;aspect=fixed;fillColor=#e1d5e7;strokeColor=#9673a6;" vertex="1" parent="1">
          <mxGeometry x="900" y="520" width="40" height="40" as="geometry" />
        </mxCell>
        <mxCell id="CcgA9E4d6CHRGQEPa_HV-145" value="" style="whiteSpace=wrap;html=1;aspect=fixed;fillColor=#e1d5e7;strokeColor=#9673a6;" vertex="1" parent="1">
          <mxGeometry x="940" y="520" width="40" height="40" as="geometry" />
        </mxCell>
        <mxCell id="CcgA9E4d6CHRGQEPa_HV-146" value="" style="whiteSpace=wrap;html=1;aspect=fixed;strokeColor=default;align=center;verticalAlign=middle;fontFamily=Helvetica;fontSize=12;fontColor=default;fillColor=light-dark(#FFFFFF,#A680B8);" vertex="1" parent="1">
          <mxGeometry x="980" y="520" width="40" height="40" as="geometry" />
        </mxCell>
        <mxCell id="CcgA9E4d6CHRGQEPa_HV-155" value="" style="whiteSpace=wrap;html=1;aspect=fixed;" vertex="1" parent="1">
          <mxGeometry x="740" y="600" width="40" height="40" as="geometry" />
        </mxCell>
        <mxCell id="CcgA9E4d6CHRGQEPa_HV-156" value="" style="whiteSpace=wrap;html=1;aspect=fixed;" vertex="1" parent="1">
          <mxGeometry x="780" y="600" width="40" height="40" as="geometry" />
        </mxCell>
        <mxCell id="CcgA9E4d6CHRGQEPa_HV-157" value="" style="whiteSpace=wrap;html=1;aspect=fixed;" vertex="1" parent="1">
          <mxGeometry x="820" y="600" width="40" height="40" as="geometry" />
        </mxCell>
        <mxCell id="CcgA9E4d6CHRGQEPa_HV-158" value="" style="whiteSpace=wrap;html=1;aspect=fixed;" vertex="1" parent="1">
          <mxGeometry x="860" y="600" width="40" height="40" as="geometry" />
        </mxCell>
        <mxCell id="CcgA9E4d6CHRGQEPa_HV-159" value="" style="whiteSpace=wrap;html=1;aspect=fixed;" vertex="1" parent="1">
          <mxGeometry x="900" y="600" width="40" height="40" as="geometry" />
        </mxCell>
        <mxCell id="CcgA9E4d6CHRGQEPa_HV-160" value="" style="whiteSpace=wrap;html=1;aspect=fixed;" vertex="1" parent="1">
          <mxGeometry x="940" y="600" width="40" height="40" as="geometry" />
        </mxCell>
        <mxCell id="CcgA9E4d6CHRGQEPa_HV-161" value="" style="whiteSpace=wrap;html=1;aspect=fixed;" vertex="1" parent="1">
          <mxGeometry x="980" y="600" width="40" height="40" as="geometry" />
        </mxCell>
        <mxCell id="CcgA9E4d6CHRGQEPa_HV-162" value="" style="whiteSpace=wrap;html=1;aspect=fixed;strokeColor=default;align=center;verticalAlign=middle;fontFamily=Helvetica;fontSize=12;fontColor=default;fillColor=light-dark(#FFFFFF,#A680B8);" vertex="1" parent="1">
          <mxGeometry x="740" y="680" width="40" height="40" as="geometry" />
        </mxCell>
        <mxCell id="CcgA9E4d6CHRGQEPa_HV-163" value="" style="whiteSpace=wrap;html=1;aspect=fixed;fillColor=#f8cecc;strokeColor=#b85450;" vertex="1" parent="1">
          <mxGeometry x="780" y="680" width="40" height="40" as="geometry" />
        </mxCell>
        <mxCell id="CcgA9E4d6CHRGQEPa_HV-164" value="" style="whiteSpace=wrap;html=1;aspect=fixed;fillColor=#f8cecc;strokeColor=#b85450;" vertex="1" parent="1">
          <mxGeometry x="820" y="680" width="40" height="40" as="geometry" />
        </mxCell>
        <mxCell id="CcgA9E4d6CHRGQEPa_HV-165" value="" style="whiteSpace=wrap;html=1;aspect=fixed;fillColor=#f8cecc;strokeColor=#b85450;" vertex="1" parent="1">
          <mxGeometry x="860" y="680" width="40" height="40" as="geometry" />
        </mxCell>
        <mxCell id="CcgA9E4d6CHRGQEPa_HV-166" value="" style="whiteSpace=wrap;html=1;aspect=fixed;fillColor=#f8cecc;strokeColor=#b85450;" vertex="1" parent="1">
          <mxGeometry x="900" y="680" width="40" height="40" as="geometry" />
        </mxCell>
        <mxCell id="CcgA9E4d6CHRGQEPa_HV-167" value="" style="whiteSpace=wrap;html=1;aspect=fixed;fillColor=#f8cecc;strokeColor=#b85450;" vertex="1" parent="1">
          <mxGeometry x="940" y="680" width="40" height="40" as="geometry" />
        </mxCell>
        <mxCell id="CcgA9E4d6CHRGQEPa_HV-168" value="" style="whiteSpace=wrap;html=1;aspect=fixed;strokeColor=default;align=center;verticalAlign=middle;fontFamily=Helvetica;fontSize=12;fontColor=default;fillColor=light-dark(#FFFFFF,#A680B8);" vertex="1" parent="1">
          <mxGeometry x="980" y="680" width="40" height="40" as="geometry" />
        </mxCell>
        <mxCell id="CcgA9E4d6CHRGQEPa_HV-169" value="" style="ellipse;whiteSpace=wrap;html=1;aspect=fixed;fillColor=#e1d5e7;strokeColor=#9673a6;" vertex="1" parent="1">
          <mxGeometry x="1280" y="120" width="40" height="40" as="geometry" />
        </mxCell>
        <mxCell id="CcgA9E4d6CHRGQEPa_HV-170" value="" style="ellipse;whiteSpace=wrap;html=1;aspect=fixed;fillColor=#e1d5e7;strokeColor=#9673a6;" vertex="1" parent="1">
          <mxGeometry x="1240" y="120" width="40" height="40" as="geometry" />
        </mxCell>
        <mxCell id="CcgA9E4d6CHRGQEPa_HV-171" value="" style="ellipse;whiteSpace=wrap;html=1;aspect=fixed;fillColor=#e1d5e7;strokeColor=#9673a6;" vertex="1" parent="1">
          <mxGeometry x="1320" y="120" width="40" height="40" as="geometry" />
        </mxCell>
        <mxCell id="CcgA9E4d6CHRGQEPa_HV-172" value="" style="ellipse;whiteSpace=wrap;html=1;aspect=fixed;fillColor=#e1d5e7;strokeColor=#9673a6;" vertex="1" parent="1">
          <mxGeometry x="1200" y="120" width="40" height="40" as="geometry" />
        </mxCell>
        <mxCell id="CcgA9E4d6CHRGQEPa_HV-173" value="" style="ellipse;whiteSpace=wrap;html=1;aspect=fixed;fillColor=#e1d5e7;strokeColor=#9673a6;" vertex="1" parent="1">
          <mxGeometry x="1360" y="120" width="40" height="40" as="geometry" />
        </mxCell>
        <mxCell id="CcgA9E4d6CHRGQEPa_HV-174" value="" style="ellipse;whiteSpace=wrap;html=1;aspect=fixed;fillColor=#e1d5e7;strokeColor=#9673a6;" vertex="1" parent="1">
          <mxGeometry x="1260" y="160" width="40" height="40" as="geometry" />
        </mxCell>
        <mxCell id="CcgA9E4d6CHRGQEPa_HV-175" value="" style="ellipse;whiteSpace=wrap;html=1;aspect=fixed;fillColor=#e1d5e7;strokeColor=#9673a6;" vertex="1" parent="1">
          <mxGeometry x="1220" y="160" width="40" height="40" as="geometry" />
        </mxCell>
        <mxCell id="CcgA9E4d6CHRGQEPa_HV-176" value="" style="ellipse;whiteSpace=wrap;html=1;aspect=fixed;fillColor=#e1d5e7;strokeColor=#9673a6;" vertex="1" parent="1">
          <mxGeometry x="1300" y="160" width="40" height="40" as="geometry" />
        </mxCell>
        <mxCell id="CcgA9E4d6CHRGQEPa_HV-177" value="" style="ellipse;whiteSpace=wrap;html=1;aspect=fixed;fillColor=#e1d5e7;strokeColor=#9673a6;" vertex="1" parent="1">
          <mxGeometry x="1180" y="160" width="40" height="40" as="geometry" />
        </mxCell>
        <mxCell id="CcgA9E4d6CHRGQEPa_HV-178" value="" style="ellipse;whiteSpace=wrap;html=1;aspect=fixed;fillColor=#e1d5e7;strokeColor=#9673a6;" vertex="1" parent="1">
          <mxGeometry x="1340" y="160" width="40" height="40" as="geometry" />
        </mxCell>
        <mxCell id="CcgA9E4d6CHRGQEPa_HV-179" value="" style="ellipse;whiteSpace=wrap;html=1;aspect=fixed;fillColor=#e1d5e7;strokeColor=#9673a6;" vertex="1" parent="1">
          <mxGeometry x="1240" y="200" width="40" height="40" as="geometry" />
        </mxCell>
        <mxCell id="CcgA9E4d6CHRGQEPa_HV-180" value="" style="ellipse;whiteSpace=wrap;html=1;aspect=fixed;" vertex="1" parent="1">
          <mxGeometry x="1200" y="200" width="40" height="40" as="geometry" />
        </mxCell>
        <mxCell id="CcgA9E4d6CHRGQEPa_HV-181" value="" style="ellipse;whiteSpace=wrap;html=1;aspect=fixed;fillColor=#e1d5e7;strokeColor=#9673a6;" vertex="1" parent="1">
          <mxGeometry x="1280" y="200" width="40" height="40" as="geometry" />
        </mxCell>
        <mxCell id="CcgA9E4d6CHRGQEPa_HV-182" value="" style="ellipse;whiteSpace=wrap;html=1;aspect=fixed;" vertex="1" parent="1">
          <mxGeometry x="1160" y="200" width="40" height="40" as="geometry" />
        </mxCell>
        <mxCell id="CcgA9E4d6CHRGQEPa_HV-183" value="" style="ellipse;whiteSpace=wrap;html=1;aspect=fixed;fillColor=#e1d5e7;strokeColor=#9673a6;" vertex="1" parent="1">
          <mxGeometry x="1320" y="200" width="40" height="40" as="geometry" />
        </mxCell>
        <mxCell id="CcgA9E4d6CHRGQEPa_HV-184" value="" style="ellipse;whiteSpace=wrap;html=1;aspect=fixed;" vertex="1" parent="1">
          <mxGeometry x="1220" y="240" width="40" height="40" as="geometry" />
        </mxCell>
        <mxCell id="CcgA9E4d6CHRGQEPa_HV-185" value="" style="ellipse;whiteSpace=wrap;html=1;aspect=fixed;" vertex="1" parent="1">
          <mxGeometry x="1180" y="240" width="40" height="40" as="geometry" />
        </mxCell>
        <mxCell id="CcgA9E4d6CHRGQEPa_HV-186" value="" style="ellipse;whiteSpace=wrap;html=1;aspect=fixed;" vertex="1" parent="1">
          <mxGeometry x="1260" y="240" width="40" height="40" as="geometry" />
        </mxCell>
        <mxCell id="CcgA9E4d6CHRGQEPa_HV-187" value="" style="ellipse;whiteSpace=wrap;html=1;aspect=fixed;" vertex="1" parent="1">
          <mxGeometry x="1140" y="240" width="40" height="40" as="geometry" />
        </mxCell>
        <mxCell id="CcgA9E4d6CHRGQEPa_HV-188" value="" style="ellipse;whiteSpace=wrap;html=1;aspect=fixed;" vertex="1" parent="1">
          <mxGeometry x="1300" y="240" width="40" height="40" as="geometry" />
        </mxCell>
        <mxCell id="CcgA9E4d6CHRGQEPa_HV-189" value="" style="ellipse;whiteSpace=wrap;html=1;aspect=fixed;" vertex="1" parent="1">
          <mxGeometry x="1201" y="280" width="40" height="40" as="geometry" />
        </mxCell>
        <mxCell id="CcgA9E4d6CHRGQEPa_HV-190" value="" style="ellipse;whiteSpace=wrap;html=1;aspect=fixed;" vertex="1" parent="1">
          <mxGeometry x="1161" y="280" width="40" height="40" as="geometry" />
        </mxCell>
        <mxCell id="CcgA9E4d6CHRGQEPa_HV-191" value="" style="ellipse;whiteSpace=wrap;html=1;aspect=fixed;" vertex="1" parent="1">
          <mxGeometry x="1241" y="280" width="40" height="40" as="geometry" />
        </mxCell>
        <mxCell id="CcgA9E4d6CHRGQEPa_HV-192" value="" style="ellipse;whiteSpace=wrap;html=1;aspect=fixed;" vertex="1" parent="1">
          <mxGeometry x="1121" y="280" width="40" height="40" as="geometry" />
        </mxCell>
        <mxCell id="CcgA9E4d6CHRGQEPa_HV-193" value="" style="ellipse;whiteSpace=wrap;html=1;aspect=fixed;" vertex="1" parent="1">
          <mxGeometry x="1281" y="280" width="40" height="40" as="geometry" />
        </mxCell>
        <mxCell id="CcgA9E4d6CHRGQEPa_HV-194" value="" style="ellipse;whiteSpace=wrap;html=1;aspect=fixed;fillColor=#e1d5e7;strokeColor=#9673a6;" vertex="1" parent="1">
          <mxGeometry x="1380" y="160" width="40" height="40" as="geometry" />
        </mxCell>
        <mxCell id="CcgA9E4d6CHRGQEPa_HV-195" value="" style="ellipse;whiteSpace=wrap;html=1;aspect=fixed;" vertex="1" parent="1">
          <mxGeometry x="1360" y="200" width="40" height="40" as="geometry" />
        </mxCell>
        <mxCell id="CcgA9E4d6CHRGQEPa_HV-196" value="" style="ellipse;whiteSpace=wrap;html=1;aspect=fixed;" vertex="1" parent="1">
          <mxGeometry x="1400" y="200" width="40" height="40" as="geometry" />
        </mxCell>
        <mxCell id="CcgA9E4d6CHRGQEPa_HV-197" value="" style="ellipse;whiteSpace=wrap;html=1;aspect=fixed;" vertex="1" parent="1">
          <mxGeometry x="1340" y="240" width="40" height="40" as="geometry" />
        </mxCell>
        <mxCell id="CcgA9E4d6CHRGQEPa_HV-198" value="" style="ellipse;whiteSpace=wrap;html=1;aspect=fixed;" vertex="1" parent="1">
          <mxGeometry x="1380" y="240" width="40" height="40" as="geometry" />
        </mxCell>
        <mxCell id="CcgA9E4d6CHRGQEPa_HV-199" value="" style="ellipse;whiteSpace=wrap;html=1;aspect=fixed;" vertex="1" parent="1">
          <mxGeometry x="1420" y="240" width="40" height="40" as="geometry" />
        </mxCell>
        <mxCell id="CcgA9E4d6CHRGQEPa_HV-200" value="" style="ellipse;whiteSpace=wrap;html=1;aspect=fixed;" vertex="1" parent="1">
          <mxGeometry x="1321" y="280" width="40" height="40" as="geometry" />
        </mxCell>
        <mxCell id="CcgA9E4d6CHRGQEPa_HV-201" value="" style="ellipse;whiteSpace=wrap;html=1;aspect=fixed;" vertex="1" parent="1">
          <mxGeometry x="1361" y="280" width="40" height="40" as="geometry" />
        </mxCell>
        <mxCell id="CcgA9E4d6CHRGQEPa_HV-202" value="" style="ellipse;whiteSpace=wrap;html=1;aspect=fixed;" vertex="1" parent="1">
          <mxGeometry x="1401" y="280" width="40" height="40" as="geometry" />
        </mxCell>
        <mxCell id="CcgA9E4d6CHRGQEPa_HV-203" value="" style="ellipse;whiteSpace=wrap;html=1;aspect=fixed;" vertex="1" parent="1">
          <mxGeometry x="1441" y="280" width="40" height="40" as="geometry" />
        </mxCell>
        <mxCell id="CcgA9E4d6CHRGQEPa_HV-204" value="" style="ellipse;whiteSpace=wrap;html=1;aspect=fixed;" vertex="1" parent="1">
          <mxGeometry x="1220" y="320" width="40" height="40" as="geometry" />
        </mxCell>
        <mxCell id="CcgA9E4d6CHRGQEPa_HV-205" value="" style="ellipse;whiteSpace=wrap;html=1;aspect=fixed;" vertex="1" parent="1">
          <mxGeometry x="1180" y="320" width="40" height="40" as="geometry" />
        </mxCell>
        <mxCell id="CcgA9E4d6CHRGQEPa_HV-206" value="" style="ellipse;whiteSpace=wrap;html=1;aspect=fixed;" vertex="1" parent="1">
          <mxGeometry x="1260" y="320" width="40" height="40" as="geometry" />
        </mxCell>
        <mxCell id="CcgA9E4d6CHRGQEPa_HV-207" value="" style="ellipse;whiteSpace=wrap;html=1;aspect=fixed;" vertex="1" parent="1">
          <mxGeometry x="1140" y="320" width="40" height="40" as="geometry" />
        </mxCell>
        <mxCell id="CcgA9E4d6CHRGQEPa_HV-208" value="" style="ellipse;whiteSpace=wrap;html=1;aspect=fixed;" vertex="1" parent="1">
          <mxGeometry x="1300" y="320" width="40" height="40" as="geometry" />
        </mxCell>
        <mxCell id="CcgA9E4d6CHRGQEPa_HV-209" value="" style="ellipse;whiteSpace=wrap;html=1;aspect=fixed;" vertex="1" parent="1">
          <mxGeometry x="1340" y="320" width="40" height="40" as="geometry" />
        </mxCell>
        <mxCell id="CcgA9E4d6CHRGQEPa_HV-210" value="" style="ellipse;whiteSpace=wrap;html=1;aspect=fixed;" vertex="1" parent="1">
          <mxGeometry x="1380" y="320" width="40" height="40" as="geometry" />
        </mxCell>
        <mxCell id="CcgA9E4d6CHRGQEPa_HV-211" value="" style="ellipse;whiteSpace=wrap;html=1;aspect=fixed;" vertex="1" parent="1">
          <mxGeometry x="1420" y="320" width="40" height="40" as="geometry" />
        </mxCell>
        <mxCell id="CcgA9E4d6CHRGQEPa_HV-212" value="" style="ellipse;whiteSpace=wrap;html=1;aspect=fixed;fillColor=#f8cecc;strokeColor=#b85450;" vertex="1" parent="1">
          <mxGeometry x="1240" y="360" width="40" height="40" as="geometry" />
        </mxCell>
        <mxCell id="CcgA9E4d6CHRGQEPa_HV-213" value="" style="ellipse;whiteSpace=wrap;html=1;aspect=fixed;" vertex="1" parent="1">
          <mxGeometry x="1200" y="360" width="40" height="40" as="geometry" />
        </mxCell>
        <mxCell id="CcgA9E4d6CHRGQEPa_HV-214" value="" style="ellipse;whiteSpace=wrap;html=1;aspect=fixed;fillColor=#f8cecc;strokeColor=#b85450;" vertex="1" parent="1">
          <mxGeometry x="1280" y="360" width="40" height="40" as="geometry" />
        </mxCell>
        <mxCell id="CcgA9E4d6CHRGQEPa_HV-215" value="" style="ellipse;whiteSpace=wrap;html=1;aspect=fixed;" vertex="1" parent="1">
          <mxGeometry x="1160" y="360" width="40" height="40" as="geometry" />
        </mxCell>
        <mxCell id="CcgA9E4d6CHRGQEPa_HV-216" value="" style="ellipse;whiteSpace=wrap;html=1;aspect=fixed;fillColor=#f8cecc;strokeColor=#b85450;" vertex="1" parent="1">
          <mxGeometry x="1320" y="360" width="40" height="40" as="geometry" />
        </mxCell>
        <mxCell id="CcgA9E4d6CHRGQEPa_HV-217" value="" style="ellipse;whiteSpace=wrap;html=1;aspect=fixed;" vertex="1" parent="1">
          <mxGeometry x="1360" y="360" width="40" height="40" as="geometry" />
        </mxCell>
        <mxCell id="CcgA9E4d6CHRGQEPa_HV-218" value="" style="ellipse;whiteSpace=wrap;html=1;aspect=fixed;" vertex="1" parent="1">
          <mxGeometry x="1400" y="360" width="40" height="40" as="geometry" />
        </mxCell>
        <mxCell id="CcgA9E4d6CHRGQEPa_HV-219" value="" style="ellipse;whiteSpace=wrap;html=1;aspect=fixed;fillColor=#f8cecc;strokeColor=#b85450;" vertex="1" parent="1">
          <mxGeometry x="1260" y="400" width="40" height="40" as="geometry" />
        </mxCell>
        <mxCell id="CcgA9E4d6CHRGQEPa_HV-220" value="" style="ellipse;whiteSpace=wrap;html=1;aspect=fixed;fillColor=#f8cecc;strokeColor=#b85450;" vertex="1" parent="1">
          <mxGeometry x="1220" y="400" width="40" height="40" as="geometry" />
        </mxCell>
        <mxCell id="CcgA9E4d6CHRGQEPa_HV-221" value="" style="ellipse;whiteSpace=wrap;html=1;aspect=fixed;fillColor=#f8cecc;strokeColor=#b85450;" vertex="1" parent="1">
          <mxGeometry x="1300" y="400" width="40" height="40" as="geometry" />
        </mxCell>
        <mxCell id="CcgA9E4d6CHRGQEPa_HV-222" value="" style="ellipse;whiteSpace=wrap;html=1;aspect=fixed;fillColor=#f8cecc;strokeColor=#b85450;" vertex="1" parent="1">
          <mxGeometry x="1180" y="400" width="40" height="40" as="geometry" />
        </mxCell>
        <mxCell id="CcgA9E4d6CHRGQEPa_HV-223" value="" style="ellipse;whiteSpace=wrap;html=1;aspect=fixed;fillColor=#f8cecc;strokeColor=#b85450;" vertex="1" parent="1">
          <mxGeometry x="1340" y="400" width="40" height="40" as="geometry" />
        </mxCell>
        <mxCell id="CcgA9E4d6CHRGQEPa_HV-224" value="" style="ellipse;whiteSpace=wrap;html=1;aspect=fixed;fillColor=#f8cecc;strokeColor=#b85450;" vertex="1" parent="1">
          <mxGeometry x="1380" y="400" width="40" height="40" as="geometry" />
        </mxCell>
        <mxCell id="CcgA9E4d6CHRGQEPa_HV-225" value="" style="ellipse;whiteSpace=wrap;html=1;aspect=fixed;fillColor=#f8cecc;strokeColor=#b85450;" vertex="1" parent="1">
          <mxGeometry x="1280" y="440" width="40" height="40" as="geometry" />
        </mxCell>
        <mxCell id="CcgA9E4d6CHRGQEPa_HV-226" value="" style="ellipse;whiteSpace=wrap;html=1;aspect=fixed;fillColor=#f8cecc;strokeColor=#b85450;" vertex="1" parent="1">
          <mxGeometry x="1240" y="440" width="40" height="40" as="geometry" />
        </mxCell>
        <mxCell id="CcgA9E4d6CHRGQEPa_HV-227" value="" style="ellipse;whiteSpace=wrap;html=1;aspect=fixed;fillColor=#f8cecc;strokeColor=#b85450;" vertex="1" parent="1">
          <mxGeometry x="1320" y="440" width="40" height="40" as="geometry" />
        </mxCell>
        <mxCell id="CcgA9E4d6CHRGQEPa_HV-228" value="" style="ellipse;whiteSpace=wrap;html=1;aspect=fixed;fillColor=#f8cecc;strokeColor=#b85450;" vertex="1" parent="1">
          <mxGeometry x="1200" y="440" width="40" height="40" as="geometry" />
        </mxCell>
        <mxCell id="CcgA9E4d6CHRGQEPa_HV-229" value="" style="ellipse;whiteSpace=wrap;html=1;aspect=fixed;fillColor=#f8cecc;strokeColor=#b85450;" vertex="1" parent="1">
          <mxGeometry x="1360" y="440" width="40" height="40" as="geometry" />
        </mxCell>
        <mxCell id="CcgA9E4d6CHRGQEPa_HV-231" value="" style="whiteSpace=wrap;html=1;aspect=fixed;strokeColor=default;align=center;verticalAlign=middle;fontFamily=Helvetica;fontSize=12;fontColor=default;fillColor=light-dark(#FFFFFF,#A680B8);" vertex="1" parent="1">
          <mxGeometry x="1160" y="600" width="40" height="40" as="geometry" />
        </mxCell>
        <mxCell id="CcgA9E4d6CHRGQEPa_HV-233" value="" style="whiteSpace=wrap;html=1;aspect=fixed;strokeColor=default;align=center;verticalAlign=middle;fontFamily=Helvetica;fontSize=12;fontColor=default;fillColor=light-dark(#FFFFFF,#A680B8);" vertex="1" parent="1">
          <mxGeometry x="1200" y="600" width="40" height="40" as="geometry" />
        </mxCell>
        <mxCell id="CcgA9E4d6CHRGQEPa_HV-234" value="" style="whiteSpace=wrap;html=1;aspect=fixed;fillColor=#e1d5e7;strokeColor=#9673a6;" vertex="1" parent="1">
          <mxGeometry x="1240" y="600" width="40" height="40" as="geometry" />
        </mxCell>
        <mxCell id="CcgA9E4d6CHRGQEPa_HV-235" value="" style="whiteSpace=wrap;html=1;aspect=fixed;fillColor=#e1d5e7;strokeColor=#9673a6;" vertex="1" parent="1">
          <mxGeometry x="1280" y="600" width="40" height="40" as="geometry" />
        </mxCell>
        <mxCell id="CcgA9E4d6CHRGQEPa_HV-236" value="" style="whiteSpace=wrap;html=1;aspect=fixed;fillColor=#e1d5e7;strokeColor=#9673a6;" vertex="1" parent="1">
          <mxGeometry x="1320" y="600" width="40" height="40" as="geometry" />
        </mxCell>
        <mxCell id="CcgA9E4d6CHRGQEPa_HV-237" value="" style="whiteSpace=wrap;html=1;aspect=fixed;fillColor=#e1d5e7;strokeColor=#9673a6;" vertex="1" parent="1">
          <mxGeometry x="1360" y="600" width="40" height="40" as="geometry" />
        </mxCell>
        <mxCell id="CcgA9E4d6CHRGQEPa_HV-238" value="" style="whiteSpace=wrap;html=1;aspect=fixed;fillColor=#e1d5e7;strokeColor=#9673a6;" vertex="1" parent="1">
          <mxGeometry x="1400" y="600" width="40" height="40" as="geometry" />
        </mxCell>
        <mxCell id="CcgA9E4d6CHRGQEPa_HV-239" value="" style="whiteSpace=wrap;html=1;aspect=fixed;strokeColor=default;align=center;verticalAlign=middle;fontFamily=Helvetica;fontSize=12;fontColor=default;fillColor=light-dark(#FFFFFF,#A680B8);" vertex="1" parent="1">
          <mxGeometry x="1440" y="600" width="40" height="40" as="geometry" />
        </mxCell>
        <mxCell id="CcgA9E4d6CHRGQEPa_HV-240" value="" style="whiteSpace=wrap;html=1;aspect=fixed;strokeColor=default;align=center;verticalAlign=middle;fontFamily=Helvetica;fontSize=12;fontColor=default;fillColor=light-dark(#FFFFFF,#A680B8);" vertex="1" parent="1">
          <mxGeometry x="1480" y="600" width="40" height="40" as="geometry" />
        </mxCell>
        <mxCell id="CcgA9E4d6CHRGQEPa_HV-241" value="" style="whiteSpace=wrap;html=1;aspect=fixed;strokeColor=default;align=center;verticalAlign=middle;fontFamily=Helvetica;fontSize=12;fontColor=default;fillColor=light-dark(#FFFFFF,#A680B8);" vertex="1" parent="1">
          <mxGeometry x="1160" y="680" width="40" height="40" as="geometry" />
        </mxCell>
        <mxCell id="CcgA9E4d6CHRGQEPa_HV-242" value="" style="whiteSpace=wrap;html=1;aspect=fixed;" vertex="1" parent="1">
          <mxGeometry x="1200" y="680" width="40" height="40" as="geometry" />
        </mxCell>
        <mxCell id="CcgA9E4d6CHRGQEPa_HV-243" value="" style="whiteSpace=wrap;html=1;aspect=fixed;" vertex="1" parent="1">
          <mxGeometry x="1240" y="680" width="40" height="40" as="geometry" />
        </mxCell>
        <mxCell id="CcgA9E4d6CHRGQEPa_HV-244" value="" style="whiteSpace=wrap;html=1;aspect=fixed;fillColor=#e1d5e7;strokeColor=#9673a6;" vertex="1" parent="1">
          <mxGeometry x="1280" y="680" width="40" height="40" as="geometry" />
        </mxCell>
        <mxCell id="CcgA9E4d6CHRGQEPa_HV-245" value="" style="whiteSpace=wrap;html=1;aspect=fixed;fillColor=#e1d5e7;strokeColor=#9673a6;" vertex="1" parent="1">
          <mxGeometry x="1320" y="680" width="40" height="40" as="geometry" />
        </mxCell>
        <mxCell id="CcgA9E4d6CHRGQEPa_HV-246" value="" style="whiteSpace=wrap;html=1;aspect=fixed;fillColor=#e1d5e7;strokeColor=#9673a6;" vertex="1" parent="1">
          <mxGeometry x="1360" y="680" width="40" height="40" as="geometry" />
        </mxCell>
        <mxCell id="CcgA9E4d6CHRGQEPa_HV-247" value="" style="whiteSpace=wrap;html=1;aspect=fixed;" vertex="1" parent="1">
          <mxGeometry x="1400" y="680" width="40" height="40" as="geometry" />
        </mxCell>
        <mxCell id="CcgA9E4d6CHRGQEPa_HV-248" value="" style="whiteSpace=wrap;html=1;aspect=fixed;" vertex="1" parent="1">
          <mxGeometry x="1440" y="680" width="40" height="40" as="geometry" />
        </mxCell>
        <mxCell id="CcgA9E4d6CHRGQEPa_HV-249" value="" style="whiteSpace=wrap;html=1;aspect=fixed;strokeColor=default;align=center;verticalAlign=middle;fontFamily=Helvetica;fontSize=12;fontColor=default;fillColor=light-dark(#FFFFFF,#A680B8);" vertex="1" parent="1">
          <mxGeometry x="1480" y="680" width="40" height="40" as="geometry" />
        </mxCell>
        <mxCell id="CcgA9E4d6CHRGQEPa_HV-250" value="" style="whiteSpace=wrap;html=1;aspect=fixed;" vertex="1" parent="1">
          <mxGeometry x="1160" y="760" width="40" height="40" as="geometry" />
        </mxCell>
        <mxCell id="CcgA9E4d6CHRGQEPa_HV-251" value="" style="whiteSpace=wrap;html=1;aspect=fixed;" vertex="1" parent="1">
          <mxGeometry x="1200" y="760" width="40" height="40" as="geometry" />
        </mxCell>
        <mxCell id="CcgA9E4d6CHRGQEPa_HV-252" value="" style="whiteSpace=wrap;html=1;aspect=fixed;" vertex="1" parent="1">
          <mxGeometry x="1240" y="760" width="40" height="40" as="geometry" />
        </mxCell>
        <mxCell id="CcgA9E4d6CHRGQEPa_HV-253" value="" style="whiteSpace=wrap;html=1;aspect=fixed;" vertex="1" parent="1">
          <mxGeometry x="1280" y="760" width="40" height="40" as="geometry" />
        </mxCell>
        <mxCell id="CcgA9E4d6CHRGQEPa_HV-254" value="" style="whiteSpace=wrap;html=1;aspect=fixed;fillColor=#d5e8d4;strokeColor=#82b366;" vertex="1" parent="1">
          <mxGeometry x="1320" y="760" width="40" height="40" as="geometry" />
        </mxCell>
        <mxCell id="CcgA9E4d6CHRGQEPa_HV-255" value="" style="whiteSpace=wrap;html=1;aspect=fixed;" vertex="1" parent="1">
          <mxGeometry x="1360" y="760" width="40" height="40" as="geometry" />
        </mxCell>
        <mxCell id="CcgA9E4d6CHRGQEPa_HV-256" value="" style="whiteSpace=wrap;html=1;aspect=fixed;" vertex="1" parent="1">
          <mxGeometry x="1400" y="760" width="40" height="40" as="geometry" />
        </mxCell>
        <mxCell id="CcgA9E4d6CHRGQEPa_HV-257" value="" style="whiteSpace=wrap;html=1;aspect=fixed;" vertex="1" parent="1">
          <mxGeometry x="1440" y="760" width="40" height="40" as="geometry" />
        </mxCell>
        <mxCell id="CcgA9E4d6CHRGQEPa_HV-258" value="" style="whiteSpace=wrap;html=1;aspect=fixed;" vertex="1" parent="1">
          <mxGeometry x="1480" y="760" width="40" height="40" as="geometry" />
        </mxCell>
        <mxCell id="CcgA9E4d6CHRGQEPa_HV-259" value="" style="whiteSpace=wrap;html=1;aspect=fixed;strokeColor=default;align=center;verticalAlign=middle;fontFamily=Helvetica;fontSize=12;fontColor=default;fillColor=light-dark(#FFFFFF,#A680B8);" vertex="1" parent="1">
          <mxGeometry x="1160" y="840" width="40" height="40" as="geometry" />
        </mxCell>
        <mxCell id="CcgA9E4d6CHRGQEPa_HV-260" value="" style="whiteSpace=wrap;html=1;aspect=fixed;" vertex="1" parent="1">
          <mxGeometry x="1200" y="840" width="40" height="40" as="geometry" />
        </mxCell>
        <mxCell id="CcgA9E4d6CHRGQEPa_HV-261" value="" style="whiteSpace=wrap;html=1;aspect=fixed;" vertex="1" parent="1">
          <mxGeometry x="1240" y="840" width="40" height="40" as="geometry" />
        </mxCell>
        <mxCell id="CcgA9E4d6CHRGQEPa_HV-262" value="" style="whiteSpace=wrap;html=1;aspect=fixed;fillColor=#f8cecc;strokeColor=#b85450;" vertex="1" parent="1">
          <mxGeometry x="1280" y="840" width="40" height="40" as="geometry" />
        </mxCell>
        <mxCell id="CcgA9E4d6CHRGQEPa_HV-263" value="" style="whiteSpace=wrap;html=1;aspect=fixed;fillColor=#f8cecc;strokeColor=#b85450;" vertex="1" parent="1">
          <mxGeometry x="1320" y="840" width="40" height="40" as="geometry" />
        </mxCell>
        <mxCell id="CcgA9E4d6CHRGQEPa_HV-264" value="" style="whiteSpace=wrap;html=1;aspect=fixed;fillColor=#f8cecc;strokeColor=#b85450;" vertex="1" parent="1">
          <mxGeometry x="1360" y="840" width="40" height="40" as="geometry" />
        </mxCell>
        <mxCell id="CcgA9E4d6CHRGQEPa_HV-265" value="" style="whiteSpace=wrap;html=1;aspect=fixed;" vertex="1" parent="1">
          <mxGeometry x="1400" y="840" width="40" height="40" as="geometry" />
        </mxCell>
        <mxCell id="CcgA9E4d6CHRGQEPa_HV-266" value="" style="whiteSpace=wrap;html=1;aspect=fixed;" vertex="1" parent="1">
          <mxGeometry x="1440" y="840" width="40" height="40" as="geometry" />
        </mxCell>
        <mxCell id="CcgA9E4d6CHRGQEPa_HV-267" value="" style="whiteSpace=wrap;html=1;aspect=fixed;strokeColor=default;align=center;verticalAlign=middle;fontFamily=Helvetica;fontSize=12;fontColor=default;fillColor=light-dark(#FFFFFF,#A680B8);" vertex="1" parent="1">
          <mxGeometry x="1480" y="840" width="40" height="40" as="geometry" />
        </mxCell>
        <mxCell id="CcgA9E4d6CHRGQEPa_HV-268" value="" style="whiteSpace=wrap;html=1;aspect=fixed;strokeColor=default;align=center;verticalAlign=middle;fontFamily=Helvetica;fontSize=12;fontColor=default;fillColor=light-dark(#FFFFFF,#A680B8);" vertex="1" parent="1">
          <mxGeometry x="1160" y="920" width="40" height="40" as="geometry" />
        </mxCell>
        <mxCell id="CcgA9E4d6CHRGQEPa_HV-269" value="" style="whiteSpace=wrap;html=1;aspect=fixed;strokeColor=default;align=center;verticalAlign=middle;fontFamily=Helvetica;fontSize=12;fontColor=default;fillColor=light-dark(#FFFFFF,#A680B8);" vertex="1" parent="1">
          <mxGeometry x="1200" y="920" width="40" height="40" as="geometry" />
        </mxCell>
        <mxCell id="CcgA9E4d6CHRGQEPa_HV-270" value="" style="whiteSpace=wrap;html=1;aspect=fixed;fillColor=#f8cecc;strokeColor=#b85450;" vertex="1" parent="1">
          <mxGeometry x="1240" y="920" width="40" height="40" as="geometry" />
        </mxCell>
        <mxCell id="CcgA9E4d6CHRGQEPa_HV-271" value="" style="whiteSpace=wrap;html=1;aspect=fixed;fillColor=#f8cecc;strokeColor=#b85450;" vertex="1" parent="1">
          <mxGeometry x="1280" y="920" width="40" height="40" as="geometry" />
        </mxCell>
        <mxCell id="CcgA9E4d6CHRGQEPa_HV-272" value="" style="whiteSpace=wrap;html=1;aspect=fixed;fillColor=#f8cecc;strokeColor=#b85450;" vertex="1" parent="1">
          <mxGeometry x="1320" y="920" width="40" height="40" as="geometry" />
        </mxCell>
        <mxCell id="CcgA9E4d6CHRGQEPa_HV-273" value="" style="whiteSpace=wrap;html=1;aspect=fixed;fillColor=#f8cecc;strokeColor=#b85450;" vertex="1" parent="1">
          <mxGeometry x="1360" y="920" width="40" height="40" as="geometry" />
        </mxCell>
        <mxCell id="CcgA9E4d6CHRGQEPa_HV-274" value="" style="whiteSpace=wrap;html=1;aspect=fixed;fillColor=#f8cecc;strokeColor=#b85450;" vertex="1" parent="1">
          <mxGeometry x="1400" y="920" width="40" height="40" as="geometry" />
        </mxCell>
        <mxCell id="CcgA9E4d6CHRGQEPa_HV-275" value="" style="whiteSpace=wrap;html=1;aspect=fixed;strokeColor=default;align=center;verticalAlign=middle;fontFamily=Helvetica;fontSize=12;fontColor=default;fillColor=light-dark(#FFFFFF,#A680B8);" vertex="1" parent="1">
          <mxGeometry x="1440" y="920" width="40" height="40" as="geometry" />
        </mxCell>
        <mxCell id="CcgA9E4d6CHRGQEPa_HV-276" value="" style="whiteSpace=wrap;html=1;aspect=fixed;strokeColor=default;align=center;verticalAlign=middle;fontFamily=Helvetica;fontSize=12;fontColor=default;fillColor=light-dark(#FFFFFF,#A680B8);" vertex="1" parent="1">
          <mxGeometry x="1480" y="920" width="40" height="40" as="geometry" />
        </mxCell>
        <mxCell id="CcgA9E4d6CHRGQEPa_HV-277" value="" style="whiteSpace=wrap;html=1;aspect=fixed;strokeColor=default;align=center;verticalAlign=middle;fontFamily=Helvetica;fontSize=12;fontColor=default;fillColor=light-dark(#FFFFFF,#A680B8);" vertex="1" parent="1">
          <mxGeometry x="1180" y="640" width="40" height="40" as="geometry" />
        </mxCell>
        <mxCell id="CcgA9E4d6CHRGQEPa_HV-278" value="" style="whiteSpace=wrap;html=1;aspect=fixed;fillColor=#e1d5e7;strokeColor=#9673a6;" vertex="1" parent="1">
          <mxGeometry x="1220" y="640" width="40" height="40" as="geometry" />
        </mxCell>
        <mxCell id="CcgA9E4d6CHRGQEPa_HV-279" value="" style="whiteSpace=wrap;html=1;aspect=fixed;fillColor=#e1d5e7;strokeColor=#9673a6;" vertex="1" parent="1">
          <mxGeometry x="1260" y="640" width="40" height="40" as="geometry" />
        </mxCell>
        <mxCell id="CcgA9E4d6CHRGQEPa_HV-280" value="" style="whiteSpace=wrap;html=1;aspect=fixed;fillColor=#e1d5e7;strokeColor=#9673a6;" vertex="1" parent="1">
          <mxGeometry x="1300" y="640" width="40" height="40" as="geometry" />
        </mxCell>
        <mxCell id="CcgA9E4d6CHRGQEPa_HV-281" value="" style="whiteSpace=wrap;html=1;aspect=fixed;fillColor=#e1d5e7;strokeColor=#9673a6;" vertex="1" parent="1">
          <mxGeometry x="1340" y="640" width="40" height="40" as="geometry" />
        </mxCell>
        <mxCell id="CcgA9E4d6CHRGQEPa_HV-282" value="" style="whiteSpace=wrap;html=1;aspect=fixed;fillColor=#e1d5e7;strokeColor=#9673a6;" vertex="1" parent="1">
          <mxGeometry x="1380" y="640" width="40" height="40" as="geometry" />
        </mxCell>
        <mxCell id="CcgA9E4d6CHRGQEPa_HV-283" value="" style="whiteSpace=wrap;html=1;aspect=fixed;fillColor=#e1d5e7;strokeColor=#9673a6;" vertex="1" parent="1">
          <mxGeometry x="1420" y="640" width="40" height="40" as="geometry" />
        </mxCell>
        <mxCell id="CcgA9E4d6CHRGQEPa_HV-284" value="" style="whiteSpace=wrap;html=1;aspect=fixed;strokeColor=default;align=center;verticalAlign=middle;fontFamily=Helvetica;fontSize=12;fontColor=default;fillColor=light-dark(#FFFFFF,#A680B8);" vertex="1" parent="1">
          <mxGeometry x="1460" y="640" width="40" height="40" as="geometry" />
        </mxCell>
        <mxCell id="CcgA9E4d6CHRGQEPa_HV-285" value="" style="whiteSpace=wrap;html=1;aspect=fixed;strokeColor=default;align=center;verticalAlign=middle;fontFamily=Helvetica;fontSize=12;fontColor=default;fillColor=light-dark(#FFFFFF,#A680B8);" vertex="1" parent="1">
          <mxGeometry x="1500" y="640" width="40" height="40" as="geometry" />
        </mxCell>
        <mxCell id="CcgA9E4d6CHRGQEPa_HV-286" value="" style="whiteSpace=wrap;html=1;aspect=fixed;" vertex="1" parent="1">
          <mxGeometry x="1180" y="720" width="40" height="40" as="geometry" />
        </mxCell>
        <mxCell id="CcgA9E4d6CHRGQEPa_HV-287" value="" style="whiteSpace=wrap;html=1;aspect=fixed;" vertex="1" parent="1">
          <mxGeometry x="1220" y="720" width="40" height="40" as="geometry" />
        </mxCell>
        <mxCell id="CcgA9E4d6CHRGQEPa_HV-288" value="" style="whiteSpace=wrap;html=1;aspect=fixed;" vertex="1" parent="1">
          <mxGeometry x="1260" y="720" width="40" height="40" as="geometry" />
        </mxCell>
        <mxCell id="CcgA9E4d6CHRGQEPa_HV-289" value="" style="whiteSpace=wrap;html=1;aspect=fixed;fillColor=#d5e8d4;strokeColor=#82b366;" vertex="1" parent="1">
          <mxGeometry x="1300" y="720" width="40" height="40" as="geometry" />
        </mxCell>
        <mxCell id="CcgA9E4d6CHRGQEPa_HV-290" value="" style="whiteSpace=wrap;html=1;aspect=fixed;" vertex="1" parent="1">
          <mxGeometry x="1340" y="720" width="40" height="40" as="geometry" />
        </mxCell>
        <mxCell id="CcgA9E4d6CHRGQEPa_HV-291" value="" style="whiteSpace=wrap;html=1;aspect=fixed;" vertex="1" parent="1">
          <mxGeometry x="1380" y="720" width="40" height="40" as="geometry" />
        </mxCell>
        <mxCell id="CcgA9E4d6CHRGQEPa_HV-292" value="" style="whiteSpace=wrap;html=1;aspect=fixed;" vertex="1" parent="1">
          <mxGeometry x="1420" y="720" width="40" height="40" as="geometry" />
        </mxCell>
        <mxCell id="CcgA9E4d6CHRGQEPa_HV-293" value="" style="whiteSpace=wrap;html=1;aspect=fixed;" vertex="1" parent="1">
          <mxGeometry x="1460" y="720" width="40" height="40" as="geometry" />
        </mxCell>
        <mxCell id="CcgA9E4d6CHRGQEPa_HV-294" value="" style="whiteSpace=wrap;html=1;aspect=fixed;strokeColor=default;align=center;verticalAlign=middle;fontFamily=Helvetica;fontSize=12;fontColor=default;fillColor=light-dark(#FFFFFF,#A680B8);" vertex="1" parent="1">
          <mxGeometry x="1500" y="720" width="40" height="40" as="geometry" />
        </mxCell>
        <mxCell id="CcgA9E4d6CHRGQEPa_HV-295" value="" style="whiteSpace=wrap;html=1;aspect=fixed;" vertex="1" parent="1">
          <mxGeometry x="1180" y="800" width="40" height="40" as="geometry" />
        </mxCell>
        <mxCell id="CcgA9E4d6CHRGQEPa_HV-296" value="" style="whiteSpace=wrap;html=1;aspect=fixed;" vertex="1" parent="1">
          <mxGeometry x="1220" y="800" width="40" height="40" as="geometry" />
        </mxCell>
        <mxCell id="CcgA9E4d6CHRGQEPa_HV-297" value="" style="whiteSpace=wrap;html=1;aspect=fixed;" vertex="1" parent="1">
          <mxGeometry x="1260" y="800" width="40" height="40" as="geometry" />
        </mxCell>
        <mxCell id="CcgA9E4d6CHRGQEPa_HV-298" value="" style="whiteSpace=wrap;html=1;aspect=fixed;" vertex="1" parent="1">
          <mxGeometry x="1300" y="800" width="40" height="40" as="geometry" />
        </mxCell>
        <mxCell id="CcgA9E4d6CHRGQEPa_HV-299" value="" style="whiteSpace=wrap;html=1;aspect=fixed;fillColor=#d5e8d4;strokeColor=#82b366;" vertex="1" parent="1">
          <mxGeometry x="1340" y="800" width="40" height="40" as="geometry" />
        </mxCell>
        <mxCell id="CcgA9E4d6CHRGQEPa_HV-300" value="" style="whiteSpace=wrap;html=1;aspect=fixed;" vertex="1" parent="1">
          <mxGeometry x="1380" y="800" width="40" height="40" as="geometry" />
        </mxCell>
        <mxCell id="CcgA9E4d6CHRGQEPa_HV-301" value="" style="whiteSpace=wrap;html=1;aspect=fixed;" vertex="1" parent="1">
          <mxGeometry x="1420" y="800" width="40" height="40" as="geometry" />
        </mxCell>
        <mxCell id="CcgA9E4d6CHRGQEPa_HV-302" value="" style="whiteSpace=wrap;html=1;aspect=fixed;" vertex="1" parent="1">
          <mxGeometry x="1460" y="800" width="40" height="40" as="geometry" />
        </mxCell>
        <mxCell id="CcgA9E4d6CHRGQEPa_HV-303" value="" style="whiteSpace=wrap;html=1;aspect=fixed;strokeColor=default;align=center;verticalAlign=middle;fontFamily=Helvetica;fontSize=12;fontColor=default;fillColor=light-dark(#FFFFFF,#A680B8);" vertex="1" parent="1">
          <mxGeometry x="1500" y="800" width="40" height="40" as="geometry" />
        </mxCell>
        <mxCell id="CcgA9E4d6CHRGQEPa_HV-304" value="" style="whiteSpace=wrap;html=1;aspect=fixed;strokeColor=default;align=center;verticalAlign=middle;fontFamily=Helvetica;fontSize=12;fontColor=default;fillColor=light-dark(#FFFFFF,#A680B8);" vertex="1" parent="1">
          <mxGeometry x="1180" y="880" width="40" height="40" as="geometry" />
        </mxCell>
        <mxCell id="CcgA9E4d6CHRGQEPa_HV-305" value="" style="whiteSpace=wrap;html=1;aspect=fixed;fillColor=#f8cecc;strokeColor=#b85450;" vertex="1" parent="1">
          <mxGeometry x="1220" y="880" width="40" height="40" as="geometry" />
        </mxCell>
        <mxCell id="CcgA9E4d6CHRGQEPa_HV-306" value="" style="whiteSpace=wrap;html=1;aspect=fixed;fillColor=#f8cecc;strokeColor=#b85450;" vertex="1" parent="1">
          <mxGeometry x="1260" y="880" width="40" height="40" as="geometry" />
        </mxCell>
        <mxCell id="CcgA9E4d6CHRGQEPa_HV-307" value="" style="whiteSpace=wrap;html=1;aspect=fixed;fillColor=#f8cecc;strokeColor=#b85450;" vertex="1" parent="1">
          <mxGeometry x="1300" y="880" width="40" height="40" as="geometry" />
        </mxCell>
        <mxCell id="CcgA9E4d6CHRGQEPa_HV-308" value="" style="whiteSpace=wrap;html=1;aspect=fixed;fillColor=#f8cecc;strokeColor=#b85450;" vertex="1" parent="1">
          <mxGeometry x="1340" y="880" width="40" height="40" as="geometry" />
        </mxCell>
        <mxCell id="CcgA9E4d6CHRGQEPa_HV-309" value="" style="whiteSpace=wrap;html=1;aspect=fixed;fillColor=#f8cecc;strokeColor=#b85450;" vertex="1" parent="1">
          <mxGeometry x="1380" y="880" width="40" height="40" as="geometry" />
        </mxCell>
        <mxCell id="CcgA9E4d6CHRGQEPa_HV-310" value="" style="whiteSpace=wrap;html=1;aspect=fixed;fillColor=#f8cecc;strokeColor=#b85450;" vertex="1" parent="1">
          <mxGeometry x="1420" y="880" width="40" height="40" as="geometry" />
        </mxCell>
        <mxCell id="CcgA9E4d6CHRGQEPa_HV-311" value="" style="whiteSpace=wrap;html=1;aspect=fixed;strokeColor=default;align=center;verticalAlign=middle;fontFamily=Helvetica;fontSize=12;fontColor=default;fillColor=light-dark(#FFFFFF,#A680B8);" vertex="1" parent="1">
          <mxGeometry x="1460" y="880" width="40" height="40" as="geometry" />
        </mxCell>
        <mxCell id="CcgA9E4d6CHRGQEPa_HV-312" value="" style="whiteSpace=wrap;html=1;aspect=fixed;strokeColor=default;align=center;verticalAlign=middle;fontFamily=Helvetica;fontSize=12;fontColor=default;fillColor=light-dark(#FFFFFF,#A680B8);" vertex="1" parent="1">
          <mxGeometry x="1500" y="880" width="40" height="40" as="geometry" />
        </mxCell>
        <mxCell id="CcgA9E4d6CHRGQEPa_HV-313" value="2" style="whiteSpace=wrap;html=1;aspect=fixed;strokeColor=#6c8ebf;align=center;verticalAlign=middle;fontFamily=Helvetica;fontSize=12;fillColor=#dae8fc;fontStyle=1;strokeWidth=2;" vertex="1" parent="1">
          <mxGeometry x="40" y="400" width="40" height="40" as="geometry" />
        </mxCell>
        <mxCell id="CcgA9E4d6CHRGQEPa_HV-314" value="1" style="whiteSpace=wrap;html=1;aspect=fixed;strokeColor=#6c8ebf;align=center;verticalAlign=middle;fontFamily=Helvetica;fontSize=12;fillColor=#dae8fc;fontStyle=1;strokeWidth=2;" vertex="1" parent="1">
          <mxGeometry x="40" y="360" width="40" height="40" as="geometry" />
        </mxCell>
        <mxCell id="CcgA9E4d6CHRGQEPa_HV-315" value="0" style="whiteSpace=wrap;html=1;aspect=fixed;strokeColor=#6c8ebf;align=center;verticalAlign=middle;fontFamily=Helvetica;fontSize=12;fillColor=#dae8fc;fontStyle=1;strokeWidth=2;" vertex="1" parent="1">
          <mxGeometry x="40" y="320" width="40" height="40" as="geometry" />
        </mxCell>
        <mxCell id="CcgA9E4d6CHRGQEPa_HV-317" value="0" style="whiteSpace=wrap;html=1;aspect=fixed;strokeColor=#6c8ebf;align=center;verticalAlign=middle;fontFamily=Helvetica;fontSize=12;fillColor=#dae8fc;fontStyle=1;strokeWidth=2;" vertex="1" parent="1">
          <mxGeometry x="80" y="280" width="40" height="40" as="geometry" />
        </mxCell>
        <mxCell id="CcgA9E4d6CHRGQEPa_HV-319" value="1" style="whiteSpace=wrap;html=1;aspect=fixed;strokeColor=#6c8ebf;align=center;verticalAlign=middle;fontFamily=Helvetica;fontSize=12;fillColor=#dae8fc;fontStyle=1;strokeWidth=2;" vertex="1" parent="1">
          <mxGeometry x="120" y="280" width="40" height="40" as="geometry" />
        </mxCell>
        <mxCell id="CcgA9E4d6CHRGQEPa_HV-320" value="2" style="whiteSpace=wrap;html=1;strokeColor=#6c8ebf;align=center;verticalAlign=middle;fontFamily=Helvetica;fontSize=12;fillColor=#dae8fc;fontStyle=1;strokeWidth=2;" vertex="1" parent="1">
          <mxGeometry x="160" y="280" width="60" height="40" as="geometry" />
        </mxCell>
        <mxCell id="CcgA9E4d6CHRGQEPa_HV-322" value="0" style="whiteSpace=wrap;html=1;aspect=fixed;strokeColor=#6c8ebf;align=center;verticalAlign=middle;fontFamily=Helvetica;fontSize=12;fillColor=#dae8fc;fontStyle=1;strokeWidth=2;" vertex="1" parent="1">
          <mxGeometry x="320" y="400" width="40" height="40" as="geometry" />
        </mxCell>
        <mxCell id="CcgA9E4d6CHRGQEPa_HV-323" value="1" style="whiteSpace=wrap;html=1;aspect=fixed;strokeColor=#6c8ebf;align=center;verticalAlign=middle;fontFamily=Helvetica;fontSize=12;fillColor=#dae8fc;fontStyle=1;strokeWidth=2;" vertex="1" parent="1">
          <mxGeometry x="320" y="440" width="40" height="40" as="geometry" />
        </mxCell>
        <mxCell id="CcgA9E4d6CHRGQEPa_HV-324" value="2" style="whiteSpace=wrap;html=1;aspect=fixed;strokeColor=#6c8ebf;align=center;verticalAlign=middle;fontFamily=Helvetica;fontSize=12;fillColor=#dae8fc;fontStyle=1;strokeWidth=2;" vertex="1" parent="1">
          <mxGeometry x="320" y="480" width="40" height="40" as="geometry" />
        </mxCell>
        <mxCell id="CcgA9E4d6CHRGQEPa_HV-325" value="0" style="whiteSpace=wrap;html=1;aspect=fixed;strokeColor=#6c8ebf;align=center;verticalAlign=middle;fontFamily=Helvetica;fontSize=12;fillColor=#dae8fc;fontStyle=1;strokeWidth=2;" vertex="1" parent="1">
          <mxGeometry x="360" y="360" width="40" height="40" as="geometry" />
        </mxCell>
        <mxCell id="CcgA9E4d6CHRGQEPa_HV-326" value="1" style="whiteSpace=wrap;html=1;aspect=fixed;strokeColor=#6c8ebf;align=center;verticalAlign=middle;fontFamily=Helvetica;fontSize=12;fillColor=#dae8fc;fontStyle=1;strokeWidth=2;" vertex="1" parent="1">
          <mxGeometry x="400" y="360" width="40" height="40" as="geometry" />
        </mxCell>
        <mxCell id="CcgA9E4d6CHRGQEPa_HV-327" value="2" style="whiteSpace=wrap;html=1;strokeColor=#6c8ebf;align=center;verticalAlign=middle;fontFamily=Helvetica;fontSize=12;fillColor=#dae8fc;fontStyle=1;strokeWidth=2;" vertex="1" parent="1">
          <mxGeometry x="440" y="360" width="40" height="40" as="geometry" />
        </mxCell>
        <mxCell id="CcgA9E4d6CHRGQEPa_HV-328" value="3" style="whiteSpace=wrap;html=1;aspect=fixed;strokeColor=#6c8ebf;align=center;verticalAlign=middle;fontFamily=Helvetica;fontSize=12;fillColor=#dae8fc;fontStyle=1;strokeWidth=2;" vertex="1" parent="1">
          <mxGeometry x="320" y="520" width="40" height="40" as="geometry" />
        </mxCell>
        <mxCell id="CcgA9E4d6CHRGQEPa_HV-329" value="4" style="whiteSpace=wrap;html=1;aspect=fixed;strokeColor=#6c8ebf;align=center;verticalAlign=middle;fontFamily=Helvetica;fontSize=12;fillColor=#dae8fc;fontStyle=1;strokeWidth=2;" vertex="1" parent="1">
          <mxGeometry x="320" y="560" width="40" height="40" as="geometry" />
        </mxCell>
        <mxCell id="CcgA9E4d6CHRGQEPa_HV-330" value="3" style="whiteSpace=wrap;html=1;strokeColor=#6c8ebf;align=center;verticalAlign=middle;fontFamily=Helvetica;fontSize=12;fillColor=#dae8fc;fontStyle=1;strokeWidth=2;" vertex="1" parent="1">
          <mxGeometry x="480" y="360" width="40" height="40" as="geometry" />
        </mxCell>
        <mxCell id="CcgA9E4d6CHRGQEPa_HV-331" value="4" style="whiteSpace=wrap;html=1;strokeColor=#6c8ebf;align=center;verticalAlign=middle;fontFamily=Helvetica;fontSize=12;fillColor=#dae8fc;fontStyle=1;strokeWidth=2;" vertex="1" parent="1">
          <mxGeometry x="520" y="360" width="60" height="40" as="geometry" />
        </mxCell>
        <mxCell id="CcgA9E4d6CHRGQEPa_HV-335" value="4" style="whiteSpace=wrap;html=1;aspect=fixed;strokeColor=#6c8ebf;align=center;verticalAlign=middle;fontFamily=Helvetica;fontSize=12;fillColor=#dae8fc;fontStyle=1;strokeWidth=2;" vertex="1" parent="1">
          <mxGeometry x="680" y="640" width="40" height="40" as="geometry" />
        </mxCell>
        <mxCell id="CcgA9E4d6CHRGQEPa_HV-336" value="0" style="whiteSpace=wrap;html=1;aspect=fixed;strokeColor=#6c8ebf;align=center;verticalAlign=middle;fontFamily=Helvetica;fontSize=12;fillColor=#dae8fc;fontStyle=1;strokeWidth=2;" vertex="1" parent="1">
          <mxGeometry x="680" y="480" width="40" height="40" as="geometry" />
        </mxCell>
        <mxCell id="CcgA9E4d6CHRGQEPa_HV-337" value="1" style="whiteSpace=wrap;html=1;aspect=fixed;strokeColor=#6c8ebf;align=center;verticalAlign=middle;fontFamily=Helvetica;fontSize=12;fillColor=#dae8fc;fontStyle=1;strokeWidth=2;" vertex="1" parent="1">
          <mxGeometry x="680" y="520" width="40" height="40" as="geometry" />
        </mxCell>
        <mxCell id="CcgA9E4d6CHRGQEPa_HV-338" value="2" style="whiteSpace=wrap;html=1;aspect=fixed;strokeColor=#6c8ebf;align=center;verticalAlign=middle;fontFamily=Helvetica;fontSize=12;fillColor=#dae8fc;fontStyle=1;strokeWidth=2;" vertex="1" parent="1">
          <mxGeometry x="680" y="560" width="40" height="40" as="geometry" />
        </mxCell>
        <mxCell id="CcgA9E4d6CHRGQEPa_HV-339" value="3" style="whiteSpace=wrap;html=1;aspect=fixed;strokeColor=#6c8ebf;align=center;verticalAlign=middle;fontFamily=Helvetica;fontSize=12;fillColor=#dae8fc;fontStyle=1;strokeWidth=2;" vertex="1" parent="1">
          <mxGeometry x="680" y="600" width="40" height="40" as="geometry" />
        </mxCell>
        <mxCell id="CcgA9E4d6CHRGQEPa_HV-340" value="0" style="whiteSpace=wrap;html=1;aspect=fixed;strokeColor=#6c8ebf;align=center;verticalAlign=middle;fontFamily=Helvetica;fontSize=12;fillColor=#dae8fc;fontStyle=1;strokeWidth=2;" vertex="1" parent="1">
          <mxGeometry x="720" y="440" width="40" height="40" as="geometry" />
        </mxCell>
        <mxCell id="CcgA9E4d6CHRGQEPa_HV-341" value="1" style="whiteSpace=wrap;html=1;aspect=fixed;strokeColor=#6c8ebf;align=center;verticalAlign=middle;fontFamily=Helvetica;fontSize=12;fillColor=#dae8fc;fontStyle=1;strokeWidth=2;" vertex="1" parent="1">
          <mxGeometry x="760" y="440" width="40" height="40" as="geometry" />
        </mxCell>
        <mxCell id="CcgA9E4d6CHRGQEPa_HV-342" value="2" style="whiteSpace=wrap;html=1;strokeColor=#6c8ebf;align=center;verticalAlign=middle;fontFamily=Helvetica;fontSize=12;fillColor=#dae8fc;fontStyle=1;strokeWidth=2;" vertex="1" parent="1">
          <mxGeometry x="800" y="440" width="40" height="40" as="geometry" />
        </mxCell>
        <mxCell id="CcgA9E4d6CHRGQEPa_HV-343" value="3" style="whiteSpace=wrap;html=1;strokeColor=#6c8ebf;align=center;verticalAlign=middle;fontFamily=Helvetica;fontSize=12;fillColor=#dae8fc;fontStyle=1;strokeWidth=2;" vertex="1" parent="1">
          <mxGeometry x="840" y="440" width="40" height="40" as="geometry" />
        </mxCell>
        <mxCell id="CcgA9E4d6CHRGQEPa_HV-344" value="6" style="whiteSpace=wrap;html=1;aspect=fixed;strokeColor=#6c8ebf;align=center;verticalAlign=middle;fontFamily=Helvetica;fontSize=12;fillColor=#dae8fc;fontStyle=1;strokeWidth=2;" vertex="1" parent="1">
          <mxGeometry x="680" y="720" width="40" height="40" as="geometry" />
        </mxCell>
        <mxCell id="CcgA9E4d6CHRGQEPa_HV-345" value="5" style="whiteSpace=wrap;html=1;aspect=fixed;strokeColor=#6c8ebf;align=center;verticalAlign=middle;fontFamily=Helvetica;fontSize=12;fillColor=#dae8fc;fontStyle=1;strokeWidth=2;" vertex="1" parent="1">
          <mxGeometry x="680" y="680" width="40" height="40" as="geometry" />
        </mxCell>
        <mxCell id="CcgA9E4d6CHRGQEPa_HV-346" value="4" style="whiteSpace=wrap;html=1;strokeColor=#6c8ebf;align=center;verticalAlign=middle;fontFamily=Helvetica;fontSize=12;fillColor=#dae8fc;fontStyle=1;strokeWidth=2;" vertex="1" parent="1">
          <mxGeometry x="880" y="440" width="40" height="40" as="geometry" />
        </mxCell>
        <mxCell id="CcgA9E4d6CHRGQEPa_HV-347" value="5" style="whiteSpace=wrap;html=1;strokeColor=#6c8ebf;align=center;verticalAlign=middle;fontFamily=Helvetica;fontSize=12;fillColor=#dae8fc;fontStyle=1;strokeWidth=2;" vertex="1" parent="1">
          <mxGeometry x="920" y="440" width="40" height="40" as="geometry" />
        </mxCell>
        <mxCell id="CcgA9E4d6CHRGQEPa_HV-348" value="6" style="whiteSpace=wrap;html=1;strokeColor=#6c8ebf;align=center;verticalAlign=middle;fontFamily=Helvetica;fontSize=12;fillColor=#dae8fc;fontStyle=1;strokeWidth=2;" vertex="1" parent="1">
          <mxGeometry x="960" y="440" width="60" height="40" as="geometry" />
        </mxCell>
        <mxCell id="CcgA9E4d6CHRGQEPa_HV-350" value="0" style="whiteSpace=wrap;html=1;aspect=fixed;strokeColor=#6c8ebf;align=center;verticalAlign=middle;fontFamily=Helvetica;fontSize=12;fillColor=#dae8fc;fontStyle=1;strokeWidth=2;" vertex="1" parent="1">
          <mxGeometry x="1120" y="600" width="40" height="40" as="geometry" />
        </mxCell>
        <mxCell id="CcgA9E4d6CHRGQEPa_HV-351" value="1" style="whiteSpace=wrap;html=1;aspect=fixed;strokeColor=#6c8ebf;align=center;verticalAlign=middle;fontFamily=Helvetica;fontSize=12;fillColor=#dae8fc;fontStyle=1;strokeWidth=2;" vertex="1" parent="1">
          <mxGeometry x="1120" y="640" width="40" height="40" as="geometry" />
        </mxCell>
        <mxCell id="CcgA9E4d6CHRGQEPa_HV-352" value="2" style="whiteSpace=wrap;html=1;aspect=fixed;strokeColor=#6c8ebf;align=center;verticalAlign=middle;fontFamily=Helvetica;fontSize=12;fillColor=#dae8fc;fontStyle=1;strokeWidth=2;" vertex="1" parent="1">
          <mxGeometry x="1120" y="680" width="40" height="40" as="geometry" />
        </mxCell>
        <mxCell id="CcgA9E4d6CHRGQEPa_HV-353" value="3" style="whiteSpace=wrap;html=1;aspect=fixed;strokeColor=#6c8ebf;align=center;verticalAlign=middle;fontFamily=Helvetica;fontSize=12;fillColor=#dae8fc;fontStyle=1;strokeWidth=2;" vertex="1" parent="1">
          <mxGeometry x="1120" y="720" width="40" height="40" as="geometry" />
        </mxCell>
        <mxCell id="CcgA9E4d6CHRGQEPa_HV-354" value="4" style="whiteSpace=wrap;html=1;aspect=fixed;strokeColor=#6c8ebf;align=center;verticalAlign=middle;fontFamily=Helvetica;fontSize=12;fillColor=#dae8fc;fontStyle=1;strokeWidth=2;" vertex="1" parent="1">
          <mxGeometry x="1120" y="760" width="40" height="40" as="geometry" />
        </mxCell>
        <mxCell id="CcgA9E4d6CHRGQEPa_HV-356" value="4" style="whiteSpace=wrap;html=1;aspect=fixed;strokeColor=#6c8ebf;align=center;verticalAlign=middle;fontFamily=Helvetica;fontSize=12;fillColor=#dae8fc;fontStyle=1;strokeWidth=2;" vertex="1" parent="1">
          <mxGeometry x="1121" y="920" width="40" height="40" as="geometry" />
        </mxCell>
        <mxCell id="CcgA9E4d6CHRGQEPa_HV-357" value="3" style="whiteSpace=wrap;html=1;aspect=fixed;strokeColor=#6c8ebf;align=center;verticalAlign=middle;fontFamily=Helvetica;fontSize=12;fillColor=#dae8fc;fontStyle=1;strokeWidth=2;" vertex="1" parent="1">
          <mxGeometry x="1121" y="880" width="40" height="40" as="geometry" />
        </mxCell>
        <mxCell id="CcgA9E4d6CHRGQEPa_HV-358" value="2" style="whiteSpace=wrap;html=1;aspect=fixed;strokeColor=#6c8ebf;align=center;verticalAlign=middle;fontFamily=Helvetica;fontSize=12;fillColor=#dae8fc;fontStyle=1;strokeWidth=2;" vertex="1" parent="1">
          <mxGeometry x="1121" y="840" width="40" height="40" as="geometry" />
        </mxCell>
        <mxCell id="CcgA9E4d6CHRGQEPa_HV-359" value="1" style="whiteSpace=wrap;html=1;aspect=fixed;strokeColor=#6c8ebf;align=center;verticalAlign=middle;fontFamily=Helvetica;fontSize=12;fillColor=#dae8fc;fontStyle=1;strokeWidth=2;" vertex="1" parent="1">
          <mxGeometry x="1121" y="800" width="40" height="40" as="geometry" />
        </mxCell>
        <mxCell id="CcgA9E4d6CHRGQEPa_HV-360" value="8" style="whiteSpace=wrap;html=1;aspect=fixed;strokeColor=#6c8ebf;align=center;verticalAlign=middle;fontFamily=Helvetica;fontSize=12;fillColor=#dae8fc;fontStyle=1;strokeWidth=2;" vertex="1" parent="1">
          <mxGeometry x="1120" y="920" width="40" height="40" as="geometry" />
        </mxCell>
        <mxCell id="CcgA9E4d6CHRGQEPa_HV-361" value="7" style="whiteSpace=wrap;html=1;aspect=fixed;strokeColor=#6c8ebf;align=center;verticalAlign=middle;fontFamily=Helvetica;fontSize=12;fillColor=#dae8fc;fontStyle=1;strokeWidth=2;" vertex="1" parent="1">
          <mxGeometry x="1120" y="880" width="40" height="40" as="geometry" />
        </mxCell>
        <mxCell id="CcgA9E4d6CHRGQEPa_HV-362" value="6" style="whiteSpace=wrap;html=1;aspect=fixed;strokeColor=#6c8ebf;align=center;verticalAlign=middle;fontFamily=Helvetica;fontSize=12;fillColor=#dae8fc;fontStyle=1;strokeWidth=2;" vertex="1" parent="1">
          <mxGeometry x="1120" y="840" width="40" height="40" as="geometry" />
        </mxCell>
        <mxCell id="CcgA9E4d6CHRGQEPa_HV-363" value="5" style="whiteSpace=wrap;html=1;aspect=fixed;strokeColor=#6c8ebf;align=center;verticalAlign=middle;fontFamily=Helvetica;fontSize=12;fillColor=#dae8fc;fontStyle=1;strokeWidth=2;" vertex="1" parent="1">
          <mxGeometry x="1120" y="800" width="40" height="40" as="geometry" />
        </mxCell>
        <mxCell id="CcgA9E4d6CHRGQEPa_HV-365" value="0" style="whiteSpace=wrap;html=1;aspect=fixed;strokeColor=#6c8ebf;align=center;verticalAlign=middle;fontFamily=Helvetica;fontSize=12;fillColor=#dae8fc;fontStyle=1;strokeWidth=2;" vertex="1" parent="1">
          <mxGeometry x="1160" y="560" width="40" height="40" as="geometry" />
        </mxCell>
        <mxCell id="CcgA9E4d6CHRGQEPa_HV-366" value="1" style="whiteSpace=wrap;html=1;aspect=fixed;strokeColor=#6c8ebf;align=center;verticalAlign=middle;fontFamily=Helvetica;fontSize=12;fillColor=#dae8fc;fontStyle=1;strokeWidth=2;" vertex="1" parent="1">
          <mxGeometry x="1201" y="560" width="40" height="40" as="geometry" />
        </mxCell>
        <mxCell id="CcgA9E4d6CHRGQEPa_HV-367" value="2" style="whiteSpace=wrap;html=1;aspect=fixed;strokeColor=#6c8ebf;align=center;verticalAlign=middle;fontFamily=Helvetica;fontSize=12;fillColor=#dae8fc;fontStyle=1;strokeWidth=2;" vertex="1" parent="1">
          <mxGeometry x="1240" y="560" width="40" height="40" as="geometry" />
        </mxCell>
        <mxCell id="CcgA9E4d6CHRGQEPa_HV-368" value="3" style="whiteSpace=wrap;html=1;aspect=fixed;strokeColor=#6c8ebf;align=center;verticalAlign=middle;fontFamily=Helvetica;fontSize=12;fillColor=#dae8fc;fontStyle=1;strokeWidth=2;" vertex="1" parent="1">
          <mxGeometry x="1280" y="560" width="40" height="40" as="geometry" />
        </mxCell>
        <mxCell id="CcgA9E4d6CHRGQEPa_HV-369" value="4" style="whiteSpace=wrap;html=1;aspect=fixed;strokeColor=#6c8ebf;align=center;verticalAlign=middle;fontFamily=Helvetica;fontSize=12;fillColor=#dae8fc;fontStyle=1;strokeWidth=2;" vertex="1" parent="1">
          <mxGeometry x="1320" y="560" width="40" height="40" as="geometry" />
        </mxCell>
        <mxCell id="CcgA9E4d6CHRGQEPa_HV-370" value="5" style="whiteSpace=wrap;html=1;aspect=fixed;strokeColor=#6c8ebf;align=center;verticalAlign=middle;fontFamily=Helvetica;fontSize=12;fillColor=#dae8fc;fontStyle=1;strokeWidth=2;" vertex="1" parent="1">
          <mxGeometry x="1360" y="560" width="40" height="40" as="geometry" />
        </mxCell>
        <mxCell id="CcgA9E4d6CHRGQEPa_HV-371" value="6" style="whiteSpace=wrap;html=1;aspect=fixed;strokeColor=#6c8ebf;align=center;verticalAlign=middle;fontFamily=Helvetica;fontSize=12;fillColor=#dae8fc;fontStyle=1;strokeWidth=2;" vertex="1" parent="1">
          <mxGeometry x="1400" y="560" width="40" height="40" as="geometry" />
        </mxCell>
        <mxCell id="CcgA9E4d6CHRGQEPa_HV-372" value="7" style="whiteSpace=wrap;html=1;aspect=fixed;strokeColor=#6c8ebf;align=center;verticalAlign=middle;fontFamily=Helvetica;fontSize=12;fillColor=#dae8fc;fontStyle=1;strokeWidth=2;" vertex="1" parent="1">
          <mxGeometry x="1440" y="560" width="40" height="40" as="geometry" />
        </mxCell>
        <mxCell id="CcgA9E4d6CHRGQEPa_HV-373" value="8" style="whiteSpace=wrap;html=1;strokeColor=#6c8ebf;align=center;verticalAlign=middle;fontFamily=Helvetica;fontSize=12;fillColor=#dae8fc;fontStyle=1;strokeWidth=2;" vertex="1" parent="1">
          <mxGeometry x="1480" y="560" width="60" height="40" as="geometry" />
        </mxCell>
        <mxCell id="CcgA9E4d6CHRGQEPa_HV-374" value="-4" style="whiteSpace=wrap;html=1;aspect=fixed;strokeColor=#6c8ebf;align=center;verticalAlign=middle;fontFamily=Helvetica;fontSize=12;fillColor=#dae8fc;fontStyle=1;strokeWidth=2;" vertex="1" parent="1">
          <mxGeometry x="1081" y="600" width="40" height="40" as="geometry" />
        </mxCell>
        <mxCell id="CcgA9E4d6CHRGQEPa_HV-375" value="-3" style="whiteSpace=wrap;html=1;aspect=fixed;strokeColor=#6c8ebf;align=center;verticalAlign=middle;fontFamily=Helvetica;fontSize=12;fillColor=#dae8fc;fontStyle=1;strokeWidth=2;" vertex="1" parent="1">
          <mxGeometry x="1081" y="640" width="40" height="40" as="geometry" />
        </mxCell>
        <mxCell id="CcgA9E4d6CHRGQEPa_HV-376" value="-2" style="whiteSpace=wrap;html=1;aspect=fixed;strokeColor=#6c8ebf;align=center;verticalAlign=middle;fontFamily=Helvetica;fontSize=12;fillColor=#dae8fc;fontStyle=1;strokeWidth=2;" vertex="1" parent="1">
          <mxGeometry x="1081" y="680" width="40" height="40" as="geometry" />
        </mxCell>
        <mxCell id="CcgA9E4d6CHRGQEPa_HV-377" value="-1" style="whiteSpace=wrap;html=1;aspect=fixed;strokeColor=#6c8ebf;align=center;verticalAlign=middle;fontFamily=Helvetica;fontSize=12;fillColor=#dae8fc;fontStyle=1;strokeWidth=2;" vertex="1" parent="1">
          <mxGeometry x="1081" y="720" width="40" height="40" as="geometry" />
        </mxCell>
        <mxCell id="CcgA9E4d6CHRGQEPa_HV-378" value="0" style="whiteSpace=wrap;html=1;aspect=fixed;strokeColor=#6c8ebf;align=center;verticalAlign=middle;fontFamily=Helvetica;fontSize=12;fillColor=#dae8fc;fontStyle=1;strokeWidth=2;" vertex="1" parent="1">
          <mxGeometry x="1081" y="760" width="40" height="40" as="geometry" />
        </mxCell>
        <mxCell id="CcgA9E4d6CHRGQEPa_HV-379" value="1" style="whiteSpace=wrap;html=1;aspect=fixed;strokeColor=#6c8ebf;align=center;verticalAlign=middle;fontFamily=Helvetica;fontSize=12;fillColor=#dae8fc;fontStyle=1;strokeWidth=2;" vertex="1" parent="1">
          <mxGeometry x="1081" y="800" width="40" height="40" as="geometry" />
        </mxCell>
        <mxCell id="CcgA9E4d6CHRGQEPa_HV-380" value="2" style="whiteSpace=wrap;html=1;aspect=fixed;strokeColor=#6c8ebf;align=center;verticalAlign=middle;fontFamily=Helvetica;fontSize=12;fillColor=#dae8fc;fontStyle=1;strokeWidth=2;" vertex="1" parent="1">
          <mxGeometry x="1081" y="840" width="40" height="40" as="geometry" />
        </mxCell>
        <mxCell id="CcgA9E4d6CHRGQEPa_HV-381" value="3" style="whiteSpace=wrap;html=1;aspect=fixed;strokeColor=#6c8ebf;align=center;verticalAlign=middle;fontFamily=Helvetica;fontSize=12;fillColor=#dae8fc;fontStyle=1;strokeWidth=2;" vertex="1" parent="1">
          <mxGeometry x="1081" y="880" width="40" height="40" as="geometry" />
        </mxCell>
        <mxCell id="CcgA9E4d6CHRGQEPa_HV-382" value="4" style="whiteSpace=wrap;html=1;aspect=fixed;strokeColor=#6c8ebf;align=center;verticalAlign=middle;fontFamily=Helvetica;fontSize=12;fillColor=#dae8fc;fontStyle=1;strokeWidth=2;" vertex="1" parent="1">
          <mxGeometry x="1081" y="920" width="40" height="40" as="geometry" />
        </mxCell>
        <mxCell id="CcgA9E4d6CHRGQEPa_HV-383" value="-1" style="whiteSpace=wrap;html=1;aspect=fixed;strokeColor=#6c8ebf;align=center;verticalAlign=middle;fontFamily=Helvetica;fontSize=12;fillColor=#dae8fc;fontStyle=1;strokeWidth=2;" vertex="1" parent="1">
          <mxGeometry y="320" width="40" height="40" as="geometry" />
        </mxCell>
        <mxCell id="CcgA9E4d6CHRGQEPa_HV-384" value="0" style="whiteSpace=wrap;html=1;aspect=fixed;strokeColor=#6c8ebf;align=center;verticalAlign=middle;fontFamily=Helvetica;fontSize=12;fillColor=#dae8fc;fontStyle=1;strokeWidth=2;" vertex="1" parent="1">
          <mxGeometry y="360" width="40" height="40" as="geometry" />
        </mxCell>
        <mxCell id="CcgA9E4d6CHRGQEPa_HV-385" value="1" style="whiteSpace=wrap;html=1;aspect=fixed;strokeColor=#6c8ebf;align=center;verticalAlign=middle;fontFamily=Helvetica;fontSize=12;fillColor=#dae8fc;fontStyle=1;strokeWidth=2;" vertex="1" parent="1">
          <mxGeometry y="400" width="40" height="40" as="geometry" />
        </mxCell>
        <mxCell id="CcgA9E4d6CHRGQEPa_HV-386" value="-2" style="whiteSpace=wrap;html=1;aspect=fixed;strokeColor=#6c8ebf;align=center;verticalAlign=middle;fontFamily=Helvetica;fontSize=12;fillColor=#dae8fc;fontStyle=1;strokeWidth=2;" vertex="1" parent="1">
          <mxGeometry x="280" y="400" width="40" height="40" as="geometry" />
        </mxCell>
        <mxCell id="CcgA9E4d6CHRGQEPa_HV-387" value="-1" style="whiteSpace=wrap;html=1;aspect=fixed;strokeColor=#6c8ebf;align=center;verticalAlign=middle;fontFamily=Helvetica;fontSize=12;fillColor=#dae8fc;fontStyle=1;strokeWidth=2;" vertex="1" parent="1">
          <mxGeometry x="280" y="440" width="40" height="40" as="geometry" />
        </mxCell>
        <mxCell id="CcgA9E4d6CHRGQEPa_HV-388" value="0" style="whiteSpace=wrap;html=1;aspect=fixed;strokeColor=#6c8ebf;align=center;verticalAlign=middle;fontFamily=Helvetica;fontSize=12;fillColor=#dae8fc;fontStyle=1;strokeWidth=2;" vertex="1" parent="1">
          <mxGeometry x="280" y="480" width="40" height="40" as="geometry" />
        </mxCell>
        <mxCell id="CcgA9E4d6CHRGQEPa_HV-389" value="1" style="whiteSpace=wrap;html=1;aspect=fixed;strokeColor=#6c8ebf;align=center;verticalAlign=middle;fontFamily=Helvetica;fontSize=12;fillColor=#dae8fc;fontStyle=1;strokeWidth=2;" vertex="1" parent="1">
          <mxGeometry x="280" y="520" width="40" height="40" as="geometry" />
        </mxCell>
        <mxCell id="CcgA9E4d6CHRGQEPa_HV-390" value="2" style="whiteSpace=wrap;html=1;aspect=fixed;strokeColor=#6c8ebf;align=center;verticalAlign=middle;fontFamily=Helvetica;fontSize=12;fillColor=#dae8fc;fontStyle=1;strokeWidth=2;" vertex="1" parent="1">
          <mxGeometry x="280" y="560" width="40" height="40" as="geometry" />
        </mxCell>
        <mxCell id="CcgA9E4d6CHRGQEPa_HV-391" value="-3" style="whiteSpace=wrap;html=1;aspect=fixed;strokeColor=#6c8ebf;align=center;verticalAlign=middle;fontFamily=Helvetica;fontSize=12;fillColor=#dae8fc;fontStyle=1;strokeWidth=2;" vertex="1" parent="1">
          <mxGeometry x="640" y="480" width="40" height="40" as="geometry" />
        </mxCell>
        <mxCell id="CcgA9E4d6CHRGQEPa_HV-392" value="-2" style="whiteSpace=wrap;html=1;aspect=fixed;strokeColor=#6c8ebf;align=center;verticalAlign=middle;fontFamily=Helvetica;fontSize=12;fillColor=#dae8fc;fontStyle=1;strokeWidth=2;" vertex="1" parent="1">
          <mxGeometry x="640" y="520" width="40" height="40" as="geometry" />
        </mxCell>
        <mxCell id="CcgA9E4d6CHRGQEPa_HV-393" value="-1" style="whiteSpace=wrap;html=1;aspect=fixed;strokeColor=#6c8ebf;align=center;verticalAlign=middle;fontFamily=Helvetica;fontSize=12;fillColor=#dae8fc;fontStyle=1;strokeWidth=2;" vertex="1" parent="1">
          <mxGeometry x="640" y="560" width="40" height="40" as="geometry" />
        </mxCell>
        <mxCell id="CcgA9E4d6CHRGQEPa_HV-394" value="0" style="whiteSpace=wrap;html=1;aspect=fixed;strokeColor=#6c8ebf;align=center;verticalAlign=middle;fontFamily=Helvetica;fontSize=12;fillColor=#dae8fc;fontStyle=1;strokeWidth=2;" vertex="1" parent="1">
          <mxGeometry x="640" y="600" width="40" height="40" as="geometry" />
        </mxCell>
        <mxCell id="CcgA9E4d6CHRGQEPa_HV-395" value="1" style="whiteSpace=wrap;html=1;aspect=fixed;strokeColor=#6c8ebf;align=center;verticalAlign=middle;fontFamily=Helvetica;fontSize=12;fillColor=#dae8fc;fontStyle=1;strokeWidth=2;" vertex="1" parent="1">
          <mxGeometry x="640" y="640" width="40" height="40" as="geometry" />
        </mxCell>
        <mxCell id="CcgA9E4d6CHRGQEPa_HV-396" value="2" style="whiteSpace=wrap;html=1;aspect=fixed;strokeColor=#6c8ebf;align=center;verticalAlign=middle;fontFamily=Helvetica;fontSize=12;fillColor=#dae8fc;fontStyle=1;strokeWidth=2;" vertex="1" parent="1">
          <mxGeometry x="640" y="680" width="40" height="40" as="geometry" />
        </mxCell>
        <mxCell id="CcgA9E4d6CHRGQEPa_HV-397" value="3" style="whiteSpace=wrap;html=1;aspect=fixed;strokeColor=#6c8ebf;align=center;verticalAlign=middle;fontFamily=Helvetica;fontSize=12;fillColor=#dae8fc;fontStyle=1;strokeWidth=2;" vertex="1" parent="1">
          <mxGeometry x="640" y="720" width="40" height="40" as="geometry" />
        </mxCell>
        <mxCell id="CcgA9E4d6CHRGQEPa_HV-399" value="" style="ellipse;whiteSpace=wrap;html=1;aspect=fixed;fillColor=#e1d5e7;strokeColor=#9673a6;" vertex="1" parent="1">
          <mxGeometry x="1840" y="120" width="40" height="40" as="geometry" />
        </mxCell>
        <mxCell id="CcgA9E4d6CHRGQEPa_HV-400" value="" style="ellipse;whiteSpace=wrap;html=1;aspect=fixed;fillColor=#e1d5e7;strokeColor=#9673a6;" vertex="1" parent="1">
          <mxGeometry x="1800" y="120" width="40" height="40" as="geometry" />
        </mxCell>
        <mxCell id="CcgA9E4d6CHRGQEPa_HV-401" value="" style="ellipse;whiteSpace=wrap;html=1;aspect=fixed;fillColor=#e1d5e7;strokeColor=#9673a6;" vertex="1" parent="1">
          <mxGeometry x="1880" y="120" width="40" height="40" as="geometry" />
        </mxCell>
        <mxCell id="CcgA9E4d6CHRGQEPa_HV-402" value="" style="ellipse;whiteSpace=wrap;html=1;aspect=fixed;fillColor=#e1d5e7;strokeColor=#9673a6;" vertex="1" parent="1">
          <mxGeometry x="1760" y="120" width="40" height="40" as="geometry" />
        </mxCell>
        <mxCell id="CcgA9E4d6CHRGQEPa_HV-403" value="" style="ellipse;whiteSpace=wrap;html=1;aspect=fixed;fillColor=#e1d5e7;strokeColor=#9673a6;" vertex="1" parent="1">
          <mxGeometry x="1920" y="120" width="40" height="40" as="geometry" />
        </mxCell>
        <mxCell id="CcgA9E4d6CHRGQEPa_HV-404" value="" style="ellipse;whiteSpace=wrap;html=1;aspect=fixed;fillColor=#e1d5e7;strokeColor=#9673a6;" vertex="1" parent="1">
          <mxGeometry x="1960" y="120" width="40" height="40" as="geometry" />
        </mxCell>
        <mxCell id="CcgA9E4d6CHRGQEPa_HV-405" value="" style="ellipse;whiteSpace=wrap;html=1;aspect=fixed;fillColor=#e1d5e7;strokeColor=#9673a6;" vertex="1" parent="1">
          <mxGeometry x="1820" y="160" width="40" height="40" as="geometry" />
        </mxCell>
        <mxCell id="CcgA9E4d6CHRGQEPa_HV-406" value="" style="ellipse;whiteSpace=wrap;html=1;aspect=fixed;fillColor=#e1d5e7;strokeColor=#9673a6;" vertex="1" parent="1">
          <mxGeometry x="1780" y="160" width="40" height="40" as="geometry" />
        </mxCell>
        <mxCell id="CcgA9E4d6CHRGQEPa_HV-407" value="" style="ellipse;whiteSpace=wrap;html=1;aspect=fixed;fillColor=#e1d5e7;strokeColor=#9673a6;" vertex="1" parent="1">
          <mxGeometry x="1860" y="160" width="40" height="40" as="geometry" />
        </mxCell>
        <mxCell id="CcgA9E4d6CHRGQEPa_HV-408" value="" style="ellipse;whiteSpace=wrap;html=1;aspect=fixed;fillColor=#e1d5e7;strokeColor=#9673a6;" vertex="1" parent="1">
          <mxGeometry x="1740" y="160" width="40" height="40" as="geometry" />
        </mxCell>
        <mxCell id="CcgA9E4d6CHRGQEPa_HV-409" value="" style="ellipse;whiteSpace=wrap;html=1;aspect=fixed;fillColor=#e1d5e7;strokeColor=#9673a6;" vertex="1" parent="1">
          <mxGeometry x="1900" y="160" width="40" height="40" as="geometry" />
        </mxCell>
        <mxCell id="CcgA9E4d6CHRGQEPa_HV-410" value="" style="ellipse;whiteSpace=wrap;html=1;aspect=fixed;fillColor=#e1d5e7;strokeColor=#9673a6;" vertex="1" parent="1">
          <mxGeometry x="1940" y="160" width="40" height="40" as="geometry" />
        </mxCell>
        <mxCell id="CcgA9E4d6CHRGQEPa_HV-411" value="" style="ellipse;whiteSpace=wrap;html=1;aspect=fixed;fillColor=#e1d5e7;strokeColor=#9673a6;" vertex="1" parent="1">
          <mxGeometry x="1800" y="200" width="40" height="40" as="geometry" />
        </mxCell>
        <mxCell id="CcgA9E4d6CHRGQEPa_HV-412" value="" style="ellipse;whiteSpace=wrap;html=1;aspect=fixed;fillColor=#e1d5e7;strokeColor=#9673a6;" vertex="1" parent="1">
          <mxGeometry x="1760" y="200" width="40" height="40" as="geometry" />
        </mxCell>
        <mxCell id="CcgA9E4d6CHRGQEPa_HV-413" value="" style="ellipse;whiteSpace=wrap;html=1;aspect=fixed;fillColor=#e1d5e7;strokeColor=#9673a6;" vertex="1" parent="1">
          <mxGeometry x="1840" y="200" width="40" height="40" as="geometry" />
        </mxCell>
        <mxCell id="CcgA9E4d6CHRGQEPa_HV-414" value="" style="ellipse;whiteSpace=wrap;html=1;aspect=fixed;direction=south;fillColor=#e1d5e7;strokeColor=#9673a6;" vertex="1" parent="1">
          <mxGeometry x="1720" y="200" width="40" height="40" as="geometry" />
        </mxCell>
        <mxCell id="CcgA9E4d6CHRGQEPa_HV-415" value="" style="ellipse;whiteSpace=wrap;html=1;aspect=fixed;fillColor=#e1d5e7;strokeColor=#9673a6;" vertex="1" parent="1">
          <mxGeometry x="1880" y="200" width="40" height="40" as="geometry" />
        </mxCell>
        <mxCell id="CcgA9E4d6CHRGQEPa_HV-416" value="" style="ellipse;whiteSpace=wrap;html=1;aspect=fixed;fillColor=#e1d5e7;strokeColor=#9673a6;" vertex="1" parent="1">
          <mxGeometry x="1920" y="200" width="40" height="40" as="geometry" />
        </mxCell>
        <mxCell id="CcgA9E4d6CHRGQEPa_HV-417" value="" style="ellipse;whiteSpace=wrap;html=1;aspect=fixed;fillColor=#e1d5e7;strokeColor=#9673a6;" vertex="1" parent="1">
          <mxGeometry x="1780" y="240" width="40" height="40" as="geometry" />
        </mxCell>
        <mxCell id="CcgA9E4d6CHRGQEPa_HV-418" value="" style="ellipse;whiteSpace=wrap;html=1;aspect=fixed;" vertex="1" parent="1">
          <mxGeometry x="1740" y="240" width="40" height="40" as="geometry" />
        </mxCell>
        <mxCell id="CcgA9E4d6CHRGQEPa_HV-419" value="" style="ellipse;whiteSpace=wrap;html=1;aspect=fixed;fillColor=#e1d5e7;strokeColor=#9673a6;" vertex="1" parent="1">
          <mxGeometry x="1820" y="240" width="40" height="40" as="geometry" />
        </mxCell>
        <mxCell id="CcgA9E4d6CHRGQEPa_HV-420" value="" style="ellipse;whiteSpace=wrap;html=1;aspect=fixed;" vertex="1" parent="1">
          <mxGeometry x="1700" y="240" width="40" height="40" as="geometry" />
        </mxCell>
        <mxCell id="CcgA9E4d6CHRGQEPa_HV-421" value="" style="ellipse;whiteSpace=wrap;html=1;aspect=fixed;fillColor=#e1d5e7;strokeColor=#9673a6;" vertex="1" parent="1">
          <mxGeometry x="1860" y="240" width="40" height="40" as="geometry" />
        </mxCell>
        <mxCell id="CcgA9E4d6CHRGQEPa_HV-422" value="" style="ellipse;whiteSpace=wrap;html=1;aspect=fixed;fillColor=#e1d5e7;strokeColor=#9673a6;" vertex="1" parent="1">
          <mxGeometry x="1900" y="240" width="40" height="40" as="geometry" />
        </mxCell>
        <mxCell id="CcgA9E4d6CHRGQEPa_HV-423" value="" style="ellipse;whiteSpace=wrap;html=1;aspect=fixed;" vertex="1" parent="1">
          <mxGeometry x="1760" y="280" width="40" height="40" as="geometry" />
        </mxCell>
        <mxCell id="CcgA9E4d6CHRGQEPa_HV-424" value="" style="ellipse;whiteSpace=wrap;html=1;aspect=fixed;" vertex="1" parent="1">
          <mxGeometry x="1720" y="280" width="40" height="40" as="geometry" />
        </mxCell>
        <mxCell id="CcgA9E4d6CHRGQEPa_HV-425" value="" style="ellipse;whiteSpace=wrap;html=1;aspect=fixed;" vertex="1" parent="1">
          <mxGeometry x="1800" y="280" width="40" height="40" as="geometry" />
        </mxCell>
        <mxCell id="CcgA9E4d6CHRGQEPa_HV-426" value="" style="ellipse;whiteSpace=wrap;html=1;aspect=fixed;" vertex="1" parent="1">
          <mxGeometry x="1680" y="280" width="40" height="40" as="geometry" />
        </mxCell>
        <mxCell id="CcgA9E4d6CHRGQEPa_HV-427" value="" style="ellipse;whiteSpace=wrap;html=1;aspect=fixed;" vertex="1" parent="1">
          <mxGeometry x="1840" y="280" width="40" height="40" as="geometry" />
        </mxCell>
        <mxCell id="CcgA9E4d6CHRGQEPa_HV-428" value="" style="ellipse;whiteSpace=wrap;html=1;aspect=fixed;" vertex="1" parent="1">
          <mxGeometry x="1880" y="280" width="40" height="40" as="geometry" />
        </mxCell>
        <mxCell id="CcgA9E4d6CHRGQEPa_HV-429" value="" style="ellipse;whiteSpace=wrap;html=1;aspect=fixed;" vertex="1" parent="1">
          <mxGeometry x="1734" y="320" width="40" height="40" as="geometry" />
        </mxCell>
        <mxCell id="CcgA9E4d6CHRGQEPa_HV-430" value="" style="ellipse;whiteSpace=wrap;html=1;aspect=fixed;" vertex="1" parent="1">
          <mxGeometry x="1694" y="320" width="40" height="40" as="geometry" />
        </mxCell>
        <mxCell id="CcgA9E4d6CHRGQEPa_HV-431" value="" style="ellipse;whiteSpace=wrap;html=1;aspect=fixed;" vertex="1" parent="1">
          <mxGeometry x="1774" y="320" width="40" height="40" as="geometry" />
        </mxCell>
        <mxCell id="CcgA9E4d6CHRGQEPa_HV-432" value="" style="ellipse;whiteSpace=wrap;html=1;aspect=fixed;direction=south;" vertex="1" parent="1">
          <mxGeometry x="1654" y="320" width="40" height="40" as="geometry" />
        </mxCell>
        <mxCell id="CcgA9E4d6CHRGQEPa_HV-433" value="" style="ellipse;whiteSpace=wrap;html=1;aspect=fixed;" vertex="1" parent="1">
          <mxGeometry x="1814" y="320" width="40" height="40" as="geometry" />
        </mxCell>
        <mxCell id="CcgA9E4d6CHRGQEPa_HV-434" value="" style="ellipse;whiteSpace=wrap;html=1;aspect=fixed;" vertex="1" parent="1">
          <mxGeometry x="1854" y="320" width="40" height="40" as="geometry" />
        </mxCell>
        <mxCell id="CcgA9E4d6CHRGQEPa_HV-435" value="" style="ellipse;whiteSpace=wrap;html=1;aspect=fixed;fillColor=#e1d5e7;strokeColor=#9673a6;" vertex="1" parent="1">
          <mxGeometry x="1980" y="160" width="40" height="40" as="geometry" />
        </mxCell>
        <mxCell id="CcgA9E4d6CHRGQEPa_HV-436" value="" style="ellipse;whiteSpace=wrap;html=1;aspect=fixed;fillColor=#e1d5e7;strokeColor=#9673a6;" vertex="1" parent="1">
          <mxGeometry x="1960" y="200" width="40" height="40" as="geometry" />
        </mxCell>
        <mxCell id="CcgA9E4d6CHRGQEPa_HV-437" value="" style="ellipse;whiteSpace=wrap;html=1;aspect=fixed;fillColor=#e1d5e7;strokeColor=#9673a6;" vertex="1" parent="1">
          <mxGeometry x="2000" y="200" width="40" height="40" as="geometry" />
        </mxCell>
        <mxCell id="CcgA9E4d6CHRGQEPa_HV-438" value="" style="ellipse;whiteSpace=wrap;html=1;aspect=fixed;fillColor=#e1d5e7;strokeColor=#9673a6;" vertex="1" parent="1">
          <mxGeometry x="1940" y="240" width="40" height="40" as="geometry" />
        </mxCell>
        <mxCell id="CcgA9E4d6CHRGQEPa_HV-439" value="" style="ellipse;whiteSpace=wrap;html=1;aspect=fixed;" vertex="1" parent="1">
          <mxGeometry x="1980" y="240" width="40" height="40" as="geometry" />
        </mxCell>
        <mxCell id="CcgA9E4d6CHRGQEPa_HV-440" value="" style="ellipse;whiteSpace=wrap;html=1;aspect=fixed;" vertex="1" parent="1">
          <mxGeometry x="2020" y="240" width="40" height="40" as="geometry" />
        </mxCell>
        <mxCell id="CcgA9E4d6CHRGQEPa_HV-441" value="" style="ellipse;whiteSpace=wrap;html=1;aspect=fixed;" vertex="1" parent="1">
          <mxGeometry x="1920" y="280" width="40" height="40" as="geometry" />
        </mxCell>
        <mxCell id="CcgA9E4d6CHRGQEPa_HV-442" value="" style="ellipse;whiteSpace=wrap;html=1;aspect=fixed;" vertex="1" parent="1">
          <mxGeometry x="1960" y="280" width="40" height="40" as="geometry" />
        </mxCell>
        <mxCell id="CcgA9E4d6CHRGQEPa_HV-443" value="" style="ellipse;whiteSpace=wrap;html=1;aspect=fixed;" vertex="1" parent="1">
          <mxGeometry x="2000" y="280" width="40" height="40" as="geometry" />
        </mxCell>
        <mxCell id="CcgA9E4d6CHRGQEPa_HV-444" value="" style="ellipse;whiteSpace=wrap;html=1;aspect=fixed;" vertex="1" parent="1">
          <mxGeometry x="2040" y="280" width="40" height="40" as="geometry" />
        </mxCell>
        <mxCell id="CcgA9E4d6CHRGQEPa_HV-445" value="" style="ellipse;whiteSpace=wrap;html=1;aspect=fixed;" vertex="1" parent="1">
          <mxGeometry x="1894" y="320" width="40" height="40" as="geometry" />
        </mxCell>
        <mxCell id="CcgA9E4d6CHRGQEPa_HV-446" value="" style="ellipse;whiteSpace=wrap;html=1;aspect=fixed;" vertex="1" parent="1">
          <mxGeometry x="1934" y="320" width="40" height="40" as="geometry" />
        </mxCell>
        <mxCell id="CcgA9E4d6CHRGQEPa_HV-447" value="" style="ellipse;whiteSpace=wrap;html=1;aspect=fixed;" vertex="1" parent="1">
          <mxGeometry x="1974" y="320" width="40" height="40" as="geometry" />
        </mxCell>
        <mxCell id="CcgA9E4d6CHRGQEPa_HV-448" value="" style="ellipse;whiteSpace=wrap;html=1;aspect=fixed;" vertex="1" parent="1">
          <mxGeometry x="2014" y="320" width="40" height="40" as="geometry" />
        </mxCell>
        <mxCell id="CcgA9E4d6CHRGQEPa_HV-449" value="" style="ellipse;whiteSpace=wrap;html=1;aspect=fixed;" vertex="1" parent="1">
          <mxGeometry x="2054" y="320" width="40" height="40" as="geometry" />
        </mxCell>
        <mxCell id="CcgA9E4d6CHRGQEPa_HV-450" value="" style="ellipse;whiteSpace=wrap;html=1;aspect=fixed;" vertex="1" parent="1">
          <mxGeometry x="1760" y="360" width="40" height="40" as="geometry" />
        </mxCell>
        <mxCell id="CcgA9E4d6CHRGQEPa_HV-451" value="" style="ellipse;whiteSpace=wrap;html=1;aspect=fixed;" vertex="1" parent="1">
          <mxGeometry x="1720" y="360" width="40" height="40" as="geometry" />
        </mxCell>
        <mxCell id="CcgA9E4d6CHRGQEPa_HV-452" value="" style="ellipse;whiteSpace=wrap;html=1;aspect=fixed;" vertex="1" parent="1">
          <mxGeometry x="1800" y="360" width="40" height="40" as="geometry" />
        </mxCell>
        <mxCell id="CcgA9E4d6CHRGQEPa_HV-453" value="" style="ellipse;whiteSpace=wrap;html=1;aspect=fixed;" vertex="1" parent="1">
          <mxGeometry x="1680" y="360" width="40" height="40" as="geometry" />
        </mxCell>
        <mxCell id="CcgA9E4d6CHRGQEPa_HV-454" value="" style="ellipse;whiteSpace=wrap;html=1;aspect=fixed;" vertex="1" parent="1">
          <mxGeometry x="1840" y="360" width="40" height="40" as="geometry" />
        </mxCell>
        <mxCell id="CcgA9E4d6CHRGQEPa_HV-455" value="" style="ellipse;whiteSpace=wrap;html=1;aspect=fixed;" vertex="1" parent="1">
          <mxGeometry x="1880" y="360" width="40" height="40" as="geometry" />
        </mxCell>
        <mxCell id="CcgA9E4d6CHRGQEPa_HV-456" value="" style="ellipse;whiteSpace=wrap;html=1;aspect=fixed;" vertex="1" parent="1">
          <mxGeometry x="1920" y="360" width="40" height="40" as="geometry" />
        </mxCell>
        <mxCell id="CcgA9E4d6CHRGQEPa_HV-457" value="" style="ellipse;whiteSpace=wrap;html=1;aspect=fixed;" vertex="1" parent="1">
          <mxGeometry x="1960" y="360" width="40" height="40" as="geometry" />
        </mxCell>
        <mxCell id="CcgA9E4d6CHRGQEPa_HV-458" value="" style="ellipse;whiteSpace=wrap;html=1;aspect=fixed;" vertex="1" parent="1">
          <mxGeometry x="2000" y="360" width="40" height="40" as="geometry" />
        </mxCell>
        <mxCell id="CcgA9E4d6CHRGQEPa_HV-459" value="" style="ellipse;whiteSpace=wrap;html=1;aspect=fixed;" vertex="1" parent="1">
          <mxGeometry x="2040" y="360" width="40" height="40" as="geometry" />
        </mxCell>
        <mxCell id="CcgA9E4d6CHRGQEPa_HV-460" value="" style="ellipse;whiteSpace=wrap;html=1;aspect=fixed;fillColor=#f8cecc;strokeColor=#b85450;" vertex="1" parent="1">
          <mxGeometry x="1780" y="400" width="40" height="40" as="geometry" />
        </mxCell>
        <mxCell id="CcgA9E4d6CHRGQEPa_HV-461" value="" style="ellipse;whiteSpace=wrap;html=1;aspect=fixed;" vertex="1" parent="1">
          <mxGeometry x="1740" y="400" width="40" height="40" as="geometry" />
        </mxCell>
        <mxCell id="CcgA9E4d6CHRGQEPa_HV-462" value="" style="ellipse;whiteSpace=wrap;html=1;aspect=fixed;fillColor=#f8cecc;strokeColor=#b85450;" vertex="1" parent="1">
          <mxGeometry x="1820" y="400" width="40" height="40" as="geometry" />
        </mxCell>
        <mxCell id="CcgA9E4d6CHRGQEPa_HV-463" value="" style="ellipse;whiteSpace=wrap;html=1;aspect=fixed;" vertex="1" parent="1">
          <mxGeometry x="1700" y="400" width="40" height="40" as="geometry" />
        </mxCell>
        <mxCell id="CcgA9E4d6CHRGQEPa_HV-464" value="" style="ellipse;whiteSpace=wrap;html=1;aspect=fixed;fillColor=#f8cecc;strokeColor=#b85450;" vertex="1" parent="1">
          <mxGeometry x="1860" y="400" width="40" height="40" as="geometry" />
        </mxCell>
        <mxCell id="CcgA9E4d6CHRGQEPa_HV-465" value="" style="ellipse;whiteSpace=wrap;html=1;aspect=fixed;fillColor=#f8cecc;strokeColor=#b85450;" vertex="1" parent="1">
          <mxGeometry x="1900" y="400" width="40" height="40" as="geometry" />
        </mxCell>
        <mxCell id="CcgA9E4d6CHRGQEPa_HV-466" value="" style="ellipse;whiteSpace=wrap;html=1;aspect=fixed;fillColor=#f8cecc;strokeColor=#b85450;" vertex="1" parent="1">
          <mxGeometry x="1940" y="400" width="40" height="40" as="geometry" />
        </mxCell>
        <mxCell id="CcgA9E4d6CHRGQEPa_HV-467" value="" style="ellipse;whiteSpace=wrap;html=1;aspect=fixed;" vertex="1" parent="1">
          <mxGeometry x="1980" y="400" width="40" height="40" as="geometry" />
        </mxCell>
        <mxCell id="CcgA9E4d6CHRGQEPa_HV-468" value="" style="ellipse;whiteSpace=wrap;html=1;aspect=fixed;" vertex="1" parent="1">
          <mxGeometry x="2020" y="400" width="40" height="40" as="geometry" />
        </mxCell>
        <mxCell id="CcgA9E4d6CHRGQEPa_HV-469" value="" style="ellipse;whiteSpace=wrap;html=1;aspect=fixed;fillColor=#f8cecc;strokeColor=#b85450;" vertex="1" parent="1">
          <mxGeometry x="1800" y="440" width="40" height="40" as="geometry" />
        </mxCell>
        <mxCell id="CcgA9E4d6CHRGQEPa_HV-470" value="" style="ellipse;whiteSpace=wrap;html=1;aspect=fixed;fillColor=#f8cecc;strokeColor=#b85450;" vertex="1" parent="1">
          <mxGeometry x="1760" y="440" width="40" height="40" as="geometry" />
        </mxCell>
        <mxCell id="CcgA9E4d6CHRGQEPa_HV-471" value="" style="ellipse;whiteSpace=wrap;html=1;aspect=fixed;fillColor=#f8cecc;strokeColor=#b85450;" vertex="1" parent="1">
          <mxGeometry x="1840" y="440" width="40" height="40" as="geometry" />
        </mxCell>
        <mxCell id="CcgA9E4d6CHRGQEPa_HV-472" value="" style="ellipse;whiteSpace=wrap;html=1;aspect=fixed;direction=south;fillColor=#f8cecc;strokeColor=#b85450;" vertex="1" parent="1">
          <mxGeometry x="1720" y="440" width="40" height="40" as="geometry" />
        </mxCell>
        <mxCell id="CcgA9E4d6CHRGQEPa_HV-473" value="" style="ellipse;whiteSpace=wrap;html=1;aspect=fixed;fillColor=#f8cecc;strokeColor=#b85450;" vertex="1" parent="1">
          <mxGeometry x="1880" y="440" width="40" height="40" as="geometry" />
        </mxCell>
        <mxCell id="CcgA9E4d6CHRGQEPa_HV-474" value="" style="ellipse;whiteSpace=wrap;html=1;aspect=fixed;fillColor=#f8cecc;strokeColor=#b85450;" vertex="1" parent="1">
          <mxGeometry x="1920" y="440" width="40" height="40" as="geometry" />
        </mxCell>
        <mxCell id="CcgA9E4d6CHRGQEPa_HV-475" value="" style="ellipse;whiteSpace=wrap;html=1;aspect=fixed;fillColor=#f8cecc;strokeColor=#b85450;" vertex="1" parent="1">
          <mxGeometry x="1960" y="440" width="40" height="40" as="geometry" />
        </mxCell>
        <mxCell id="CcgA9E4d6CHRGQEPa_HV-476" value="" style="ellipse;whiteSpace=wrap;html=1;aspect=fixed;fillColor=#f8cecc;strokeColor=#b85450;" vertex="1" parent="1">
          <mxGeometry x="2000" y="440" width="40" height="40" as="geometry" />
        </mxCell>
        <mxCell id="CcgA9E4d6CHRGQEPa_HV-477" value="" style="ellipse;whiteSpace=wrap;html=1;aspect=fixed;fillColor=#f8cecc;strokeColor=#b85450;" vertex="1" parent="1">
          <mxGeometry x="1820" y="480" width="40" height="40" as="geometry" />
        </mxCell>
        <mxCell id="CcgA9E4d6CHRGQEPa_HV-478" value="" style="ellipse;whiteSpace=wrap;html=1;aspect=fixed;fillColor=#f8cecc;strokeColor=#b85450;" vertex="1" parent="1">
          <mxGeometry x="1780" y="480" width="40" height="40" as="geometry" />
        </mxCell>
        <mxCell id="CcgA9E4d6CHRGQEPa_HV-479" value="" style="ellipse;whiteSpace=wrap;html=1;aspect=fixed;fillColor=#f8cecc;strokeColor=#b85450;" vertex="1" parent="1">
          <mxGeometry x="1860" y="480" width="40" height="40" as="geometry" />
        </mxCell>
        <mxCell id="CcgA9E4d6CHRGQEPa_HV-480" value="" style="ellipse;whiteSpace=wrap;html=1;aspect=fixed;fillColor=#f8cecc;strokeColor=#b85450;" vertex="1" parent="1">
          <mxGeometry x="1740" y="480" width="40" height="40" as="geometry" />
        </mxCell>
        <mxCell id="CcgA9E4d6CHRGQEPa_HV-481" value="" style="ellipse;whiteSpace=wrap;html=1;aspect=fixed;fillColor=#f8cecc;strokeColor=#b85450;" vertex="1" parent="1">
          <mxGeometry x="1900" y="480" width="40" height="40" as="geometry" />
        </mxCell>
        <mxCell id="CcgA9E4d6CHRGQEPa_HV-482" value="" style="ellipse;whiteSpace=wrap;html=1;aspect=fixed;fillColor=#f8cecc;strokeColor=#b85450;" vertex="1" parent="1">
          <mxGeometry x="1940" y="480" width="40" height="40" as="geometry" />
        </mxCell>
        <mxCell id="CcgA9E4d6CHRGQEPa_HV-483" value="" style="ellipse;whiteSpace=wrap;html=1;aspect=fixed;fillColor=#f8cecc;strokeColor=#b85450;" vertex="1" parent="1">
          <mxGeometry x="1980" y="480" width="40" height="40" as="geometry" />
        </mxCell>
        <mxCell id="CcgA9E4d6CHRGQEPa_HV-484" value="" style="ellipse;whiteSpace=wrap;html=1;aspect=fixed;fillColor=#f8cecc;strokeColor=#b85450;" vertex="1" parent="1">
          <mxGeometry x="1840" y="520" width="40" height="40" as="geometry" />
        </mxCell>
        <mxCell id="CcgA9E4d6CHRGQEPa_HV-485" value="" style="ellipse;whiteSpace=wrap;html=1;aspect=fixed;fillColor=#f8cecc;strokeColor=#b85450;" vertex="1" parent="1">
          <mxGeometry x="1800" y="520" width="40" height="40" as="geometry" />
        </mxCell>
        <mxCell id="CcgA9E4d6CHRGQEPa_HV-486" value="" style="ellipse;whiteSpace=wrap;html=1;aspect=fixed;fillColor=#f8cecc;strokeColor=#b85450;" vertex="1" parent="1">
          <mxGeometry x="1880" y="520" width="40" height="40" as="geometry" />
        </mxCell>
        <mxCell id="CcgA9E4d6CHRGQEPa_HV-487" value="" style="ellipse;whiteSpace=wrap;html=1;aspect=fixed;fillColor=#f8cecc;strokeColor=#b85450;" vertex="1" parent="1">
          <mxGeometry x="1760" y="520" width="40" height="40" as="geometry" />
        </mxCell>
        <mxCell id="CcgA9E4d6CHRGQEPa_HV-488" value="" style="ellipse;whiteSpace=wrap;html=1;aspect=fixed;fillColor=#f8cecc;strokeColor=#b85450;" vertex="1" parent="1">
          <mxGeometry x="1920" y="520" width="40" height="40" as="geometry" />
        </mxCell>
        <mxCell id="CcgA9E4d6CHRGQEPa_HV-489" value="" style="ellipse;whiteSpace=wrap;html=1;aspect=fixed;fillColor=#f8cecc;strokeColor=#b85450;" vertex="1" parent="1">
          <mxGeometry x="1960" y="520" width="40" height="40" as="geometry" />
        </mxCell>
        <mxCell id="CcgA9E4d6CHRGQEPa_HV-490" value="" style="whiteSpace=wrap;html=1;aspect=fixed;strokeColor=default;align=center;verticalAlign=middle;fontFamily=Helvetica;fontSize=12;fontColor=default;fillColor=light-dark(#FFFFFF,#A680B8);" vertex="1" parent="1">
          <mxGeometry x="1760" y="640" width="40" height="40" as="geometry" />
        </mxCell>
        <mxCell id="CcgA9E4d6CHRGQEPa_HV-491" value="" style="whiteSpace=wrap;html=1;aspect=fixed;strokeColor=default;align=center;verticalAlign=middle;fontFamily=Helvetica;fontSize=12;fontColor=default;fillColor=light-dark(#FFFFFF,#A680B8);" vertex="1" parent="1">
          <mxGeometry x="1800" y="640" width="40" height="40" as="geometry" />
        </mxCell>
        <mxCell id="CcgA9E4d6CHRGQEPa_HV-492" value="" style="whiteSpace=wrap;html=1;aspect=fixed;strokeColor=default;align=center;verticalAlign=middle;fontFamily=Helvetica;fontSize=12;fontColor=default;fillColor=light-dark(#FFFFFF,#A680B8);" vertex="1" parent="1">
          <mxGeometry x="1840" y="640" width="40" height="40" as="geometry" />
        </mxCell>
        <mxCell id="CcgA9E4d6CHRGQEPa_HV-493" value="" style="whiteSpace=wrap;html=1;aspect=fixed;fillColor=#e1d5e7;strokeColor=#9673a6;" vertex="1" parent="1">
          <mxGeometry x="1880" y="640" width="40" height="40" as="geometry" />
        </mxCell>
        <mxCell id="CcgA9E4d6CHRGQEPa_HV-494" value="" style="whiteSpace=wrap;html=1;aspect=fixed;fillColor=#e1d5e7;strokeColor=#9673a6;" vertex="1" parent="1">
          <mxGeometry x="1920" y="640" width="40" height="40" as="geometry" />
        </mxCell>
        <mxCell id="CcgA9E4d6CHRGQEPa_HV-495" value="" style="whiteSpace=wrap;html=1;aspect=fixed;fillColor=#e1d5e7;strokeColor=#9673a6;" vertex="1" parent="1">
          <mxGeometry x="1960" y="640" width="40" height="40" as="geometry" />
        </mxCell>
        <mxCell id="CcgA9E4d6CHRGQEPa_HV-496" value="" style="whiteSpace=wrap;html=1;aspect=fixed;fillColor=#e1d5e7;strokeColor=#9673a6;" vertex="1" parent="1">
          <mxGeometry x="2000" y="640" width="40" height="40" as="geometry" />
        </mxCell>
        <mxCell id="CcgA9E4d6CHRGQEPa_HV-497" value="" style="whiteSpace=wrap;html=1;aspect=fixed;fillColor=#e1d5e7;strokeColor=#9673a6;" vertex="1" parent="1">
          <mxGeometry x="2040" y="640" width="40" height="40" as="geometry" />
        </mxCell>
        <mxCell id="CcgA9E4d6CHRGQEPa_HV-498" value="" style="whiteSpace=wrap;html=1;aspect=fixed;fillColor=#e1d5e7;strokeColor=#9673a6;" vertex="1" parent="1">
          <mxGeometry x="2080" y="640" width="40" height="40" as="geometry" />
        </mxCell>
        <mxCell id="CcgA9E4d6CHRGQEPa_HV-499" value="" style="whiteSpace=wrap;html=1;aspect=fixed;strokeColor=default;align=center;verticalAlign=middle;fontFamily=Helvetica;fontSize=12;fontColor=default;fillColor=light-dark(#FFFFFF,#A680B8);" vertex="1" parent="1">
          <mxGeometry x="2120" y="640" width="40" height="40" as="geometry" />
        </mxCell>
        <mxCell id="CcgA9E4d6CHRGQEPa_HV-500" value="" style="whiteSpace=wrap;html=1;aspect=fixed;strokeColor=default;align=center;verticalAlign=middle;fontFamily=Helvetica;fontSize=12;fontColor=default;fillColor=light-dark(#FFFFFF,#A680B8);" vertex="1" parent="1">
          <mxGeometry x="2160" y="640" width="40" height="40" as="geometry" />
        </mxCell>
        <mxCell id="CcgA9E4d6CHRGQEPa_HV-502" value="" style="whiteSpace=wrap;html=1;aspect=fixed;strokeColor=default;align=center;verticalAlign=middle;fontFamily=Helvetica;fontSize=12;fontColor=default;fillColor=light-dark(#FFFFFF,#A680B8);" vertex="1" parent="1">
          <mxGeometry x="1760" y="720" width="40" height="40" as="geometry" />
        </mxCell>
        <mxCell id="CcgA9E4d6CHRGQEPa_HV-503" value="" style="whiteSpace=wrap;html=1;aspect=fixed;strokeColor=default;align=center;verticalAlign=middle;fontFamily=Helvetica;fontSize=12;fontColor=default;fillColor=light-dark(#FFFFFF,#A680B8);" vertex="1" parent="1">
          <mxGeometry x="1800" y="720" width="40" height="40" as="geometry" />
        </mxCell>
        <mxCell id="CcgA9E4d6CHRGQEPa_HV-504" value="" style="whiteSpace=wrap;html=1;aspect=fixed;fillColor=#e1d5e7;strokeColor=#9673a6;" vertex="1" parent="1">
          <mxGeometry x="1840" y="720" width="40" height="40" as="geometry" />
        </mxCell>
        <mxCell id="CcgA9E4d6CHRGQEPa_HV-505" value="" style="whiteSpace=wrap;html=1;aspect=fixed;fillColor=#e1d5e7;strokeColor=#9673a6;" vertex="1" parent="1">
          <mxGeometry x="1880" y="720" width="40" height="40" as="geometry" />
        </mxCell>
        <mxCell id="CcgA9E4d6CHRGQEPa_HV-506" value="" style="whiteSpace=wrap;html=1;aspect=fixed;fillColor=#e1d5e7;strokeColor=#9673a6;" vertex="1" parent="1">
          <mxGeometry x="1920" y="720" width="40" height="40" as="geometry" />
        </mxCell>
        <mxCell id="CcgA9E4d6CHRGQEPa_HV-507" value="" style="whiteSpace=wrap;html=1;aspect=fixed;fillColor=#e1d5e7;strokeColor=#9673a6;" vertex="1" parent="1">
          <mxGeometry x="1960" y="720" width="40" height="40" as="geometry" />
        </mxCell>
        <mxCell id="CcgA9E4d6CHRGQEPa_HV-508" value="" style="whiteSpace=wrap;html=1;aspect=fixed;fillColor=#e1d5e7;strokeColor=#9673a6;" vertex="1" parent="1">
          <mxGeometry x="2000" y="720" width="40" height="40" as="geometry" />
        </mxCell>
        <mxCell id="CcgA9E4d6CHRGQEPa_HV-509" value="" style="whiteSpace=wrap;html=1;aspect=fixed;fillColor=#e1d5e7;strokeColor=#9673a6;" vertex="1" parent="1">
          <mxGeometry x="2040" y="720" width="40" height="40" as="geometry" />
        </mxCell>
        <mxCell id="CcgA9E4d6CHRGQEPa_HV-510" value="" style="whiteSpace=wrap;html=1;aspect=fixed;fillColor=#e1d5e7;strokeColor=#9673a6;" vertex="1" parent="1">
          <mxGeometry x="2080" y="720" width="40" height="40" as="geometry" />
        </mxCell>
        <mxCell id="CcgA9E4d6CHRGQEPa_HV-511" value="" style="whiteSpace=wrap;html=1;aspect=fixed;fillColor=#e1d5e7;strokeColor=#9673a6;" vertex="1" parent="1">
          <mxGeometry x="2120" y="720" width="40" height="40" as="geometry" />
        </mxCell>
        <mxCell id="CcgA9E4d6CHRGQEPa_HV-512" value="" style="whiteSpace=wrap;html=1;aspect=fixed;strokeColor=default;align=center;verticalAlign=middle;fontFamily=Helvetica;fontSize=12;fontColor=default;fillColor=light-dark(#FFFFFF,#A680B8);" vertex="1" parent="1">
          <mxGeometry x="2160" y="720" width="40" height="40" as="geometry" />
        </mxCell>
        <mxCell id="CcgA9E4d6CHRGQEPa_HV-513" value="" style="whiteSpace=wrap;html=1;aspect=fixed;strokeColor=default;align=center;verticalAlign=middle;fontFamily=Helvetica;fontSize=12;fontColor=default;fillColor=light-dark(#FFFFFF,#A680B8);" vertex="1" parent="1">
          <mxGeometry x="1760" y="800" width="40" height="40" as="geometry" />
        </mxCell>
        <mxCell id="CcgA9E4d6CHRGQEPa_HV-514" value="" style="whiteSpace=wrap;html=1;aspect=fixed;" vertex="1" parent="1">
          <mxGeometry x="1800" y="800" width="40" height="40" as="geometry" />
        </mxCell>
        <mxCell id="CcgA9E4d6CHRGQEPa_HV-515" value="" style="whiteSpace=wrap;html=1;aspect=fixed;" vertex="1" parent="1">
          <mxGeometry x="1840" y="800" width="40" height="40" as="geometry" />
        </mxCell>
        <mxCell id="CcgA9E4d6CHRGQEPa_HV-516" value="" style="whiteSpace=wrap;html=1;aspect=fixed;" vertex="1" parent="1">
          <mxGeometry x="1880" y="800" width="40" height="40" as="geometry" />
        </mxCell>
        <mxCell id="CcgA9E4d6CHRGQEPa_HV-517" value="" style="whiteSpace=wrap;html=1;aspect=fixed;" vertex="1" parent="1">
          <mxGeometry x="1920" y="800" width="40" height="40" as="geometry" />
        </mxCell>
        <mxCell id="CcgA9E4d6CHRGQEPa_HV-518" value="" style="whiteSpace=wrap;html=1;aspect=fixed;" vertex="1" parent="1">
          <mxGeometry x="1960" y="800" width="40" height="40" as="geometry" />
        </mxCell>
        <mxCell id="CcgA9E4d6CHRGQEPa_HV-519" value="" style="whiteSpace=wrap;html=1;aspect=fixed;" vertex="1" parent="1">
          <mxGeometry x="2000" y="800" width="40" height="40" as="geometry" />
        </mxCell>
        <mxCell id="CcgA9E4d6CHRGQEPa_HV-520" value="" style="whiteSpace=wrap;html=1;aspect=fixed;" vertex="1" parent="1">
          <mxGeometry x="2040" y="800" width="40" height="40" as="geometry" />
        </mxCell>
        <mxCell id="CcgA9E4d6CHRGQEPa_HV-521" value="" style="whiteSpace=wrap;html=1;aspect=fixed;" vertex="1" parent="1">
          <mxGeometry x="2080" y="800" width="40" height="40" as="geometry" />
        </mxCell>
        <mxCell id="CcgA9E4d6CHRGQEPa_HV-522" value="" style="whiteSpace=wrap;html=1;aspect=fixed;" vertex="1" parent="1">
          <mxGeometry x="2120" y="800" width="40" height="40" as="geometry" />
        </mxCell>
        <mxCell id="CcgA9E4d6CHRGQEPa_HV-523" value="" style="whiteSpace=wrap;html=1;aspect=fixed;" vertex="1" parent="1">
          <mxGeometry x="2160" y="800" width="40" height="40" as="geometry" />
        </mxCell>
        <mxCell id="CcgA9E4d6CHRGQEPa_HV-524" value="" style="whiteSpace=wrap;html=1;aspect=fixed;strokeColor=default;align=center;verticalAlign=middle;fontFamily=Helvetica;fontSize=12;fontColor=default;fillColor=light-dark(#FFFFFF,#A680B8);" vertex="1" parent="1">
          <mxGeometry x="1760" y="880" width="40" height="40" as="geometry" />
        </mxCell>
        <mxCell id="CcgA9E4d6CHRGQEPa_HV-525" value="" style="whiteSpace=wrap;html=1;aspect=fixed;" vertex="1" parent="1">
          <mxGeometry x="1800" y="880" width="40" height="40" as="geometry" />
        </mxCell>
        <mxCell id="CcgA9E4d6CHRGQEPa_HV-526" value="" style="whiteSpace=wrap;html=1;aspect=fixed;" vertex="1" parent="1">
          <mxGeometry x="1840" y="880" width="40" height="40" as="geometry" />
        </mxCell>
        <mxCell id="CcgA9E4d6CHRGQEPa_HV-527" value="" style="whiteSpace=wrap;html=1;aspect=fixed;" vertex="1" parent="1">
          <mxGeometry x="1880" y="880" width="40" height="40" as="geometry" />
        </mxCell>
        <mxCell id="CcgA9E4d6CHRGQEPa_HV-528" value="" style="whiteSpace=wrap;html=1;aspect=fixed;" vertex="1" parent="1">
          <mxGeometry x="1920" y="880" width="40" height="40" as="geometry" />
        </mxCell>
        <mxCell id="CcgA9E4d6CHRGQEPa_HV-529" value="" style="whiteSpace=wrap;html=1;aspect=fixed;" vertex="1" parent="1">
          <mxGeometry x="1960" y="880" width="40" height="40" as="geometry" />
        </mxCell>
        <mxCell id="CcgA9E4d6CHRGQEPa_HV-530" value="" style="whiteSpace=wrap;html=1;aspect=fixed;" vertex="1" parent="1">
          <mxGeometry x="2000" y="880" width="40" height="40" as="geometry" />
        </mxCell>
        <mxCell id="CcgA9E4d6CHRGQEPa_HV-531" value="" style="whiteSpace=wrap;html=1;aspect=fixed;" vertex="1" parent="1">
          <mxGeometry x="2040" y="880" width="40" height="40" as="geometry" />
        </mxCell>
        <mxCell id="CcgA9E4d6CHRGQEPa_HV-532" value="" style="whiteSpace=wrap;html=1;aspect=fixed;" vertex="1" parent="1">
          <mxGeometry x="2080" y="880" width="40" height="40" as="geometry" />
        </mxCell>
        <mxCell id="CcgA9E4d6CHRGQEPa_HV-533" value="" style="whiteSpace=wrap;html=1;aspect=fixed;" vertex="1" parent="1">
          <mxGeometry x="2120" y="880" width="40" height="40" as="geometry" />
        </mxCell>
        <mxCell id="CcgA9E4d6CHRGQEPa_HV-534" value="" style="whiteSpace=wrap;html=1;aspect=fixed;" vertex="1" parent="1">
          <mxGeometry x="2160" y="880" width="40" height="40" as="geometry" />
        </mxCell>
        <mxCell id="CcgA9E4d6CHRGQEPa_HV-535" value="" style="whiteSpace=wrap;html=1;aspect=fixed;strokeColor=default;align=center;verticalAlign=middle;fontFamily=Helvetica;fontSize=12;fontColor=default;fillColor=light-dark(#FFFFFF,#A680B8);" vertex="1" parent="1">
          <mxGeometry x="1780" y="680" width="40" height="40" as="geometry" />
        </mxCell>
        <mxCell id="CcgA9E4d6CHRGQEPa_HV-536" value="" style="whiteSpace=wrap;html=1;aspect=fixed;strokeColor=default;align=center;verticalAlign=middle;fontFamily=Helvetica;fontSize=12;fontColor=default;fillColor=light-dark(#FFFFFF,#A680B8);" vertex="1" parent="1">
          <mxGeometry x="1820" y="680" width="40" height="40" as="geometry" />
        </mxCell>
        <mxCell id="CcgA9E4d6CHRGQEPa_HV-537" value="" style="whiteSpace=wrap;html=1;aspect=fixed;fillColor=#e1d5e7;strokeColor=#9673a6;" vertex="1" parent="1">
          <mxGeometry x="1860" y="680" width="40" height="40" as="geometry" />
        </mxCell>
        <mxCell id="CcgA9E4d6CHRGQEPa_HV-538" value="" style="whiteSpace=wrap;html=1;aspect=fixed;fillColor=#e1d5e7;strokeColor=#9673a6;" vertex="1" parent="1">
          <mxGeometry x="1900" y="680" width="40" height="40" as="geometry" />
        </mxCell>
        <mxCell id="CcgA9E4d6CHRGQEPa_HV-539" value="" style="whiteSpace=wrap;html=1;aspect=fixed;fillColor=#e1d5e7;strokeColor=#9673a6;" vertex="1" parent="1">
          <mxGeometry x="1940" y="680" width="40" height="40" as="geometry" />
        </mxCell>
        <mxCell id="CcgA9E4d6CHRGQEPa_HV-540" value="" style="whiteSpace=wrap;html=1;aspect=fixed;fillColor=#e1d5e7;strokeColor=#9673a6;" vertex="1" parent="1">
          <mxGeometry x="1980" y="680" width="40" height="40" as="geometry" />
        </mxCell>
        <mxCell id="CcgA9E4d6CHRGQEPa_HV-541" value="" style="whiteSpace=wrap;html=1;aspect=fixed;fillColor=#e1d5e7;strokeColor=#9673a6;" vertex="1" parent="1">
          <mxGeometry x="2020" y="680" width="40" height="40" as="geometry" />
        </mxCell>
        <mxCell id="CcgA9E4d6CHRGQEPa_HV-542" value="" style="whiteSpace=wrap;html=1;aspect=fixed;fillColor=#e1d5e7;strokeColor=#9673a6;" vertex="1" parent="1">
          <mxGeometry x="2060" y="680" width="40" height="40" as="geometry" />
        </mxCell>
        <mxCell id="CcgA9E4d6CHRGQEPa_HV-543" value="" style="whiteSpace=wrap;html=1;aspect=fixed;fillColor=#e1d5e7;strokeColor=#9673a6;" vertex="1" parent="1">
          <mxGeometry x="2100" y="680" width="40" height="40" as="geometry" />
        </mxCell>
        <mxCell id="CcgA9E4d6CHRGQEPa_HV-544" value="" style="whiteSpace=wrap;html=1;aspect=fixed;strokeColor=default;align=center;verticalAlign=middle;fontFamily=Helvetica;fontSize=12;fontColor=default;fillColor=light-dark(#FFFFFF,#A680B8);" vertex="1" parent="1">
          <mxGeometry x="2140" y="680" width="40" height="40" as="geometry" />
        </mxCell>
        <mxCell id="CcgA9E4d6CHRGQEPa_HV-545" value="" style="whiteSpace=wrap;html=1;aspect=fixed;strokeColor=default;align=center;verticalAlign=middle;fontFamily=Helvetica;fontSize=12;fontColor=default;fillColor=light-dark(#FFFFFF,#A680B8);" vertex="1" parent="1">
          <mxGeometry x="2180" y="680" width="40" height="40" as="geometry" />
        </mxCell>
        <mxCell id="CcgA9E4d6CHRGQEPa_HV-546" value="" style="whiteSpace=wrap;html=1;aspect=fixed;strokeColor=default;align=center;verticalAlign=middle;fontFamily=Helvetica;fontSize=12;fontColor=default;fillColor=light-dark(#FFFFFF,#A680B8);" vertex="1" parent="1">
          <mxGeometry x="1780" y="760" width="40" height="40" as="geometry" />
        </mxCell>
        <mxCell id="CcgA9E4d6CHRGQEPa_HV-547" value="" style="whiteSpace=wrap;html=1;aspect=fixed;" vertex="1" parent="1">
          <mxGeometry x="1820" y="760" width="40" height="40" as="geometry" />
        </mxCell>
        <mxCell id="CcgA9E4d6CHRGQEPa_HV-548" value="" style="whiteSpace=wrap;html=1;aspect=fixed;" vertex="1" parent="1">
          <mxGeometry x="1860" y="760" width="40" height="40" as="geometry" />
        </mxCell>
        <mxCell id="CcgA9E4d6CHRGQEPa_HV-549" value="" style="whiteSpace=wrap;html=1;aspect=fixed;fillColor=#e1d5e7;strokeColor=#9673a6;" vertex="1" parent="1">
          <mxGeometry x="1900" y="760" width="40" height="40" as="geometry" />
        </mxCell>
        <mxCell id="CcgA9E4d6CHRGQEPa_HV-550" value="" style="whiteSpace=wrap;html=1;aspect=fixed;fillColor=#e1d5e7;strokeColor=#9673a6;" vertex="1" parent="1">
          <mxGeometry x="1940" y="760" width="40" height="40" as="geometry" />
        </mxCell>
        <mxCell id="CcgA9E4d6CHRGQEPa_HV-551" value="" style="whiteSpace=wrap;html=1;aspect=fixed;fillColor=#e1d5e7;strokeColor=#9673a6;" vertex="1" parent="1">
          <mxGeometry x="1980" y="760" width="40" height="40" as="geometry" />
        </mxCell>
        <mxCell id="CcgA9E4d6CHRGQEPa_HV-552" value="" style="whiteSpace=wrap;html=1;aspect=fixed;fillColor=#e1d5e7;strokeColor=#9673a6;" vertex="1" parent="1">
          <mxGeometry x="2020" y="760" width="40" height="40" as="geometry" />
        </mxCell>
        <mxCell id="CcgA9E4d6CHRGQEPa_HV-553" value="" style="whiteSpace=wrap;html=1;aspect=fixed;fillColor=#e1d5e7;strokeColor=#9673a6;" vertex="1" parent="1">
          <mxGeometry x="2060" y="760" width="40" height="40" as="geometry" />
        </mxCell>
        <mxCell id="CcgA9E4d6CHRGQEPa_HV-554" value="" style="whiteSpace=wrap;html=1;aspect=fixed;" vertex="1" parent="1">
          <mxGeometry x="2100" y="760" width="40" height="40" as="geometry" />
        </mxCell>
        <mxCell id="CcgA9E4d6CHRGQEPa_HV-555" value="" style="whiteSpace=wrap;html=1;aspect=fixed;" vertex="1" parent="1">
          <mxGeometry x="2140" y="760" width="40" height="40" as="geometry" />
        </mxCell>
        <mxCell id="CcgA9E4d6CHRGQEPa_HV-556" value="" style="whiteSpace=wrap;html=1;aspect=fixed;strokeColor=default;align=center;verticalAlign=middle;fontFamily=Helvetica;fontSize=12;fontColor=default;fillColor=light-dark(#FFFFFF,#A680B8);" vertex="1" parent="1">
          <mxGeometry x="2180" y="760" width="40" height="40" as="geometry" />
        </mxCell>
        <mxCell id="CcgA9E4d6CHRGQEPa_HV-557" value="" style="whiteSpace=wrap;html=1;aspect=fixed;" vertex="1" parent="1">
          <mxGeometry x="1780" y="840" width="40" height="40" as="geometry" />
        </mxCell>
        <mxCell id="CcgA9E4d6CHRGQEPa_HV-558" value="" style="whiteSpace=wrap;html=1;aspect=fixed;" vertex="1" parent="1">
          <mxGeometry x="1820" y="840" width="40" height="40" as="geometry" />
        </mxCell>
        <mxCell id="CcgA9E4d6CHRGQEPa_HV-559" value="" style="whiteSpace=wrap;html=1;aspect=fixed;" vertex="1" parent="1">
          <mxGeometry x="1860" y="840" width="40" height="40" as="geometry" />
        </mxCell>
        <mxCell id="CcgA9E4d6CHRGQEPa_HV-560" value="" style="whiteSpace=wrap;html=1;aspect=fixed;" vertex="1" parent="1">
          <mxGeometry x="1900" y="840" width="40" height="40" as="geometry" />
        </mxCell>
        <mxCell id="CcgA9E4d6CHRGQEPa_HV-561" value="" style="whiteSpace=wrap;html=1;aspect=fixed;" vertex="1" parent="1">
          <mxGeometry x="1940" y="840" width="40" height="40" as="geometry" />
        </mxCell>
        <mxCell id="CcgA9E4d6CHRGQEPa_HV-562" value="" style="whiteSpace=wrap;html=1;aspect=fixed;fillColor=#d5e8d4;strokeColor=#82b366;" vertex="1" parent="1">
          <mxGeometry x="1980" y="840" width="40" height="40" as="geometry" />
        </mxCell>
        <mxCell id="CcgA9E4d6CHRGQEPa_HV-563" value="" style="whiteSpace=wrap;html=1;aspect=fixed;" vertex="1" parent="1">
          <mxGeometry x="2020" y="840" width="40" height="40" as="geometry" />
        </mxCell>
        <mxCell id="CcgA9E4d6CHRGQEPa_HV-564" value="" style="whiteSpace=wrap;html=1;aspect=fixed;" vertex="1" parent="1">
          <mxGeometry x="2060" y="840" width="40" height="40" as="geometry" />
        </mxCell>
        <mxCell id="CcgA9E4d6CHRGQEPa_HV-565" value="" style="whiteSpace=wrap;html=1;aspect=fixed;" vertex="1" parent="1">
          <mxGeometry x="2100" y="840" width="40" height="40" as="geometry" />
        </mxCell>
        <mxCell id="CcgA9E4d6CHRGQEPa_HV-566" value="" style="whiteSpace=wrap;html=1;aspect=fixed;" vertex="1" parent="1">
          <mxGeometry x="2140" y="840" width="40" height="40" as="geometry" />
        </mxCell>
        <mxCell id="CcgA9E4d6CHRGQEPa_HV-567" value="" style="whiteSpace=wrap;html=1;aspect=fixed;" vertex="1" parent="1">
          <mxGeometry x="2180" y="840" width="40" height="40" as="geometry" />
        </mxCell>
        <mxCell id="CcgA9E4d6CHRGQEPa_HV-568" value="" style="whiteSpace=wrap;html=1;aspect=fixed;strokeColor=default;align=center;verticalAlign=middle;fontFamily=Helvetica;fontSize=12;fontColor=default;fillColor=light-dark(#FFFFFF,#A680B8);" vertex="1" parent="1">
          <mxGeometry x="1780" y="920" width="40" height="40" as="geometry" />
        </mxCell>
        <mxCell id="CcgA9E4d6CHRGQEPa_HV-569" value="" style="whiteSpace=wrap;html=1;aspect=fixed;" vertex="1" parent="1">
          <mxGeometry x="1820" y="920" width="40" height="40" as="geometry" />
        </mxCell>
        <mxCell id="CcgA9E4d6CHRGQEPa_HV-570" value="" style="whiteSpace=wrap;html=1;aspect=fixed;" vertex="1" parent="1">
          <mxGeometry x="1860" y="920" width="40" height="40" as="geometry" />
        </mxCell>
        <mxCell id="CcgA9E4d6CHRGQEPa_HV-571" value="" style="whiteSpace=wrap;html=1;aspect=fixed;fillColor=#f8cecc;strokeColor=#b85450;" vertex="1" parent="1">
          <mxGeometry x="1900" y="920" width="40" height="40" as="geometry" />
        </mxCell>
        <mxCell id="CcgA9E4d6CHRGQEPa_HV-572" value="" style="whiteSpace=wrap;html=1;aspect=fixed;fillColor=#f8cecc;strokeColor=#b85450;" vertex="1" parent="1">
          <mxGeometry x="1940" y="920" width="40" height="40" as="geometry" />
        </mxCell>
        <mxCell id="CcgA9E4d6CHRGQEPa_HV-573" value="" style="whiteSpace=wrap;html=1;aspect=fixed;fillColor=#f8cecc;strokeColor=#b85450;" vertex="1" parent="1">
          <mxGeometry x="1980" y="920" width="40" height="40" as="geometry" />
        </mxCell>
        <mxCell id="CcgA9E4d6CHRGQEPa_HV-574" value="" style="whiteSpace=wrap;html=1;aspect=fixed;fillColor=#f8cecc;strokeColor=#b85450;" vertex="1" parent="1">
          <mxGeometry x="2020" y="920" width="40" height="40" as="geometry" />
        </mxCell>
        <mxCell id="CcgA9E4d6CHRGQEPa_HV-575" value="" style="whiteSpace=wrap;html=1;aspect=fixed;fillColor=#f8cecc;strokeColor=#b85450;" vertex="1" parent="1">
          <mxGeometry x="2060" y="920" width="40" height="40" as="geometry" />
        </mxCell>
        <mxCell id="CcgA9E4d6CHRGQEPa_HV-576" value="" style="whiteSpace=wrap;html=1;aspect=fixed;" vertex="1" parent="1">
          <mxGeometry x="2100" y="920" width="40" height="40" as="geometry" />
        </mxCell>
        <mxCell id="CcgA9E4d6CHRGQEPa_HV-577" value="" style="whiteSpace=wrap;html=1;aspect=fixed;" vertex="1" parent="1">
          <mxGeometry x="2140" y="920" width="40" height="40" as="geometry" />
        </mxCell>
        <mxCell id="CcgA9E4d6CHRGQEPa_HV-578" value="" style="whiteSpace=wrap;html=1;aspect=fixed;strokeColor=default;align=center;verticalAlign=middle;fontFamily=Helvetica;fontSize=12;fontColor=default;fillColor=light-dark(#FFFFFF,#A680B8);" vertex="1" parent="1">
          <mxGeometry x="2180" y="920" width="40" height="40" as="geometry" />
        </mxCell>
        <mxCell id="CcgA9E4d6CHRGQEPa_HV-579" value="" style="whiteSpace=wrap;html=1;aspect=fixed;strokeColor=default;align=center;verticalAlign=middle;fontFamily=Helvetica;fontSize=12;fontColor=default;fillColor=light-dark(#FFFFFF,#A680B8);" vertex="1" parent="1">
          <mxGeometry x="1760" y="960" width="40" height="40" as="geometry" />
        </mxCell>
        <mxCell id="CcgA9E4d6CHRGQEPa_HV-580" value="" style="whiteSpace=wrap;html=1;aspect=fixed;strokeColor=default;align=center;verticalAlign=middle;fontFamily=Helvetica;fontSize=12;fontColor=default;fillColor=light-dark(#FFFFFF,#A680B8);" vertex="1" parent="1">
          <mxGeometry x="1800" y="960" width="40" height="40" as="geometry" />
        </mxCell>
        <mxCell id="CcgA9E4d6CHRGQEPa_HV-581" value="" style="whiteSpace=wrap;html=1;aspect=fixed;fillColor=#f8cecc;strokeColor=#b85450;" vertex="1" parent="1">
          <mxGeometry x="1840" y="960" width="40" height="40" as="geometry" />
        </mxCell>
        <mxCell id="CcgA9E4d6CHRGQEPa_HV-582" value="" style="whiteSpace=wrap;html=1;aspect=fixed;fillColor=#f8cecc;strokeColor=#b85450;" vertex="1" parent="1">
          <mxGeometry x="1880" y="960" width="40" height="40" as="geometry" />
        </mxCell>
        <mxCell id="CcgA9E4d6CHRGQEPa_HV-583" value="" style="whiteSpace=wrap;html=1;aspect=fixed;fillColor=#f8cecc;strokeColor=#b85450;" vertex="1" parent="1">
          <mxGeometry x="1920" y="960" width="40" height="40" as="geometry" />
        </mxCell>
        <mxCell id="CcgA9E4d6CHRGQEPa_HV-584" value="" style="whiteSpace=wrap;html=1;aspect=fixed;fillColor=#f8cecc;strokeColor=#b85450;" vertex="1" parent="1">
          <mxGeometry x="1960" y="960" width="40" height="40" as="geometry" />
        </mxCell>
        <mxCell id="CcgA9E4d6CHRGQEPa_HV-585" value="" style="whiteSpace=wrap;html=1;aspect=fixed;fillColor=#f8cecc;strokeColor=#b85450;" vertex="1" parent="1">
          <mxGeometry x="2000" y="960" width="40" height="40" as="geometry" />
        </mxCell>
        <mxCell id="CcgA9E4d6CHRGQEPa_HV-586" value="" style="whiteSpace=wrap;html=1;aspect=fixed;fillColor=#f8cecc;strokeColor=#b85450;" vertex="1" parent="1">
          <mxGeometry x="2040" y="960" width="40" height="40" as="geometry" />
        </mxCell>
        <mxCell id="CcgA9E4d6CHRGQEPa_HV-587" value="" style="whiteSpace=wrap;html=1;aspect=fixed;fillColor=#f8cecc;strokeColor=#b85450;" vertex="1" parent="1">
          <mxGeometry x="2080" y="960" width="40" height="40" as="geometry" />
        </mxCell>
        <mxCell id="CcgA9E4d6CHRGQEPa_HV-588" value="" style="whiteSpace=wrap;html=1;aspect=fixed;fillColor=#f8cecc;strokeColor=#b85450;" vertex="1" parent="1">
          <mxGeometry x="2120" y="960" width="40" height="40" as="geometry" />
        </mxCell>
        <mxCell id="CcgA9E4d6CHRGQEPa_HV-589" value="" style="whiteSpace=wrap;html=1;aspect=fixed;strokeColor=default;align=center;verticalAlign=middle;fontFamily=Helvetica;fontSize=12;fontColor=default;fillColor=light-dark(#FFFFFF,#A680B8);" vertex="1" parent="1">
          <mxGeometry x="2160" y="960" width="40" height="40" as="geometry" />
        </mxCell>
        <mxCell id="CcgA9E4d6CHRGQEPa_HV-590" value="" style="whiteSpace=wrap;html=1;aspect=fixed;strokeColor=default;align=center;verticalAlign=middle;fontFamily=Helvetica;fontSize=12;fontColor=default;fillColor=light-dark(#FFFFFF,#A680B8);" vertex="1" parent="1">
          <mxGeometry x="1760" y="1040" width="40" height="40" as="geometry" />
        </mxCell>
        <mxCell id="CcgA9E4d6CHRGQEPa_HV-591" value="" style="whiteSpace=wrap;html=1;aspect=fixed;strokeColor=default;align=center;verticalAlign=middle;fontFamily=Helvetica;fontSize=12;fontColor=default;fillColor=light-dark(#FFFFFF,#A680B8);" vertex="1" parent="1">
          <mxGeometry x="1800" y="1040" width="40" height="40" as="geometry" />
        </mxCell>
        <mxCell id="CcgA9E4d6CHRGQEPa_HV-592" value="" style="whiteSpace=wrap;html=1;aspect=fixed;strokeColor=default;align=center;verticalAlign=middle;fontFamily=Helvetica;fontSize=12;fontColor=default;fillColor=light-dark(#FFFFFF,#A680B8);" vertex="1" parent="1">
          <mxGeometry x="1840" y="1040" width="40" height="40" as="geometry" />
        </mxCell>
        <mxCell id="CcgA9E4d6CHRGQEPa_HV-593" value="" style="whiteSpace=wrap;html=1;aspect=fixed;fillColor=#f8cecc;strokeColor=#b85450;" vertex="1" parent="1">
          <mxGeometry x="1880" y="1040" width="40" height="40" as="geometry" />
        </mxCell>
        <mxCell id="CcgA9E4d6CHRGQEPa_HV-594" value="" style="whiteSpace=wrap;html=1;aspect=fixed;fillColor=#f8cecc;strokeColor=#b85450;" vertex="1" parent="1">
          <mxGeometry x="1920" y="1040" width="40" height="40" as="geometry" />
        </mxCell>
        <mxCell id="CcgA9E4d6CHRGQEPa_HV-595" value="" style="whiteSpace=wrap;html=1;aspect=fixed;fillColor=#f8cecc;strokeColor=#b85450;" vertex="1" parent="1">
          <mxGeometry x="1960" y="1040" width="40" height="40" as="geometry" />
        </mxCell>
        <mxCell id="CcgA9E4d6CHRGQEPa_HV-596" value="" style="whiteSpace=wrap;html=1;aspect=fixed;fillColor=#f8cecc;strokeColor=#b85450;" vertex="1" parent="1">
          <mxGeometry x="2000" y="1040" width="40" height="40" as="geometry" />
        </mxCell>
        <mxCell id="CcgA9E4d6CHRGQEPa_HV-597" value="" style="whiteSpace=wrap;html=1;aspect=fixed;fillColor=#f8cecc;strokeColor=#b85450;" vertex="1" parent="1">
          <mxGeometry x="2040" y="1040" width="40" height="40" as="geometry" />
        </mxCell>
        <mxCell id="CcgA9E4d6CHRGQEPa_HV-598" value="" style="whiteSpace=wrap;html=1;aspect=fixed;fillColor=#f8cecc;strokeColor=#b85450;" vertex="1" parent="1">
          <mxGeometry x="2080" y="1040" width="40" height="40" as="geometry" />
        </mxCell>
        <mxCell id="CcgA9E4d6CHRGQEPa_HV-599" value="" style="whiteSpace=wrap;html=1;aspect=fixed;strokeColor=default;align=center;verticalAlign=middle;fontFamily=Helvetica;fontSize=12;fontColor=default;fillColor=light-dark(#FFFFFF,#A680B8);" vertex="1" parent="1">
          <mxGeometry x="2120" y="1040" width="40" height="40" as="geometry" />
        </mxCell>
        <mxCell id="CcgA9E4d6CHRGQEPa_HV-600" value="" style="whiteSpace=wrap;html=1;aspect=fixed;strokeColor=default;align=center;verticalAlign=middle;fontFamily=Helvetica;fontSize=12;fontColor=default;fillColor=light-dark(#FFFFFF,#A680B8);" vertex="1" parent="1">
          <mxGeometry x="2160" y="1040" width="40" height="40" as="geometry" />
        </mxCell>
        <mxCell id="CcgA9E4d6CHRGQEPa_HV-601" value="" style="whiteSpace=wrap;html=1;aspect=fixed;strokeColor=default;align=center;verticalAlign=middle;fontFamily=Helvetica;fontSize=12;fontColor=default;fillColor=light-dark(#FFFFFF,#A680B8);" vertex="1" parent="1">
          <mxGeometry x="1780" y="1000" width="40" height="40" as="geometry" />
        </mxCell>
        <mxCell id="CcgA9E4d6CHRGQEPa_HV-602" value="" style="whiteSpace=wrap;html=1;aspect=fixed;strokeColor=default;align=center;verticalAlign=middle;fontFamily=Helvetica;fontSize=12;fontColor=default;fillColor=light-dark(#FFFFFF,#A680B8);" vertex="1" parent="1">
          <mxGeometry x="1820" y="1000" width="40" height="40" as="geometry" />
        </mxCell>
        <mxCell id="CcgA9E4d6CHRGQEPa_HV-603" value="" style="whiteSpace=wrap;html=1;aspect=fixed;fillColor=#f8cecc;strokeColor=#b85450;" vertex="1" parent="1">
          <mxGeometry x="1860" y="1000" width="40" height="40" as="geometry" />
        </mxCell>
        <mxCell id="CcgA9E4d6CHRGQEPa_HV-604" value="" style="whiteSpace=wrap;html=1;aspect=fixed;fillColor=#f8cecc;strokeColor=#b85450;" vertex="1" parent="1">
          <mxGeometry x="1900" y="1000" width="40" height="40" as="geometry" />
        </mxCell>
        <mxCell id="CcgA9E4d6CHRGQEPa_HV-605" value="" style="whiteSpace=wrap;html=1;aspect=fixed;fillColor=#f8cecc;strokeColor=#b85450;" vertex="1" parent="1">
          <mxGeometry x="1940" y="1000" width="40" height="40" as="geometry" />
        </mxCell>
        <mxCell id="CcgA9E4d6CHRGQEPa_HV-606" value="" style="whiteSpace=wrap;html=1;aspect=fixed;fillColor=#f8cecc;strokeColor=#b85450;" vertex="1" parent="1">
          <mxGeometry x="1980" y="1000" width="40" height="40" as="geometry" />
        </mxCell>
        <mxCell id="CcgA9E4d6CHRGQEPa_HV-607" value="" style="whiteSpace=wrap;html=1;aspect=fixed;fillColor=#f8cecc;strokeColor=#b85450;" vertex="1" parent="1">
          <mxGeometry x="2020" y="1000" width="40" height="40" as="geometry" />
        </mxCell>
        <mxCell id="CcgA9E4d6CHRGQEPa_HV-608" value="" style="whiteSpace=wrap;html=1;aspect=fixed;fillColor=#f8cecc;strokeColor=#b85450;" vertex="1" parent="1">
          <mxGeometry x="2060" y="1000" width="40" height="40" as="geometry" />
        </mxCell>
        <mxCell id="CcgA9E4d6CHRGQEPa_HV-609" value="" style="whiteSpace=wrap;html=1;aspect=fixed;fillColor=#f8cecc;strokeColor=#b85450;" vertex="1" parent="1">
          <mxGeometry x="2100" y="1000" width="40" height="40" as="geometry" />
        </mxCell>
        <mxCell id="CcgA9E4d6CHRGQEPa_HV-610" value="" style="whiteSpace=wrap;html=1;aspect=fixed;strokeColor=default;align=center;verticalAlign=middle;fontFamily=Helvetica;fontSize=12;fontColor=default;fillColor=light-dark(#FFFFFF,#A680B8);" vertex="1" parent="1">
          <mxGeometry x="2140" y="1000" width="40" height="40" as="geometry" />
        </mxCell>
        <mxCell id="CcgA9E4d6CHRGQEPa_HV-611" value="" style="whiteSpace=wrap;html=1;aspect=fixed;strokeColor=default;align=center;verticalAlign=middle;fontFamily=Helvetica;fontSize=12;fontColor=default;fillColor=light-dark(#FFFFFF,#A680B8);" vertex="1" parent="1">
          <mxGeometry x="2180" y="1000" width="40" height="40" as="geometry" />
        </mxCell>
        <mxCell id="CcgA9E4d6CHRGQEPa_HV-624" value="0" style="whiteSpace=wrap;html=1;aspect=fixed;strokeColor=#6c8ebf;align=center;verticalAlign=middle;fontFamily=Helvetica;fontSize=12;fillColor=#dae8fc;fontStyle=1;strokeWidth=2;" vertex="1" parent="1">
          <mxGeometry x="1760" y="600" width="40" height="40" as="geometry" />
        </mxCell>
        <mxCell id="CcgA9E4d6CHRGQEPa_HV-625" value="1" style="whiteSpace=wrap;html=1;aspect=fixed;strokeColor=#6c8ebf;align=center;verticalAlign=middle;fontFamily=Helvetica;fontSize=12;fillColor=#dae8fc;fontStyle=1;strokeWidth=2;" vertex="1" parent="1">
          <mxGeometry x="1801" y="600" width="40" height="40" as="geometry" />
        </mxCell>
        <mxCell id="CcgA9E4d6CHRGQEPa_HV-626" value="2" style="whiteSpace=wrap;html=1;aspect=fixed;strokeColor=#6c8ebf;align=center;verticalAlign=middle;fontFamily=Helvetica;fontSize=12;fillColor=#dae8fc;fontStyle=1;strokeWidth=2;" vertex="1" parent="1">
          <mxGeometry x="1840" y="600" width="40" height="40" as="geometry" />
        </mxCell>
        <mxCell id="CcgA9E4d6CHRGQEPa_HV-627" value="3" style="whiteSpace=wrap;html=1;aspect=fixed;strokeColor=#6c8ebf;align=center;verticalAlign=middle;fontFamily=Helvetica;fontSize=12;fillColor=#dae8fc;fontStyle=1;strokeWidth=2;" vertex="1" parent="1">
          <mxGeometry x="1880" y="600" width="40" height="40" as="geometry" />
        </mxCell>
        <mxCell id="CcgA9E4d6CHRGQEPa_HV-628" value="4" style="whiteSpace=wrap;html=1;aspect=fixed;strokeColor=#6c8ebf;align=center;verticalAlign=middle;fontFamily=Helvetica;fontSize=12;fillColor=#dae8fc;fontStyle=1;strokeWidth=2;" vertex="1" parent="1">
          <mxGeometry x="1920" y="600" width="40" height="40" as="geometry" />
        </mxCell>
        <mxCell id="CcgA9E4d6CHRGQEPa_HV-629" value="5" style="whiteSpace=wrap;html=1;aspect=fixed;strokeColor=#6c8ebf;align=center;verticalAlign=middle;fontFamily=Helvetica;fontSize=12;fillColor=#dae8fc;fontStyle=1;strokeWidth=2;" vertex="1" parent="1">
          <mxGeometry x="1960" y="600" width="40" height="40" as="geometry" />
        </mxCell>
        <mxCell id="CcgA9E4d6CHRGQEPa_HV-630" value="6" style="whiteSpace=wrap;html=1;aspect=fixed;strokeColor=#6c8ebf;align=center;verticalAlign=middle;fontFamily=Helvetica;fontSize=12;fillColor=#dae8fc;fontStyle=1;strokeWidth=2;" vertex="1" parent="1">
          <mxGeometry x="2000" y="600" width="40" height="40" as="geometry" />
        </mxCell>
        <mxCell id="CcgA9E4d6CHRGQEPa_HV-631" value="7" style="whiteSpace=wrap;html=1;aspect=fixed;strokeColor=#6c8ebf;align=center;verticalAlign=middle;fontFamily=Helvetica;fontSize=12;fillColor=#dae8fc;fontStyle=1;strokeWidth=2;" vertex="1" parent="1">
          <mxGeometry x="2040" y="600" width="40" height="40" as="geometry" />
        </mxCell>
        <mxCell id="CcgA9E4d6CHRGQEPa_HV-632" value="8" style="whiteSpace=wrap;html=1;aspect=fixed;strokeColor=#6c8ebf;align=center;verticalAlign=middle;fontFamily=Helvetica;fontSize=12;fillColor=#dae8fc;fontStyle=1;strokeWidth=2;" vertex="1" parent="1">
          <mxGeometry x="2080" y="600" width="40" height="40" as="geometry" />
        </mxCell>
        <mxCell id="CcgA9E4d6CHRGQEPa_HV-633" value="9" style="whiteSpace=wrap;html=1;aspect=fixed;strokeColor=#6c8ebf;align=center;verticalAlign=middle;fontFamily=Helvetica;fontSize=12;fillColor=#dae8fc;fontStyle=1;strokeWidth=2;" vertex="1" parent="1">
          <mxGeometry x="2120" y="600" width="40" height="40" as="geometry" />
        </mxCell>
        <mxCell id="CcgA9E4d6CHRGQEPa_HV-634" value="10" style="whiteSpace=wrap;html=1;strokeColor=#6c8ebf;align=center;verticalAlign=middle;fontFamily=Helvetica;fontSize=12;fillColor=#dae8fc;fontStyle=1;strokeWidth=2;" vertex="1" parent="1">
          <mxGeometry x="2160" y="600" width="60" height="40" as="geometry" />
        </mxCell>
        <mxCell id="CcgA9E4d6CHRGQEPa_HV-636" value="0" style="whiteSpace=wrap;html=1;aspect=fixed;strokeColor=#6c8ebf;align=center;verticalAlign=middle;fontFamily=Helvetica;fontSize=12;fillColor=#dae8fc;fontStyle=1;strokeWidth=2;" vertex="1" parent="1">
          <mxGeometry x="1720" y="640" width="40" height="40" as="geometry" />
        </mxCell>
        <mxCell id="CcgA9E4d6CHRGQEPa_HV-637" value="1" style="whiteSpace=wrap;html=1;aspect=fixed;strokeColor=#6c8ebf;align=center;verticalAlign=middle;fontFamily=Helvetica;fontSize=12;fillColor=#dae8fc;fontStyle=1;strokeWidth=2;" vertex="1" parent="1">
          <mxGeometry x="1720" y="680" width="40" height="40" as="geometry" />
        </mxCell>
        <mxCell id="CcgA9E4d6CHRGQEPa_HV-638" value="2" style="whiteSpace=wrap;html=1;aspect=fixed;strokeColor=#6c8ebf;align=center;verticalAlign=middle;fontFamily=Helvetica;fontSize=12;fillColor=#dae8fc;fontStyle=1;strokeWidth=2;" vertex="1" parent="1">
          <mxGeometry x="1720" y="720" width="40" height="40" as="geometry" />
        </mxCell>
        <mxCell id="CcgA9E4d6CHRGQEPa_HV-639" value="3" style="whiteSpace=wrap;html=1;aspect=fixed;strokeColor=#6c8ebf;align=center;verticalAlign=middle;fontFamily=Helvetica;fontSize=12;fillColor=#dae8fc;fontStyle=1;strokeWidth=2;" vertex="1" parent="1">
          <mxGeometry x="1720" y="760" width="40" height="40" as="geometry" />
        </mxCell>
        <mxCell id="CcgA9E4d6CHRGQEPa_HV-640" value="4" style="whiteSpace=wrap;html=1;aspect=fixed;strokeColor=#6c8ebf;align=center;verticalAlign=middle;fontFamily=Helvetica;fontSize=12;fillColor=#dae8fc;fontStyle=1;strokeWidth=2;" vertex="1" parent="1">
          <mxGeometry x="1720" y="800" width="40" height="40" as="geometry" />
        </mxCell>
        <mxCell id="CcgA9E4d6CHRGQEPa_HV-642" value="3" style="whiteSpace=wrap;html=1;aspect=fixed;strokeColor=#6c8ebf;align=center;verticalAlign=middle;fontFamily=Helvetica;fontSize=12;fillColor=#dae8fc;fontStyle=1;strokeWidth=2;" vertex="1" parent="1">
          <mxGeometry x="1720" y="960" width="40" height="40" as="geometry" />
        </mxCell>
        <mxCell id="CcgA9E4d6CHRGQEPa_HV-643" value="2" style="whiteSpace=wrap;html=1;aspect=fixed;strokeColor=#6c8ebf;align=center;verticalAlign=middle;fontFamily=Helvetica;fontSize=12;fillColor=#dae8fc;fontStyle=1;strokeWidth=2;" vertex="1" parent="1">
          <mxGeometry x="1720" y="920" width="40" height="40" as="geometry" />
        </mxCell>
        <mxCell id="CcgA9E4d6CHRGQEPa_HV-644" value="1" style="whiteSpace=wrap;html=1;aspect=fixed;strokeColor=#6c8ebf;align=center;verticalAlign=middle;fontFamily=Helvetica;fontSize=12;fillColor=#dae8fc;fontStyle=1;strokeWidth=2;" vertex="1" parent="1">
          <mxGeometry x="1720" y="880" width="40" height="40" as="geometry" />
        </mxCell>
        <mxCell id="CcgA9E4d6CHRGQEPa_HV-645" value="8" style="whiteSpace=wrap;html=1;aspect=fixed;strokeColor=#6c8ebf;align=center;verticalAlign=middle;fontFamily=Helvetica;fontSize=12;fillColor=#dae8fc;fontStyle=1;strokeWidth=2;" vertex="1" parent="1">
          <mxGeometry x="1720" y="960" width="40" height="40" as="geometry" />
        </mxCell>
        <mxCell id="CcgA9E4d6CHRGQEPa_HV-646" value="7" style="whiteSpace=wrap;html=1;aspect=fixed;strokeColor=#6c8ebf;align=center;verticalAlign=middle;fontFamily=Helvetica;fontSize=12;fillColor=#dae8fc;fontStyle=1;strokeWidth=2;" vertex="1" parent="1">
          <mxGeometry x="1720" y="920" width="40" height="40" as="geometry" />
        </mxCell>
        <mxCell id="CcgA9E4d6CHRGQEPa_HV-647" value="6" style="whiteSpace=wrap;html=1;aspect=fixed;strokeColor=#6c8ebf;align=center;verticalAlign=middle;fontFamily=Helvetica;fontSize=12;fillColor=#dae8fc;fontStyle=1;strokeWidth=2;" vertex="1" parent="1">
          <mxGeometry x="1720" y="880" width="40" height="40" as="geometry" />
        </mxCell>
        <mxCell id="CcgA9E4d6CHRGQEPa_HV-648" value="5" style="whiteSpace=wrap;html=1;aspect=fixed;strokeColor=#6c8ebf;align=center;verticalAlign=middle;fontFamily=Helvetica;fontSize=12;fillColor=#dae8fc;fontStyle=1;strokeWidth=2;" vertex="1" parent="1">
          <mxGeometry x="1720" y="840" width="40" height="40" as="geometry" />
        </mxCell>
        <mxCell id="CcgA9E4d6CHRGQEPa_HV-649" value="-4" style="whiteSpace=wrap;html=1;aspect=fixed;strokeColor=#6c8ebf;align=center;verticalAlign=middle;fontFamily=Helvetica;fontSize=12;fillColor=#dae8fc;fontStyle=1;strokeWidth=2;" vertex="1" parent="1">
          <mxGeometry x="1680" y="680" width="40" height="40" as="geometry" />
        </mxCell>
        <mxCell id="CcgA9E4d6CHRGQEPa_HV-650" value="-3" style="whiteSpace=wrap;html=1;aspect=fixed;strokeColor=#6c8ebf;align=center;verticalAlign=middle;fontFamily=Helvetica;fontSize=12;fillColor=#dae8fc;fontStyle=1;strokeWidth=2;" vertex="1" parent="1">
          <mxGeometry x="1680" y="720" width="40" height="40" as="geometry" />
        </mxCell>
        <mxCell id="CcgA9E4d6CHRGQEPa_HV-651" value="-2" style="whiteSpace=wrap;html=1;aspect=fixed;strokeColor=#6c8ebf;align=center;verticalAlign=middle;fontFamily=Helvetica;fontSize=12;fillColor=#dae8fc;fontStyle=1;strokeWidth=2;" vertex="1" parent="1">
          <mxGeometry x="1680" y="760" width="40" height="40" as="geometry" />
        </mxCell>
        <mxCell id="CcgA9E4d6CHRGQEPa_HV-652" value="-1" style="whiteSpace=wrap;html=1;aspect=fixed;strokeColor=#6c8ebf;align=center;verticalAlign=middle;fontFamily=Helvetica;fontSize=12;fillColor=#dae8fc;fontStyle=1;strokeWidth=2;" vertex="1" parent="1">
          <mxGeometry x="1680" y="800" width="40" height="40" as="geometry" />
        </mxCell>
        <mxCell id="CcgA9E4d6CHRGQEPa_HV-653" value="0" style="whiteSpace=wrap;html=1;aspect=fixed;strokeColor=#6c8ebf;align=center;verticalAlign=middle;fontFamily=Helvetica;fontSize=12;fillColor=#dae8fc;fontStyle=1;strokeWidth=2;" vertex="1" parent="1">
          <mxGeometry x="1680" y="840" width="40" height="40" as="geometry" />
        </mxCell>
        <mxCell id="CcgA9E4d6CHRGQEPa_HV-654" value="1" style="whiteSpace=wrap;html=1;aspect=fixed;strokeColor=#6c8ebf;align=center;verticalAlign=middle;fontFamily=Helvetica;fontSize=12;fillColor=#dae8fc;fontStyle=1;strokeWidth=2;" vertex="1" parent="1">
          <mxGeometry x="1680" y="880" width="40" height="40" as="geometry" />
        </mxCell>
        <mxCell id="CcgA9E4d6CHRGQEPa_HV-655" value="2" style="whiteSpace=wrap;html=1;aspect=fixed;strokeColor=#6c8ebf;align=center;verticalAlign=middle;fontFamily=Helvetica;fontSize=12;fillColor=#dae8fc;fontStyle=1;strokeWidth=2;" vertex="1" parent="1">
          <mxGeometry x="1680" y="920" width="40" height="40" as="geometry" />
        </mxCell>
        <mxCell id="CcgA9E4d6CHRGQEPa_HV-656" value="3" style="whiteSpace=wrap;html=1;aspect=fixed;strokeColor=#6c8ebf;align=center;verticalAlign=middle;fontFamily=Helvetica;fontSize=12;fillColor=#dae8fc;fontStyle=1;strokeWidth=2;" vertex="1" parent="1">
          <mxGeometry x="1680" y="960" width="40" height="40" as="geometry" />
        </mxCell>
        <mxCell id="CcgA9E4d6CHRGQEPa_HV-657" value="4" style="whiteSpace=wrap;html=1;aspect=fixed;strokeColor=#6c8ebf;align=center;verticalAlign=middle;fontFamily=Helvetica;fontSize=12;fillColor=#dae8fc;fontStyle=1;strokeWidth=2;" vertex="1" parent="1">
          <mxGeometry x="1680" y="1000" width="40" height="40" as="geometry" />
        </mxCell>
        <mxCell id="CcgA9E4d6CHRGQEPa_HV-658" value="-5" style="whiteSpace=wrap;html=1;aspect=fixed;strokeColor=#6c8ebf;align=center;verticalAlign=middle;fontFamily=Helvetica;fontSize=12;fillColor=#dae8fc;fontStyle=1;strokeWidth=2;" vertex="1" parent="1">
          <mxGeometry x="1680" y="640" width="40" height="40" as="geometry" />
        </mxCell>
        <mxCell id="CcgA9E4d6CHRGQEPa_HV-659" value="5" style="whiteSpace=wrap;html=1;aspect=fixed;strokeColor=#6c8ebf;align=center;verticalAlign=middle;fontFamily=Helvetica;fontSize=12;fillColor=#dae8fc;fontStyle=1;strokeWidth=2;" vertex="1" parent="1">
          <mxGeometry x="1680" y="1040" width="40" height="40" as="geometry" />
        </mxCell>
        <mxCell id="CcgA9E4d6CHRGQEPa_HV-660" value="9" style="whiteSpace=wrap;html=1;aspect=fixed;strokeColor=#6c8ebf;align=center;verticalAlign=middle;fontFamily=Helvetica;fontSize=12;fillColor=#dae8fc;fontStyle=1;strokeWidth=2;" vertex="1" parent="1">
          <mxGeometry x="1720" y="1000" width="40" height="40" as="geometry" />
        </mxCell>
        <mxCell id="CcgA9E4d6CHRGQEPa_HV-661" value="10" style="whiteSpace=wrap;html=1;aspect=fixed;strokeColor=#6c8ebf;align=center;verticalAlign=middle;fontFamily=Helvetica;fontSize=12;fillColor=#dae8fc;fontStyle=1;strokeWidth=2;" vertex="1" parent="1">
          <mxGeometry x="1720" y="1040" width="40" height="40" as="geometry" />
        </mxCell>
        <mxCell id="CcgA9E4d6CHRGQEPa_HV-662" value="" style="whiteSpace=wrap;html=1;strokeColor=#6c8ebf;align=center;verticalAlign=middle;fontFamily=Helvetica;fontSize=12;fillColor=#dae8fc;fontStyle=1;strokeWidth=2;" vertex="1" parent="1">
          <mxGeometry x="640" y="800" width="380" height="320" as="geometry" />
        </mxCell>
        <mxCell id="CcgA9E4d6CHRGQEPa_HV-663" value="" style="whiteSpace=wrap;html=1;aspect=fixed;strokeColor=default;align=center;verticalAlign=middle;fontFamily=Helvetica;fontSize=12;fontColor=default;fillColor=light-dark(#FFFFFF,#A680B8);" vertex="1" parent="1">
          <mxGeometry x="720" y="840" width="40" height="40" as="geometry" />
        </mxCell>
        <mxCell id="CcgA9E4d6CHRGQEPa_HV-664" value="" style="whiteSpace=wrap;html=1;aspect=fixed;strokeColor=default;align=center;verticalAlign=middle;fontFamily=Helvetica;fontSize=12;fontColor=default;fillColor=light-dark(#FFFFFF,#A680B8);" vertex="1" parent="1">
          <mxGeometry x="760" y="840" width="40" height="40" as="geometry" />
        </mxCell>
        <mxCell id="CcgA9E4d6CHRGQEPa_HV-665" value="" style="whiteSpace=wrap;html=1;aspect=fixed;" vertex="1" parent="1">
          <mxGeometry x="800" y="840" width="40" height="40" as="geometry" />
        </mxCell>
        <mxCell id="CcgA9E4d6CHRGQEPa_HV-666" value="" style="whiteSpace=wrap;html=1;aspect=fixed;" vertex="1" parent="1">
          <mxGeometry x="840" y="840" width="40" height="40" as="geometry" />
        </mxCell>
        <mxCell id="CcgA9E4d6CHRGQEPa_HV-667" value="" style="whiteSpace=wrap;html=1;aspect=fixed;" vertex="1" parent="1">
          <mxGeometry x="880" y="840" width="40" height="40" as="geometry" />
        </mxCell>
        <mxCell id="CcgA9E4d6CHRGQEPa_HV-668" value="" style="whiteSpace=wrap;html=1;aspect=fixed;" vertex="1" parent="1">
          <mxGeometry x="920" y="840" width="40" height="40" as="geometry" />
        </mxCell>
        <mxCell id="CcgA9E4d6CHRGQEPa_HV-669" value="" style="whiteSpace=wrap;html=1;aspect=fixed;strokeColor=default;align=center;verticalAlign=middle;fontFamily=Helvetica;fontSize=12;fontColor=default;fillColor=light-dark(#FFFFFF,#A680B8);" vertex="1" parent="1">
          <mxGeometry x="960" y="840" width="40" height="40" as="geometry" />
        </mxCell>
        <mxCell id="CcgA9E4d6CHRGQEPa_HV-670" value="" style="whiteSpace=wrap;html=1;aspect=fixed;strokeColor=default;align=center;verticalAlign=middle;fontFamily=Helvetica;fontSize=12;fontColor=default;fillColor=light-dark(#FFFFFF,#A680B8);" vertex="1" parent="1">
          <mxGeometry x="720" y="920" width="40" height="40" as="geometry" />
        </mxCell>
        <mxCell id="CcgA9E4d6CHRGQEPa_HV-671" value="" style="whiteSpace=wrap;html=1;aspect=fixed;" vertex="1" parent="1">
          <mxGeometry x="760" y="920" width="40" height="40" as="geometry" />
        </mxCell>
        <mxCell id="CcgA9E4d6CHRGQEPa_HV-672" value="" style="whiteSpace=wrap;html=1;aspect=fixed;" vertex="1" parent="1">
          <mxGeometry x="800" y="920" width="40" height="40" as="geometry" />
        </mxCell>
        <mxCell id="CcgA9E4d6CHRGQEPa_HV-673" value="" style="whiteSpace=wrap;html=1;aspect=fixed;" vertex="1" parent="1">
          <mxGeometry x="840" y="920" width="40" height="40" as="geometry" />
        </mxCell>
        <mxCell id="CcgA9E4d6CHRGQEPa_HV-674" value="" style="whiteSpace=wrap;html=1;aspect=fixed;" vertex="1" parent="1">
          <mxGeometry x="880" y="920" width="40" height="40" as="geometry" />
        </mxCell>
        <mxCell id="CcgA9E4d6CHRGQEPa_HV-675" value="" style="whiteSpace=wrap;html=1;aspect=fixed;" vertex="1" parent="1">
          <mxGeometry x="920" y="920" width="40" height="40" as="geometry" />
        </mxCell>
        <mxCell id="CcgA9E4d6CHRGQEPa_HV-676" value="" style="whiteSpace=wrap;html=1;aspect=fixed;" vertex="1" parent="1">
          <mxGeometry x="960" y="920" width="40" height="40" as="geometry" />
        </mxCell>
        <mxCell id="CcgA9E4d6CHRGQEPa_HV-677" value="" style="whiteSpace=wrap;html=1;aspect=fixed;strokeColor=default;align=center;verticalAlign=middle;fontFamily=Helvetica;fontSize=12;fontColor=default;fillColor=light-dark(#FFFFFF,#A680B8);" vertex="1" parent="1">
          <mxGeometry x="720" y="1000" width="40" height="40" as="geometry" />
        </mxCell>
        <mxCell id="CcgA9E4d6CHRGQEPa_HV-678" value="" style="whiteSpace=wrap;html=1;aspect=fixed;" vertex="1" parent="1">
          <mxGeometry x="760" y="1000" width="40" height="40" as="geometry" />
        </mxCell>
        <mxCell id="CcgA9E4d6CHRGQEPa_HV-679" value="" style="whiteSpace=wrap;html=1;aspect=fixed;" vertex="1" parent="1">
          <mxGeometry x="800" y="1000" width="40" height="40" as="geometry" />
        </mxCell>
        <mxCell id="CcgA9E4d6CHRGQEPa_HV-680" value="" style="whiteSpace=wrap;html=1;aspect=fixed;" vertex="1" parent="1">
          <mxGeometry x="840" y="1000" width="40" height="40" as="geometry" />
        </mxCell>
        <mxCell id="CcgA9E4d6CHRGQEPa_HV-681" value="" style="whiteSpace=wrap;html=1;aspect=fixed;" vertex="1" parent="1">
          <mxGeometry x="880" y="1000" width="40" height="40" as="geometry" />
        </mxCell>
        <mxCell id="CcgA9E4d6CHRGQEPa_HV-682" value="" style="whiteSpace=wrap;html=1;aspect=fixed;" vertex="1" parent="1">
          <mxGeometry x="920" y="1000" width="40" height="40" as="geometry" />
        </mxCell>
        <mxCell id="CcgA9E4d6CHRGQEPa_HV-683" value="" style="whiteSpace=wrap;html=1;aspect=fixed;" vertex="1" parent="1">
          <mxGeometry x="960" y="1000" width="40" height="40" as="geometry" />
        </mxCell>
        <mxCell id="CcgA9E4d6CHRGQEPa_HV-684" value="" style="whiteSpace=wrap;html=1;aspect=fixed;strokeColor=default;align=center;verticalAlign=middle;fontFamily=Helvetica;fontSize=12;fontColor=default;fillColor=light-dark(#FFFFFF,#A680B8);" vertex="1" parent="1">
          <mxGeometry x="720" y="1080" width="40" height="40" as="geometry" />
        </mxCell>
        <mxCell id="CcgA9E4d6CHRGQEPa_HV-685" value="" style="whiteSpace=wrap;html=1;aspect=fixed;strokeColor=default;align=center;verticalAlign=middle;fontFamily=Helvetica;fontSize=12;fontColor=default;fillColor=light-dark(#FFFFFF,#A680B8);" vertex="1" parent="1">
          <mxGeometry x="760" y="1080" width="40" height="40" as="geometry" />
        </mxCell>
        <mxCell id="CcgA9E4d6CHRGQEPa_HV-686" value="" style="whiteSpace=wrap;html=1;aspect=fixed;" vertex="1" parent="1">
          <mxGeometry x="800" y="1080" width="40" height="40" as="geometry" />
        </mxCell>
        <mxCell id="CcgA9E4d6CHRGQEPa_HV-687" value="" style="whiteSpace=wrap;html=1;aspect=fixed;" vertex="1" parent="1">
          <mxGeometry x="840" y="1080" width="40" height="40" as="geometry" />
        </mxCell>
        <mxCell id="CcgA9E4d6CHRGQEPa_HV-688" value="" style="whiteSpace=wrap;html=1;aspect=fixed;" vertex="1" parent="1">
          <mxGeometry x="880" y="1080" width="40" height="40" as="geometry" />
        </mxCell>
        <mxCell id="CcgA9E4d6CHRGQEPa_HV-689" value="" style="whiteSpace=wrap;html=1;aspect=fixed;" vertex="1" parent="1">
          <mxGeometry x="920" y="1080" width="40" height="40" as="geometry" />
        </mxCell>
        <mxCell id="CcgA9E4d6CHRGQEPa_HV-690" value="" style="whiteSpace=wrap;html=1;aspect=fixed;strokeColor=default;align=center;verticalAlign=middle;fontFamily=Helvetica;fontSize=12;fontColor=default;fillColor=light-dark(#FFFFFF,#A680B8);" vertex="1" parent="1">
          <mxGeometry x="960" y="1080" width="40" height="40" as="geometry" />
        </mxCell>
        <mxCell id="CcgA9E4d6CHRGQEPa_HV-691" value="" style="whiteSpace=wrap;html=1;aspect=fixed;strokeColor=default;align=center;verticalAlign=middle;fontFamily=Helvetica;fontSize=12;fontColor=default;fillColor=light-dark(#FFFFFF,#A680B8);" vertex="1" parent="1">
          <mxGeometry x="720" y="880" width="40" height="40" as="geometry" />
        </mxCell>
        <mxCell id="CcgA9E4d6CHRGQEPa_HV-692" value="" style="whiteSpace=wrap;html=1;aspect=fixed;" vertex="1" parent="1">
          <mxGeometry x="760" y="880" width="40" height="40" as="geometry" />
        </mxCell>
        <mxCell id="CcgA9E4d6CHRGQEPa_HV-693" value="" style="whiteSpace=wrap;html=1;aspect=fixed;" vertex="1" parent="1">
          <mxGeometry x="800" y="880" width="40" height="40" as="geometry" />
        </mxCell>
        <mxCell id="CcgA9E4d6CHRGQEPa_HV-694" value="" style="whiteSpace=wrap;html=1;aspect=fixed;" vertex="1" parent="1">
          <mxGeometry x="840" y="880" width="40" height="40" as="geometry" />
        </mxCell>
        <mxCell id="CcgA9E4d6CHRGQEPa_HV-695" value="" style="whiteSpace=wrap;html=1;aspect=fixed;" vertex="1" parent="1">
          <mxGeometry x="880" y="880" width="40" height="40" as="geometry" />
        </mxCell>
        <mxCell id="CcgA9E4d6CHRGQEPa_HV-696" value="" style="whiteSpace=wrap;html=1;aspect=fixed;" vertex="1" parent="1">
          <mxGeometry x="920" y="880" width="40" height="40" as="geometry" />
        </mxCell>
        <mxCell id="CcgA9E4d6CHRGQEPa_HV-697" value="" style="whiteSpace=wrap;html=1;aspect=fixed;strokeColor=default;align=center;verticalAlign=middle;fontFamily=Helvetica;fontSize=12;fontColor=default;fillColor=light-dark(#FFFFFF,#A680B8);" vertex="1" parent="1">
          <mxGeometry x="960" y="880" width="40" height="40" as="geometry" />
        </mxCell>
        <mxCell id="CcgA9E4d6CHRGQEPa_HV-698" value="" style="whiteSpace=wrap;html=1;aspect=fixed;" vertex="1" parent="1">
          <mxGeometry x="720" y="960" width="40" height="40" as="geometry" />
        </mxCell>
        <mxCell id="CcgA9E4d6CHRGQEPa_HV-699" value="" style="whiteSpace=wrap;html=1;aspect=fixed;" vertex="1" parent="1">
          <mxGeometry x="760" y="960" width="40" height="40" as="geometry" />
        </mxCell>
        <mxCell id="CcgA9E4d6CHRGQEPa_HV-700" value="" style="whiteSpace=wrap;html=1;aspect=fixed;" vertex="1" parent="1">
          <mxGeometry x="800" y="960" width="40" height="40" as="geometry" />
        </mxCell>
        <mxCell id="CcgA9E4d6CHRGQEPa_HV-701" value="" style="whiteSpace=wrap;html=1;aspect=fixed;fillColor=#d5e8d4;strokeColor=#82b366;" vertex="1" parent="1">
          <mxGeometry x="840" y="960" width="40" height="40" as="geometry" />
        </mxCell>
        <mxCell id="CcgA9E4d6CHRGQEPa_HV-702" value="" style="whiteSpace=wrap;html=1;aspect=fixed;" vertex="1" parent="1">
          <mxGeometry x="880" y="960" width="40" height="40" as="geometry" />
        </mxCell>
        <mxCell id="CcgA9E4d6CHRGQEPa_HV-703" value="" style="whiteSpace=wrap;html=1;aspect=fixed;" vertex="1" parent="1">
          <mxGeometry x="920" y="960" width="40" height="40" as="geometry" />
        </mxCell>
        <mxCell id="CcgA9E4d6CHRGQEPa_HV-704" value="" style="whiteSpace=wrap;html=1;aspect=fixed;" vertex="1" parent="1">
          <mxGeometry x="960" y="960" width="40" height="40" as="geometry" />
        </mxCell>
        <mxCell id="CcgA9E4d6CHRGQEPa_HV-705" value="" style="whiteSpace=wrap;html=1;aspect=fixed;strokeColor=default;align=center;verticalAlign=middle;fontFamily=Helvetica;fontSize=12;fontColor=default;fillColor=light-dark(#FFFFFF,#A680B8);" vertex="1" parent="1">
          <mxGeometry x="720" y="1040" width="40" height="40" as="geometry" />
        </mxCell>
        <mxCell id="CcgA9E4d6CHRGQEPa_HV-706" value="" style="whiteSpace=wrap;html=1;aspect=fixed;" vertex="1" parent="1">
          <mxGeometry x="760" y="1040" width="40" height="40" as="geometry" />
        </mxCell>
        <mxCell id="CcgA9E4d6CHRGQEPa_HV-707" value="" style="whiteSpace=wrap;html=1;aspect=fixed;" vertex="1" parent="1">
          <mxGeometry x="800" y="1040" width="40" height="40" as="geometry" />
        </mxCell>
        <mxCell id="CcgA9E4d6CHRGQEPa_HV-708" value="" style="whiteSpace=wrap;html=1;aspect=fixed;" vertex="1" parent="1">
          <mxGeometry x="840" y="1040" width="40" height="40" as="geometry" />
        </mxCell>
        <mxCell id="CcgA9E4d6CHRGQEPa_HV-709" value="" style="whiteSpace=wrap;html=1;aspect=fixed;" vertex="1" parent="1">
          <mxGeometry x="880" y="1040" width="40" height="40" as="geometry" />
        </mxCell>
        <mxCell id="CcgA9E4d6CHRGQEPa_HV-710" value="" style="whiteSpace=wrap;html=1;aspect=fixed;" vertex="1" parent="1">
          <mxGeometry x="920" y="1040" width="40" height="40" as="geometry" />
        </mxCell>
        <mxCell id="CcgA9E4d6CHRGQEPa_HV-711" value="" style="whiteSpace=wrap;html=1;aspect=fixed;strokeColor=default;align=center;verticalAlign=middle;fontFamily=Helvetica;fontSize=12;fontColor=default;fillColor=light-dark(#FFFFFF,#A680B8);" vertex="1" parent="1">
          <mxGeometry x="960" y="1040" width="40" height="40" as="geometry" />
        </mxCell>
        <mxCell id="CcgA9E4d6CHRGQEPa_HV-712" value="4" style="whiteSpace=wrap;html=1;aspect=fixed;strokeColor=#6c8ebf;align=center;verticalAlign=middle;fontFamily=Helvetica;fontSize=12;fillColor=#dae8fc;fontStyle=1;strokeWidth=2;" vertex="1" parent="1">
          <mxGeometry x="680" y="1000" width="40" height="40" as="geometry" />
        </mxCell>
        <mxCell id="CcgA9E4d6CHRGQEPa_HV-713" value="0" style="whiteSpace=wrap;html=1;aspect=fixed;strokeColor=#6c8ebf;align=center;verticalAlign=middle;fontFamily=Helvetica;fontSize=12;fillColor=#dae8fc;fontStyle=1;strokeWidth=2;" vertex="1" parent="1">
          <mxGeometry x="680" y="840" width="40" height="40" as="geometry" />
        </mxCell>
        <mxCell id="CcgA9E4d6CHRGQEPa_HV-714" value="1" style="whiteSpace=wrap;html=1;aspect=fixed;strokeColor=#6c8ebf;align=center;verticalAlign=middle;fontFamily=Helvetica;fontSize=12;fillColor=#dae8fc;fontStyle=1;strokeWidth=2;" vertex="1" parent="1">
          <mxGeometry x="680" y="880" width="40" height="40" as="geometry" />
        </mxCell>
        <mxCell id="CcgA9E4d6CHRGQEPa_HV-715" value="2" style="whiteSpace=wrap;html=1;aspect=fixed;strokeColor=#6c8ebf;align=center;verticalAlign=middle;fontFamily=Helvetica;fontSize=12;fillColor=#dae8fc;fontStyle=1;strokeWidth=2;" vertex="1" parent="1">
          <mxGeometry x="680" y="920" width="40" height="40" as="geometry" />
        </mxCell>
        <mxCell id="CcgA9E4d6CHRGQEPa_HV-716" value="3" style="whiteSpace=wrap;html=1;aspect=fixed;strokeColor=#6c8ebf;align=center;verticalAlign=middle;fontFamily=Helvetica;fontSize=12;fillColor=#dae8fc;fontStyle=1;strokeWidth=2;" vertex="1" parent="1">
          <mxGeometry x="680" y="960" width="40" height="40" as="geometry" />
        </mxCell>
        <mxCell id="CcgA9E4d6CHRGQEPa_HV-717" value="0" style="whiteSpace=wrap;html=1;aspect=fixed;strokeColor=#6c8ebf;align=center;verticalAlign=middle;fontFamily=Helvetica;fontSize=12;fillColor=#dae8fc;fontStyle=1;strokeWidth=2;" vertex="1" parent="1">
          <mxGeometry x="720" y="800" width="40" height="40" as="geometry" />
        </mxCell>
        <mxCell id="CcgA9E4d6CHRGQEPa_HV-718" value="1" style="whiteSpace=wrap;html=1;aspect=fixed;strokeColor=#6c8ebf;align=center;verticalAlign=middle;fontFamily=Helvetica;fontSize=12;fillColor=#dae8fc;fontStyle=1;strokeWidth=2;" vertex="1" parent="1">
          <mxGeometry x="760" y="800" width="40" height="40" as="geometry" />
        </mxCell>
        <mxCell id="CcgA9E4d6CHRGQEPa_HV-719" value="2" style="whiteSpace=wrap;html=1;strokeColor=#6c8ebf;align=center;verticalAlign=middle;fontFamily=Helvetica;fontSize=12;fillColor=#dae8fc;fontStyle=1;strokeWidth=2;" vertex="1" parent="1">
          <mxGeometry x="800" y="800" width="40" height="40" as="geometry" />
        </mxCell>
        <mxCell id="CcgA9E4d6CHRGQEPa_HV-720" value="3" style="whiteSpace=wrap;html=1;strokeColor=#6c8ebf;align=center;verticalAlign=middle;fontFamily=Helvetica;fontSize=12;fillColor=#dae8fc;fontStyle=1;strokeWidth=2;" vertex="1" parent="1">
          <mxGeometry x="840" y="800" width="40" height="40" as="geometry" />
        </mxCell>
        <mxCell id="CcgA9E4d6CHRGQEPa_HV-721" value="6" style="whiteSpace=wrap;html=1;aspect=fixed;strokeColor=#6c8ebf;align=center;verticalAlign=middle;fontFamily=Helvetica;fontSize=12;fillColor=#dae8fc;fontStyle=1;strokeWidth=2;" vertex="1" parent="1">
          <mxGeometry x="680" y="1080" width="40" height="40" as="geometry" />
        </mxCell>
        <mxCell id="CcgA9E4d6CHRGQEPa_HV-722" value="5" style="whiteSpace=wrap;html=1;aspect=fixed;strokeColor=#6c8ebf;align=center;verticalAlign=middle;fontFamily=Helvetica;fontSize=12;fillColor=#dae8fc;fontStyle=1;strokeWidth=2;" vertex="1" parent="1">
          <mxGeometry x="680" y="1040" width="40" height="40" as="geometry" />
        </mxCell>
        <mxCell id="CcgA9E4d6CHRGQEPa_HV-723" value="4" style="whiteSpace=wrap;html=1;strokeColor=#6c8ebf;align=center;verticalAlign=middle;fontFamily=Helvetica;fontSize=12;fillColor=#dae8fc;fontStyle=1;strokeWidth=2;" vertex="1" parent="1">
          <mxGeometry x="880" y="800" width="40" height="40" as="geometry" />
        </mxCell>
        <mxCell id="CcgA9E4d6CHRGQEPa_HV-724" value="5" style="whiteSpace=wrap;html=1;strokeColor=#6c8ebf;align=center;verticalAlign=middle;fontFamily=Helvetica;fontSize=12;fillColor=#dae8fc;fontStyle=1;strokeWidth=2;" vertex="1" parent="1">
          <mxGeometry x="920" y="800" width="40" height="40" as="geometry" />
        </mxCell>
        <mxCell id="CcgA9E4d6CHRGQEPa_HV-725" value="6" style="whiteSpace=wrap;html=1;strokeColor=#6c8ebf;align=center;verticalAlign=middle;fontFamily=Helvetica;fontSize=12;fillColor=#dae8fc;fontStyle=1;strokeWidth=2;" vertex="1" parent="1">
          <mxGeometry x="960" y="800" width="60" height="40" as="geometry" />
        </mxCell>
        <mxCell id="CcgA9E4d6CHRGQEPa_HV-726" value="-3" style="whiteSpace=wrap;html=1;aspect=fixed;strokeColor=#6c8ebf;align=center;verticalAlign=middle;fontFamily=Helvetica;fontSize=12;fillColor=#dae8fc;fontStyle=1;strokeWidth=2;" vertex="1" parent="1">
          <mxGeometry x="640" y="840" width="40" height="40" as="geometry" />
        </mxCell>
        <mxCell id="CcgA9E4d6CHRGQEPa_HV-727" value="-2" style="whiteSpace=wrap;html=1;aspect=fixed;strokeColor=#6c8ebf;align=center;verticalAlign=middle;fontFamily=Helvetica;fontSize=12;fillColor=#dae8fc;fontStyle=1;strokeWidth=2;" vertex="1" parent="1">
          <mxGeometry x="640" y="880" width="40" height="40" as="geometry" />
        </mxCell>
        <mxCell id="CcgA9E4d6CHRGQEPa_HV-728" value="-1" style="whiteSpace=wrap;html=1;aspect=fixed;strokeColor=#6c8ebf;align=center;verticalAlign=middle;fontFamily=Helvetica;fontSize=12;fillColor=#dae8fc;fontStyle=1;strokeWidth=2;" vertex="1" parent="1">
          <mxGeometry x="640" y="920" width="40" height="40" as="geometry" />
        </mxCell>
        <mxCell id="CcgA9E4d6CHRGQEPa_HV-729" value="0" style="whiteSpace=wrap;html=1;aspect=fixed;strokeColor=#6c8ebf;align=center;verticalAlign=middle;fontFamily=Helvetica;fontSize=12;fillColor=#dae8fc;fontStyle=1;strokeWidth=2;" vertex="1" parent="1">
          <mxGeometry x="640" y="960" width="40" height="40" as="geometry" />
        </mxCell>
        <mxCell id="CcgA9E4d6CHRGQEPa_HV-730" value="1" style="whiteSpace=wrap;html=1;aspect=fixed;strokeColor=#6c8ebf;align=center;verticalAlign=middle;fontFamily=Helvetica;fontSize=12;fillColor=#dae8fc;fontStyle=1;strokeWidth=2;" vertex="1" parent="1">
          <mxGeometry x="640" y="1000" width="40" height="40" as="geometry" />
        </mxCell>
        <mxCell id="CcgA9E4d6CHRGQEPa_HV-731" value="2" style="whiteSpace=wrap;html=1;aspect=fixed;strokeColor=#6c8ebf;align=center;verticalAlign=middle;fontFamily=Helvetica;fontSize=12;fillColor=#dae8fc;fontStyle=1;strokeWidth=2;" vertex="1" parent="1">
          <mxGeometry x="640" y="1040" width="40" height="40" as="geometry" />
        </mxCell>
        <mxCell id="CcgA9E4d6CHRGQEPa_HV-732" value="3" style="whiteSpace=wrap;html=1;aspect=fixed;strokeColor=#6c8ebf;align=center;verticalAlign=middle;fontFamily=Helvetica;fontSize=12;fillColor=#dae8fc;fontStyle=1;strokeWidth=2;" vertex="1" parent="1">
          <mxGeometry x="640" y="1080" width="40" height="40" as="geometry" />
        </mxCell>
      </root>
    </mxGraphModel>
  </diagram>
</mxfile>
